<svg transform="scale(1)" id="_0894_Bad_Connection_3" xmlns="http://www.w3.org/2000/svg" viewBox="0 0 500 500" class="show_show__wrapper__graphic__5Waiy "><title>React</title><defs><style>.cls-1{fill:#fff;}.cls-2{fill:#a0a09c;}.cls-3{opacity:.11;}.cls-4{fill:#0a0a0a;}</style></defs><g id="flat_earth"><path class="cls-2" d="M80.03,357.27H222.76c47.33,0,94.67,0,142,0h80.1c1.21,0,1.15-1.42,.77-2.19-.52-1.07-1.72-1.88-2.91-1.88H77.89c-1.21,0-1.15,1.42-.77,2.19,.52,1.07,1.72,1.88,2.91,1.88h0Z"></path></g><g id="cactus"><g><path class="cls-4" d="M450.78,376.82c1.79-22.73,2.45-45.55,1.98-68.34-.22-10.57-.72-21.36-4.5-31.24-1.36-3.55-3.22-7.06-6.27-9.32-6.61-4.92-16.67-2.05-22.08,4.16-5.42,6.21-7.25,14.71-8.41,22.87-4.17,29.21-2.23,58.91-.29,88.35,5.54-.18,11.08-.37,16.63-.55,7.93-.26,16.83-.97,22.01-6.97"></path><path class="cls-4" d="M452.23,376.44c1.41-18.04,2.13-36.12,2.12-54.22,0-8.69,.03-17.44-.68-26.11-.64-7.89-1.94-16.39-5.87-23.38-1.63-2.9-3.9-5.42-6.99-6.77-2.79-1.21-5.89-1.38-8.87-.94-6.62,.98-12.33,4.89-15.86,10.53-3.99,6.37-5.27,14.02-6.26,21.35-1.17,8.73-1.82,17.52-2.1,26.31-.56,17.96,.43,35.93,1.59,53.85,.14,2.21,.29,4.42,.43,6.63,.02,.29,.68,.24,.83,.24,4.24-.14,8.48-.28,12.71-.42,3.6-.12,7.22-.17,10.81-.58,6.2-.69,12.76-2.4,17.05-7.24,.43-.49-.38-.56-.7-.54-.59,.02-1.52,.24-1.93,.71-3.94,4.45-9.76,5.6-15.43,6.03-7.07,.53-14.19,.55-21.27,.79l.83,.24c-1.13-17.11-2.25-34.24-2.18-51.39,.04-8.59,.37-17.18,1.16-25.74,.71-7.69,1.47-15.66,3.84-23.04,2.06-6.4,5.79-12.71,12.21-15.47,2.74-1.18,5.8-1.57,8.71-.84,3.32,.83,5.97,3.06,7.81,5.9,4.09,6.31,5.53,14.46,6.32,21.81,.88,8.25,.87,16.61,.92,24.9,.1,17.26-.44,34.53-1.64,51.75-.15,2.14-.31,4.28-.48,6.43-.04,.48,2.83,.14,2.9-.78h0Z"></path></g><g><path class="cls-4" d="M452.35,329.29c3.93-.26,6.98-3.61,8.7-7.14,1.73-3.53,2.6-7.47,4.61-10.85,2.01-3.38,5.71-6.25,9.59-5.56,3.91,.7,6.41,4.77,6.93,8.71,1.02,7.72-3.52,15.01-8.32,21.14-2.53,3.23-5.24,6.41-8.61,8.75-3.37,2.35-7.51,3.82-11.59,3.3-.63-.08-1.32-.2-1.88,.11-.56,.31-.75,1.27-.18,1.55"></path><path class="cls-4" d="M452.12,329.98c6.63-.61,9.96-6.48,12.04-12.09,1.18-3.2,2.29-6.57,4.7-9.09,2.28-2.38,5.31-3.32,8.1-1.13,5.15,4.03,4.41,11.8,2.21,17.17-1.33,3.26-3.26,6.24-5.35,9.06s-4.23,5.52-6.75,7.87c-2.83,2.63-6.33,4.92-10.29,5.21-1.75,.13-3.49-.46-5.19,.13-.98,.34-2.63,1.7-1.34,2.71,.73,.57,3.36-.56,2.71-1.08-.37-.29,.02-.78-.59-.46,.18-.1,1.01,.11,1.23,.13,.81,.06,1.62,.05,2.43-.02,1.8-.15,3.56-.57,5.25-1.19,3.24-1.2,6.1-3.21,8.58-5.59s4.8-5.25,6.89-8.11c2.07-2.83,3.98-5.83,5.31-9.09,2.24-5.47,2.88-12.97-1.87-17.38-4.87-4.52-12.22-1.17-15.45,3.63-2.23,3.32-3.13,7.29-4.75,10.89-1.37,3.04-3.78,6.69-7.41,7.03-.4,.04-1.64,.36-1.67,.91-.03,.61,.81,.52,1.21,.48h0Z"></path></g><g><path class="cls-4" d="M413.01,304.13c-4.36-.36-7.68-4.13-9.57-8.07-1.9-3.94-2.88-8.31-5.22-12.01-2.34-3.69-6.69-6.68-10.91-5.54-4.47,1.21-6.63,6.38-6.98,11-.32,4.27,.36,8.62,1.97,12.59,4.76,11.7,16.83,18.77,28.86,22.61"></path><path class="cls-4" d="M413.93,303.48c-3.55-.37-6.3-3.11-8.08-6.02-2.03-3.33-2.98-7.17-4.57-10.71-1.46-3.26-3.55-6.29-6.8-7.97-2.93-1.52-6.33-1.51-9.29-.06-6.3,3.08-7.03,11.5-6.07,17.6,1.12,7.14,5.07,13.39,10.44,18.12,5.84,5.13,13.06,8.53,20.4,10.89,.62,.2,1.48-.04,2.03-.34,.29-.16,.97-.66,.32-.87-11.95-3.85-24.52-11-29-23.47-2.13-5.93-2.99-14.6,1.5-19.75,.91-1.04,2.08-1.93,3.51-1.96,1.69-.04,3.36,.71,4.72,1.66,2.93,2.03,4.62,5.11,5.92,8.34,2.56,6.34,5.01,15.01,13.1,15.85,.62,.07,1.57-.11,2.05-.55,.39-.36,.43-.69-.2-.75h0Z"></path></g><path class="cls-1" d="M436.44,270.66c3.95,4.13,5.63,9.7,6.38,15.25,.84,6.31,.74,12.76,.87,19.11,.28,14.61,.33,29.22,.15,43.82-.1,8.3-.28,16.6-.53,24.89,0,.33,2.87,0,2.9-.78,.45-14.77,.66-29.54,.63-44.32-.01-7.39-.08-14.77-.22-22.16-.12-6.59-.03-13.25-.72-19.81-.66-6.18-2.32-12.36-6.72-16.96-.47-.49-3.1,.58-2.74,.95h0Z"></path><path class="cls-1" d="M430.03,268.89c-2.98,13.71-3.02,27.9-3.5,41.86-.49,14.24-.87,28.48-1.15,42.73-.16,8.12-.29,16.23-.38,24.35-.02,1.38,2.9,.86,2.92-.29,.17-14.41,.44-28.82,.82-43.23s.71-28.3,1.44-42.42c.4-7.81,1.11-15.62,2.78-23.28,.28-1.27-2.67-.86-2.92,.29h0Z"></path><path class="cls-1" d="M420.91,274.7c-8.76,26.36-10.03,54.35-9.52,81.91,.15,7.92,.44,15.84,.73,23.76,.06,1.57,2.99,1.18,2.94-.19-1.03-27.5-2.04-55.34,2.91-82.56,1.39-7.64,3.26-15.17,5.71-22.54,.54-1.62-2.35-1.68-2.79-.39h0Z"></path><path class="cls-1" d="M386.02,282.8c2.94,.02,3.99,4.26,4.65,6.47,1.03,3.39,1.79,6.85,2.96,10.19,1.93,5.48,5.24,10.71,10.83,12.96,1.15,.46,3.38-1.19,1.7-1.87-6.1-2.46-8.89-9.07-10.6-14.94-.96-3.3-1.64-6.75-2.94-9.95-.98-2.42-2.71-4.83-5.57-4.86-.66,0-1.59,.18-1.89,.87-.26,.61,.23,1.13,.86,1.14h0Z"></path><path class="cls-1" d="M475.06,309.35c-6.81,2.46-5.79,10.08-7.43,15.81-.89,3.09-2.42,6.06-4.41,8.58-1.95,2.46-4.38,4.88-7.57,5.5-.55,.11-1.37,.67-1.2,1.33,.19,.71,1.16,.65,1.7,.55,6.06-1.19,10.65-7.13,13.05-12.47,1.34-2.99,1.96-6.09,2.38-9.32,.35-2.72,.94-7,3.99-8.11,.53-.19,1.39-.61,1.2-1.33-.17-.65-1.19-.74-1.7-.55h0Z"></path><g><path class="cls-2" d="M426.51,267.73c2.7,.88,5.8,.4,8.11-1.25,1.24-.89,2.32-2.5,1.67-3.88-.61-1.29-2.34-1.56-3.74-1.32-2.38,.4-4.58,1.81-5.96,3.8,1.06-1.54,1.66-3.39,1.72-5.26,.04-1.33-.23-2.75-1.12-3.74-.89-.99-2.53-1.38-3.6-.59-1.01,.74-1.19,2.17-1.15,3.42,.06,1.97,.46,3.92,1.16,5.76-1.89-2-5.34-2.25-7.5-.55-1.03,.81-1.77,2.28-1.13,3.41,.63,1.11,2.21,1.26,3.42,.85s2.27-1.2,3.49-1.54c-1.36,1.03-2.63,2.3-3.17,3.92s-.12,3.65,1.32,4.57c1.59,1.01,3.86,.27,4.98-1.25,1.12-1.52,1.26-3.56,.94-5.42"></path><path class="cls-2" d="M425.65,268.63c2.66,.81,5.57,.61,8.11-.55,2-.91,4.97-3.15,4.02-5.73-.85-2.33-3.98-2.31-5.97-1.86-2.7,.61-5.01,2.24-6.6,4.47,.91,.07,1.83,.15,2.74,.22,2.13-3.24,3.28-10.57-2.26-11.08-2.19-.2-4.16,1.17-4.6,3.32-.51,2.45,.21,5.33,1.06,7.62l2.78-1c-2.91-2.9-8.69-2.76-11.04,.85-1.16,1.78-.54,3.92,1.58,4.48,1.03,.27,2.15,.19,3.15-.12,1.23-.38,2.28-1.16,3.49-1.54l-1.17-1.46c-1.79,1.39-3.67,3.22-3.89,5.61-.19,2.05,.83,4.08,2.88,4.69,2.03,.61,4.46-.21,5.91-1.71,1.7-1.75,1.93-4.29,1.56-6.59-.19-1.2-3.1-.49-2.9,.78,.24,1.53,.23,3.31-.68,4.64-.6,.88-1.67,1.49-2.66,.85-1.08-.69-1.36-2.19-1.13-3.37,.3-1.59,1.56-2.81,2.79-3.76s-.07-1.8-1.17-1.46c-.74,.23-1.44,.53-2.13,.88-.53,.27-1.12,.65-1.71,.75-1.36,.23-1.95-1.09-1.34-2.19,1.2-2.17,4.3-1.6,5.79-.12,.64,.64,3.23,.21,2.78-1-.65-1.76-1.09-3.62-1.15-5.51-.03-.8-.07-3.15,1.24-2.6,1.5,.64,1.79,2.72,1.69,4.14-.12,1.7-.68,3.24-1.61,4.66-.4,.6,.35,1.02,.84,1.07,.73,.08,1.48-.26,1.9-.85,.94-1.32,2.3-2.34,3.86-2.8,1.09-.32,2.86-.42,3.16,1.02,.34,1.6-1.5,2.81-2.75,3.3-1.57,.62-3.25,.6-4.85,.11-.66-.2-1.58,.03-2.05,.55-.43,.48-.3,1.06,.34,1.25h0Z"></path></g><path class="cls-4" d="M456.11,367.07c-1.72,.33-3.45,.66-5.17,.99-.38,.07-.76,.18-1.1,.35-.17,.08-.51,.26-.59,.47-.18,.52,1,.37,1.17,.33,1.72-.33,3.45-.66,5.17-.99,.38-.07,.76-.18,1.1-.35,.17-.08,.51-.26,.59-.47,.18-.52-1-.37-1.17-.33h0Z"></path><path class="cls-4" d="M457.97,359.86c-1.86-1.09-4.15-1.29-6.2-.72-.34,.09-.71,.27-.96,.52-.16,.16-.35,.47-.26,.72,.22,.63,1.16,.61,1.68,.46,.1-.03,.21-.06,.31-.08,.05-.01,.11-.02,.16-.03-.25,.04-.31,.06-.19,.04,.2-.03,.4-.06,.6-.07,.11,0,.35,.03-.05,0,.11,0,.22,0,.32,0,.19,0,.38,.02,.56,.05,.05,0,.11,.01,.16,.02-.18-.03-.23-.04-.13-.02,.09,.02,.19,.04,.28,.06,.18,.04,.37,.1,.54,.16,.1,.03,.22,.06,.3,.11-.25-.15-.04-.02,.02,.02,.2,.09,.39,.19,.57,.3,.59,.35,1.53,.16,2.06-.23,.22-.16,.5-.39,.53-.69,.02-.26-.09-.48-.32-.62h0Z"></path><path class="cls-4" d="M455.12,351.89c-1.73,0-3.47,0-5.2,0-.36,0-.81,.19-1.09,.4-.22,.17-.49,.49-.5,.8-.03,.77,.72,1,1.35,1,1.73,0,3.47,0,5.2,0,.36,0,.81-.19,1.09-.4,.22-.17,.49-.49,.5-.8,.03-.77-.72-1-1.35-1h0Z"></path><path class="cls-4" d="M458.33,310.86c-.32,.14-.65,.27-.97,.39-.14,.05-.28,.1-.42,.15,.27-.09-.18,.05-.19,.06-.31,.09-.63,.18-.94,.25-.07,.02-.15,.03-.22,.05,.15-.03,.13-.03-.05,0-.15,.03-.29,.06-.44,.08-1.14,.19-2.27,.26-3.5,.18-.69-.05-1.49,.12-2.05,.55-.43,.33-.39,.76,.22,.81,3.28,.23,6.62-.32,9.64-1.63,.25-.11,1.26-.56,.82-.97-.41-.38-1.47-.1-1.89,.08h0Z"></path><path class="cls-4" d="M458.62,299.12c-.65,.06-1.3,.1-1.96,.11-.15,0-.3,0-.45,0,.21,0-.24,0-.23,0-.33,0-.65-.01-.98-.02-1.28-.05-2.56-.19-3.82-.4-.65-.11-1.59,.25-1.9,.86-.34,.66,.3,1.01,.85,1.1,2.7,.45,5.45,.54,8.18,.3,.6-.05,1.52-.42,1.61-1.11s-.8-.89-1.31-.84h0Z"></path><path class="cls-4" d="M456.56,287.39c-2.3,.35-4.6,.7-6.9,1.05-.37,.06-.77,.18-1.1,.35-.17,.08-.51,.26-.59,.47-.19,.51,1,.35,1.17,.32,2.3-.35,4.6-.7,6.9-1.05,.37-.06,.77-.18,1.1-.35,.17-.08,.51-.26,.59-.47,.19-.51-1-.35-1.17-.32h0Z"></path><path class="cls-4" d="M452.56,275.33c-1.91,.66-3.73,1.53-5.38,2.7-.21,.15-.49,.36-.54,.64-.04,.24,.09,.45,.31,.55,.6,.29,1.53,.12,2.06-.25,.34-.24,.69-.47,1.05-.69,.19-.12,.38-.23,.58-.34,.1-.05,.2-.11,.29-.16,.05-.03,.1-.05,.15-.08-.19,.1-.24,.12-.14,.07,.37-.19,.75-.37,1.14-.53,.19-.08,.39-.16,.58-.24,.1-.04,.21-.08,.31-.12s.5-.18,.02,0c.34-.12,.69-.24,.96-.5,.15-.14,.36-.43,.28-.66-.21-.58-1.2-.54-1.66-.38h0Z"></path><path class="cls-4" d="M414.37,283.18c-1.15-.17-2.3-.35-3.45-.52-.35-.05-.82,.06-1.14,.21-.27,.12-.63,.36-.76,.64-.11,.23-.15,.51,.04,.72,.21,.24,.5,.31,.81,.35,1.15,.17,2.3,.35,3.45,.52,.35,.05,.82-.06,1.14-.21,.27-.12,.63-.36,.76-.64,.11-.23,.15-.51-.04-.72-.21-.24-.5-.31-.81-.35h0Z"></path><path class="cls-4" d="M413.42,291.36c-1.77-.51-3.66-.65-5.48-.39-.38,.05-.77,.16-1.09,.39-.21,.15-.5,.43-.52,.71-.05,.68,.76,.9,1.31,.83,.38-.05,.77-.09,1.16-.11,.07,0,.2,.02,.27,0-.22,0-.26,0-.1,0,.04,0,.09,0,.13,0,.19,0,.39,.01,.58,.03,.18,.01,.36,.03,.53,.05s.45,.02,.62,.09l-.15-.03c.06,.01,.12,.02,.18,.03,.09,.02,.17,.04,.26,.06,.2,.05,.4,.1,.61,.16,.35,.1,.75,.08,1.09-.01,.32-.09,.73-.27,.95-.54,.17-.2,.35-.47,.26-.74s-.32-.44-.59-.52h0Z"></path><path class="cls-4" d="M408.96,332.57c-1.44-.3-2.88-.6-4.32-.9-.65-.14-1.44,.06-2.03,.36-.2,.1-.51,.24-.59,.46-.07,.18,.08,.29,.24,.32,1.44,.3,2.88,.6,4.32,.9,.65,.14,1.44-.06,2.03-.36,.2-.1,.51-.24,.59-.46,.07-.18-.08-.29-.24-.32h0Z"></path><path class="cls-4" d="M409.7,346.86l-3.03,.87c-.34,.1-.71,.27-.95,.54-.16,.18-.34,.5-.25,.77,.23,.66,1.14,.69,1.7,.53l3.03-.87c.34-.1,.71-.27,.95-.54,.16-.18,.34-.5,.25-.77-.23-.66-1.14-.69-1.7-.53h0Z"></path><path class="cls-4" d="M409.23,360.6c-1.3,.42-2.61,.84-3.91,1.25-.35,.11-.71,.29-.94,.58-.17,.22-.32,.57-.22,.86,.23,.68,1.11,.86,1.73,.67,1.3-.42,2.61-.84,3.91-1.25,.35-.11,.71-.29,.94-.58,.17-.22,.32-.57,.22-.86-.23-.68-1.11-.86-1.73-.67h0Z"></path><path class="cls-4" d="M395.23,317.1c-1.16,1.3-2.31,2.6-3.47,3.89-.13,.14-.18,.34-.03,.49,.17,.16,.55,.18,.76,.17,.38-.02,.78-.09,1.13-.24,.29-.12,.58-.26,.79-.5,1.16-1.3,2.31-2.6,3.47-3.89,.13-.14,.18-.34,.03-.49-.17-.16-.55-.18-.76-.17-.38,.02-.78,.09-1.13,.24-.29,.12-.58,.26-.79,.5h0Z"></path><path class="cls-4" d="M385.04,305.37l-4.33,.9c-.32,.07-.73,.28-.96,.52-.16,.16-.35,.45-.27,.7,.23,.65,1.16,.54,1.67,.44,1.44-.3,2.88-.6,4.33-.9,.32-.07,.73-.28,.96-.52,.16-.16,.35-.45,.27-.7-.23-.65-1.16-.54-1.67-.44h0Z"></path><path class="cls-4" d="M381.45,291.23c-1.73-.14-3.47-.28-5.2-.42-.38-.03-.79,.04-1.14,.2-.27,.13-.63,.38-.75,.67-.27,.64,.24,1.11,.87,1.16,1.73,.14,3.47,.28,5.2,.42,.38,.03,.79-.04,1.14-.2,.27-.13,.63-.38,.75-.67,.27-.64-.24-1.11-.87-1.16h0Z"></path><path class="cls-4" d="M387.74,278c-.96-1.85-1.48-3.89-1.52-5.98,0-.56-2.91-.1-2.9,.78,.04,2.08,.56,4.13,1.52,5.98,.24,.46,1.21,.22,1.58,.11,.34-.1,.7-.21,.99-.42,.11-.08,.42-.29,.33-.47h0Z"></path><path class="cls-4" d="M478.96,307.63c.18-.43,.41-.82,.67-1.2,.13-.19-.18,.22-.03,.04,.03-.04,.07-.08,.1-.12,.07-.09,.15-.18,.23-.26,.16-.17,.32-.33,.5-.48,.16-.14-.21,.17-.09,.07,.04-.03,.08-.07,.12-.1,.1-.08,.2-.15,.31-.22,.09-.06,.17-.12,.26-.17,.05-.03,.11-.06,.16-.1l-.21,.12s.07-.04,.11-.06c.2-.1,.4-.19,.6-.27,.24-.09-.13,.06-.17,.06,.05,0,.13-.04,.18-.06,.12-.04,.24-.07,.36-.1,.33-.08,.72-.28,.96-.53,.16-.17,.35-.47,.26-.72-.23-.65-1.15-.6-1.68-.48-2.3,.55-4.45,2.16-5.38,4.37-.1,.24-.15,.48,.03,.71s.54,.32,.8,.34c.38,.02,.79-.04,1.14-.21,.28-.14,.63-.33,.76-.63h0Z"></path><path class="cls-4" d="M481.29,318.14c2.03-.41,4.05-.81,6.08-1.22,.59-.12,1.39-.78,1.16-1.46-.25-.74-1.09-.81-1.74-.68l-6.08,1.22c-.59,.12-1.39,.78-1.16,1.46,.25,.74,1.09,.81,1.74,.68h0Z"></path><path class="cls-4" d="M476.63,326.64c2.04,1.42,4.07,2.85,6.11,4.27,.52,.37,1.35,.2,1.9-.03,.22-.09,1.32-.69,.8-1.05-2.04-1.42-4.07-2.85-6.11-4.27-.52-.37-1.35-.2-1.9,.03-.22,.09-1.32,.69-.8,1.05h0Z"></path><path class="cls-4" d="M470.54,337.18c1,1.31,2,2.61,3.01,3.92,.43,.56,1.41,.48,1.96,.19,.49-.25,1.14-.87,.7-1.45-1-1.31-2-2.61-3.01-3.92-.43-.56-1.41-.48-1.96-.19-.49,.25-1.14,.87-.7,1.45h0Z"></path><path class="cls-4" d="M463.05,341.69c1.27,2.61,2.54,5.23,3.81,7.84,.28,.59,1.12,.56,1.66,.4,.35-.1,1.52-.6,1.24-1.18-1.27-2.61-2.54-5.23-3.81-7.84-.28-.59-1.12-.56-1.66-.4-.35,.1-1.52,.6-1.24,1.18h0Z"></path><g class="cls-3"><path class="cls-1" d="M448.07,275.05c-1.13-2.19-2.37-4.41-4.27-5.99s-4.62-2.4-6.89-1.44c-2.07,.87-3.35,3-4.04,5.13-2.39,7.3,.42,15.13,2.31,22.58,5.57,22.02,2.92,45.15,1.71,67.84-.13,2.44-.24,4.95,.51,7.28,.75,2.33,2.53,4.49,4.93,4.97,2.94,.6,5.89-1.51,7.26-4.18,1.36-2.67,1.5-5.78,1.59-8.78,.87-28.33,.14-56.7-2.18-84.94"></path><g><path class="cls-1" d="M446.57,277.99c0-.34-.4-.19-.48-.23,.14,.56,.58,.21,.48,.23Z"></path><polygon class="cls-1" points="447.96 283.5 447.78 283.41 448.26 284.2 447.96 283.5"></polygon><path class="cls-1" d="M448.32,288.72c.68-.54-.25-1.89-.06-2.83l.15-.17-.6-.38c.17,1.12,.66,2.57,.51,3.38Z"></path><path class="cls-1" d="M446.96,291.61c.27-.19,.28,.59,.04-.65-.03,.06-.04,.08-.06,.12,.01,.11,.02,.27,.02,.53Z"></path><path class="cls-1" d="M446.94,291.08c-.06-.55-.21,.37,0,0h0Z"></path><path class="cls-1" d="M447.27,293.61l-.29-.71c-.15,.16-.15,.81-.28,.58,.18,.73,.33,.57,.58,.13Z"></path><path class="cls-1" d="M447.83,294.26l-.13-.37c-.06,.07-.08,.17,.13,.37Z"></path><path class="cls-1" d="M447.43,293.11l.27,.78c.11-.11,.34-.14-.1-.36,.22,.05,0-.09-.17-.42Z"></path><path class="cls-1" d="M447.51,292.65c.13-.42,.19-.95,.49-.24-.19-1.38-.68-1.14-.49,.24Z"></path><path class="cls-1" d="M449.08,288.94l.17-.56-.27-.45c.14,.23-.12,1.06,.1,1.01Z"></path><path class="cls-1" d="M447.16,298.14c.15,.04,.39-.27,.58-.33l-.2-.53c-.09,.28-.15,.81-.38,.86Z"></path><path class="cls-1" d="M447.74,297.81l.31,.79c-.01-.72-.14-.84-.31-.79Z"></path><polygon class="cls-1" points="448.63 294.34 448 293.06 448.65 294.6 448.63 294.34"></polygon><polygon class="cls-1" points="447.3 301.2 446.92 300.76 447.5 301.54 447.3 301.2"></polygon><path class="cls-1" d="M447.46,303.22c-.31-.32-.47,.48-.67,.14,.08,.55,.35,1.01,.6,1.42-.14-.44-.14-.92,.07-1.56Z"></path><path class="cls-1" d="M447.75,305.47c-.08-.22-.21-.45-.36-.7,.08,.24,.18,.47,.36,.7Z"></path><path class="cls-1" d="M448.04,299.96c-.09,.07-.32,.2-.4,.65l.41-.34c0-.1,0-.21,0-.32Z"></path><path class="cls-1" d="M448.06,300.27h-.01c0,.35,0,.59,.01,.69,0-.09,0-.3,0-.69Z"></path><path class="cls-1" d="M448.04,299.88s0,.05,0,.08c.04-.03,.05-.05,0-.08Z"></path><path class="cls-1" d="M448.36,296.47c.27,.46,.58,1.43,.89,.45-.31-.32-.49,.23-.89-.45Z"></path><path class="cls-1" d="M448.55,299.46l.05-.86c-.11,.02-.27,.19-.4-.04l.35,.9Z"></path><polygon class="cls-1" points="448.71 299.87 448.55 299.46 448.53 299.78 448.71 299.87"></polygon><path class="cls-1" d="M448.08,304c.2,.36,.24,.76,.29,1.21,.06-.49,.09-1,.06-1.47-.14-.06-.39-.26-.35,.26Z"></path><path class="cls-1" d="M448.11,302.18s.02,.06,.03,.08c.03-.05,.04-.09-.03-.08Z"></path><polygon class="cls-1" points="448.56 309.69 448.63 309.61 448.56 309.6 448.56 309.69"></polygon><path class="cls-1" d="M448.51,303.65c.06-.37-.05-.58-.19-.79,.06,.27,.1,.56,.12,.87,.06,.03,.1,.03,.08-.09Z"></path><path class="cls-1" d="M448,306.71c.08-.19,.15-.41,.21-.64-.13,.19-.32,.58-.21,.64Z"></path><path class="cls-1" d="M448.03,302.39s-.02-.03-.02-.05c-.09,.12-.04,.11,.02,.05Z"></path><path class="cls-1" d="M448.03,302.39c.07,.19,.18,.33,.28,.47-.04-.22-.1-.43-.17-.6-.03,.05-.07,.09-.11,.13Z"></path><path class="cls-1" d="M451.35,310.94c-.4-.05-.8-1-.41-1.85-.33-.81-1.61-.22-2.31,.52,.17,.02,.33,.01,.6,.85,.21-.3,.43-1.89,.82-1.19,.25,1.11-.11,.92-.3,1.47,.48-.48,.77,1.39,1.49,1.12l-.29-.97c.11-.02,.31,.33,.4,.05Z"></path><path class="cls-1" d="M448.61,308.01l-.06-.34c-.05,.4-.2,.69-.49,1.22,.22,.57,.37,.68,.5,.72l-.02-1.71,.06,.12Z"></path><path class="cls-1" d="M448.47,306.11c.44,.25,.66,1.08,1.11,.55-.07-1.02-.39-.7-.6-1.3,.18,1.64-.26-.46-.45,.74-.09-.32-.12-.61-.15-.88-.04,.3-.09,.59-.16,.86,0-.01,.02-.03,.03-.04h0s0,0,0,0c.05-.07,.08-.1,.05-.02,0,0,0,.03,.01,.03,.06,0,.11,.04,.17,.07-.07,.48-.11,.08-.17-.07-.02,0-.04-.02-.06-.02h0s.31,1.64,.31,1.64c.04-.35,.01-.78-.07-1.55Z"></path><path class="cls-1" d="M450.22,297.75c-.04,.05-.07,.05-.1,.06,.06,.1,.1,.14,.1-.06Z"></path><path class="cls-1" d="M450,298.44c-.07-.12-.24-.21-.22-.6,.11-.34,.21,0,.35-.04-.13-.23-.36-.8-.52-.06l.07,.11c-.11,.67-.6,1.55-.67,1.44,.38-.21,.65-.4,1-.86Z"></path><path class="cls-1" d="M449.36,302.32l.28,1.36,.34-.72-.22,.05c.05-.78-.22-.6-.4-.69Z"></path><polygon class="cls-1" points="448.35 309.85 447.89 309.69 448.56 310.45 448.35 309.85"></polygon><polygon class="cls-1" points="448.47 311.63 448.07 311.58 448.33 312.04 448.47 311.63"></polygon><path class="cls-1" d="M435.53,345.94l-.09-.41c.02,.19,.06,.32,.09,.41Z"></path><path class="cls-1" d="M435.33,348.84l.19,.08c-.1-.14-.17-.2-.19-.08Z"></path><path class="cls-1" d="M448.85,355.3c-.38,.58-.97,1.22-.52,1.16l.44-.17c-.07-.41-.01-.72,.08-.99Z"></path><path class="cls-1" d="M438.33,372.66c0,.07,0,.14,0,.22,.2,.04,.39,.06,.57,.08-.18-.07-.36-.18-.56-.29Z"></path><path class="cls-1" d="M436.57,373.22c-.08-.32-.15-.64-.19-.95,0,.23,.05,.54,.19,.95Z"></path><path class="cls-1" d="M435.71,330.09l-.43-.47c-.01,.73,.22,.41,.43,.47Z"></path><path class="cls-1" d="M449.08,329.83c-.16,.51-.23,.91-.25,1.26,.25-.61,.61-1.11,.25-1.26Z"></path><path class="cls-1" d="M440.06,347.35c-.06-.25-.15-.36-.24-.36,.06,.26,.13,.41,.24,.36Z"></path><path class="cls-1" d="M448.85,332.56c.04-.09,.06-.18,.1-.27-.08-.37-.14-.74-.11-1.19-.18,.45-.29,.97,.01,1.46Z"></path><path class="cls-1" d="M430.44,272.24s.06-.09,.09-.13c-.05-.03-.07,.03-.09,.13Z"></path><path class="cls-1" d="M444.03,272.04c-.11-.1-.26-.28-.4-.44,.05,.1,.16,.23,.4,.44Z"></path><path class="cls-1" d="M448.51,318.78c-.04-.38-.05-.06,0,0h0Z"></path><path class="cls-1" d="M450.17,316.9c.05,.08,.11,.14,.22,.14-.11-.03-.17-.08-.22-.14Z"></path><path class="cls-1" d="M451.58,336.3s0,.02,0,.03c.08-.11,.07-.09,0-.03Z"></path><path class="cls-1" d="M448.69,318.21c-.05,.14-.09,.31-.11,.49,.03-.08,.07-.23,.11-.49Z"></path><path class="cls-1" d="M448.49,318.29c.01-.13,.02-.23,.03-.33-.07-.05-.12,0-.03,.33Z"></path><path class="cls-1" d="M448.55,319.31c-.01-.22,0-.42,.03-.61-.03,.07-.05,.11-.07,.09,0,.11,.02,.27,.04,.52Z"></path><path class="cls-1" d="M435.54,303.58s.01-.06,.03-.09c-.25-.34-.19-.18-.03,.09Z"></path><path class="cls-1" d="M453.04,365.35s-.01-.03-.02-.05c0,.02-.01,.04-.02,.06h.04Z"></path><path class="cls-1" d="M453.22,366.84c-.46-.7-.36-1.02-.21-1.48l-1.29,.36c.51,.35,1.01,.72,1.5,1.12Z"></path><path class="cls-1" d="M435.77,338.98l-.43,.93c-.59-1.17-.33-1.99-.92-1.12,1.35,.2-.03,3.68,1.31,3.89l-.32,.61c.02-.18-.06-.21-.03-.39-.72,1.18,.93,.96,.65,2.52-.13,.54-.35,.91-.49,.53l.26,1.24c-.05,.35-.28,.25-.23-.1v1.87s-.04-.02-.04-.02c.2,.28,.49,.9,.61,1.2-.22,.46-.13-.25-.31-.14l.26,1.05c-.38,.4-.66-.48-.57-1.19-1.41,.88,.29,.88-.63,2.91l-.11-.98c-.81,.58-.58,1.36-1.13,2.43,.27-.25,1.35-2.13,1.61-.99-.12,.31-.2,.72,.04,1.34-.48-.02-.4,.57-.42,1.32l-.64-.09c.14,.81,.46,.77,.72,1.26-.12,.89-.62,1.04-1.05,1.23-.19,1.42,.85-.94,.87,.76-.31,1.17-.1,2.03,.2,3.47-.27,.82-.38-.17-.58,.12l.47,.77c-.02,.18-.18,.11-.25,.08,.17,.65,.63,.08,.77,1.09,.35,.15,.07,.65-.18,1.3-.25,.65-.45,1.48,.01,2.11-.15,.35-.41-.12-.64,0,.35,.92,.53,1.3,.72,1.63,.19,.33,.39,.63,.96,1.25,0,.46,.04,.93,.11,1.4,.03-1.11,1.04-.13,1.96,.39,.04-.37,.07-.7,.09-.89,.33,.37,.69,.7,1.07,.98,.02,.2-.23,.24-.59,.21,.1,.05,.2,.09,.29,.12,.17,.54-.28,.61-.83,.51-.03-.24-.04-.47-.03-.7-.54-.09-1.11-.22-1.39,.04,.13,.06,.29,.22,.45,.4-.15-.03-.27-.05-.3,.03-.02,.09,.2,.17,.5,.31-.11,.25-.21,.5-.31,.76l.28-.1c.4,.72,.91,1.42,1.57,2.05,1,.24,2,.19,2.97,0,.98-.2,1.91-.56,2.96-1.03-.41,.66,.11,.86,.27,1.46-.46-.21-.94-.01-1.58,.15-.62,.19-1.44,.33-2.18,.06,.77,.26,.57,.48,.32,.56,1.02,0,1.98-.23,2.81-.6,.04,.51,.66,.27,1.4,.2-.43-.38,0-.69,.55-1.05,.55-.37,1.23-.84,1.51-1.27,.25,.2,.33,.68-.81,1.3,.81-.05,1.03-.6,1.16-1.11,.13-.53,.19-1.01,.85-1.28-.18,.23-.33,.3-.29,.5,.14-.34,.5-.79,.81-1.12,.32-.32,.59-.54,.61-.29l-.16,.26c.64-.8,1.28-2.17,1.5-3.39,.24-1.22,.13-2.23-.27-2.42,.11,0,.98,.39,1.13,.53-.76-1.25-1.62-2.34-2.51-3.37,.71,.32,2.52-.64,2.83,.84,.13-.41,.29-.93,.07-1.81-.11,.28-1.09,.65-1.13,.27,.85-1,.46-.71,1.19-1.95-.17,.41-1.3-.08-1.25-.73,.17,.11,1.13-.02,1.24,.22l-1.08-1.64c.19,.41,.95,.1,1.28-.26-.22,.16,.06-1.39-.04-1.83l-.28,.68c.22-1.82-1.54-1.84-1.44-3.64,.23,.22,1.42,.57,1.58-.35-.57-.43-2.72-1.92-3.15-3.51l.33-.3-.36-1.23c.86,.77,2.66,2.94,3.34,4.12,.27-.68,.39-.18,.38-1.2,.32-.36,.46,.56,.47,.87l.24-2.38c-.67,.1-.65-1.83-1.21-1.75l.66,2.59c-.67,.09-1.89-1.52-1.75-3.2,.27-.42,1.19,.33,1.42,.3-.23-.22-.42-1.6-.25-1.76l.35,.72c.27-.94-.87-1.54-.23-2.66,.05-.39,.87-1.16,.48-1.23-.77,.63-3.14,.74-3.72,.31,.05-.13,.75-2.03,1.13-2.47,.61-.64,1.43,.96,1.95,.42-.18-.02-.41-.38-.48-.53,.16-.41,.57,.17,.49-.72-.68-.15,.06-1.8-.58-.42-.2-.87,.14-.92,.11-1.94-.44,.32-1.5-.91-1.7-1.78,.17,.05,.4-.15,.5-.24,.05-1.78,.35-2.73,.34-4.39,.16-.15,.36-.96,.65-.62-.12-.24-.35-.45-.38-.96,.58-1,.11,1.14,.8,.38-.39-.06-.57-1.32-.82-2.04-.61,.23-.09,1.68,.16,2.41-.84,.01-1.74-1.25-2.16-2.97-.23-1.37,.54-.6,.41-.84,.11-2.58-1.51-2.17-.95-4.32,.52-.86,1.07-.06,1.45-.26,.23,1.12-.3,1.73-.26,2.48l.23-.94c.19,.35,.34,1.1,.19,1.51,.47-.72,0-4.36,.4-6.37-.19-.35-.39-.95-.6-.66l.09,.63c-.42,.59-.63-1.17-.81-.37-.33-.84-.84-1.77-.63-2.96l.61-.24c-.18,.03-.34,.79-.15,1.12-.29-.49,.78-1.85-.04-2.37l-.4,.85c-.33-.84-1.02-1.86-.87-2.92-.59,.5,.08,.24-.6,1.01,.86-.68,.06,2.69,.95,1.62-.8,.79-.31,1.34-.98,2.36,.2-.04,.38-.37,.3,.52,.06,.04,.14,.13,.18,.19,0,.03,0,.04-.01,.06l.02-.05s.04,.04,0-.02c.08-.21,.18-.39,.29-.46,.48,.42,.5,1.83,.76,2.3-.08,.53-.24-.21-.45,.08l.38,.7c-.45,.08-.72,1.41-1.01,.18v1.11c-.23,.66-.31,1.56-.11,2.11-.09,.53,.53,1.31,.16,.86l.31,1.74-.11,.02c-.03,1.72,.81,3.53,0,5.5,.12,.58,.26,1.17,.14,2.14l-.39,.19c.14,.74-.38,2.23,.03,2.55-1.05,.8-.22,3.6-.41,4.91l.51,.05c-.03,.9,.1,1.76,.3,2.88l.45-.07c.37,.97-.34,2.47-.31,4-.17-.11-.12-.49-.01-.76-1.04,1.8,.69,3.85-.09,5.49,.15,.41,.09,.71-.03,1,0-.04,0-.07-.02-.1,0,.04,0,.1,0,.17-.08,.18-.17,.36-.25,.57,.11-.17,.21-.33,.25-.48,0,.32,.05,.8,.15,1.27l-.49,.19s0,.07,.01,.11c-.19,.46,.22,.38,.59,.14,.07,.24,.17,.46,.28,.63-.79,.36,.23,1.24-.61,1.74,.4,.33,.24,2.38,1.08,2.65-.11,.01-.17,.15-.17-.1-.11,.52-.22,1.05,0,1.52l-.62,.2,.77,1.16c-.41,.66-.65,.91-1.08,.22,.6,1.64,.18,1.29,.7,2.72l-.38-.13c-.06,.46,.3,1.32-.1,1.51-.5,.38-.88,1.62-1.64,2.65-.75,1.08-2.07,2.04-3.14,1.99,.38,.48,.1,.46-.24,.37-.34-.08-.65-.25-.67,.19-.14-.26-.36-.42-.1-.66-.42,.15-.73-.03-.97-.15-.25-.13-.46-.22-.95-.07,.06-.29,.38-.23,.39-.42-.08,.02-.37,.05-.35-.15,.03-.19,.24-.1,.41-.14-.67-.42-1.38-.03-2.04,.45-.14-.74-.32-.93-1.02-1.1,.11-.35,.18-.77,.64-.15-.1-.19-.33-.82-.51-1.4-.19-.58-.37-1.17-.69-1.13,.13-.18-.07-.66-.15-.78-.08-1.1-.02-1.19-.09-2.3l-.1,.31c-.78-.44-.17-.94-.23-1.87l.08,.03c.66-2.12-.22-.94,.53-3.04l-.49,.09c-1.02-.26,.71-1.86,.39-3.12l-.3,.43c-.31-.7,1.52-1.81,1.69-2.48,.1-.14,.13,.24,.18,.45,.72-1.74-.61-.27-.68-1.6,.35-.22,.84,.37,.96-.52,.3-.43-.94-2.66-.21-3.84-.28,.25-.55,.5-.71-.13-.04-.95,1.14-2.5,.37-3.41,.08-.12,.15-.16,.21-.16-.17-.74-.22-2.38-.64-2.84,1.7-.58-.57-4.55,.95-4.46l.02-2.24,.15,.06c.15-1.43-.2-1.95-.55-2.46,.12-.33,.25-.08,.33-.05,.39-2.08,.31-2.3-.41-4.06l.5-.17c-.27-.48,.82-3.02,.23-5.09,.06,.02,.15,.06,.22,.23-.59-2.3,1.29-5.6-.57-6.39l-.52-1.51c-.05,1.98-.8-.26-1.06,.57-.14-.76,.45-2.02,.59-1.08l-.08,.15c.97,.3,.21-2.47,.83-2.46-.3-3.88-.23-7.73-.75-11.39l-.66,.53c-.05-.42-.08-.85-.16-1.27,.1-.36,.49-.54,.61,.37,.33-.54-.62-1.45-.78-1.45-.03-1.81,.97,.54,.88,0l-.19-.73-.05,.18c-.4-.54-.73-.54-.89-1.62,.02-.71,.38-.44,.35-.72,.05,0,.06-.11-.07-.42l-.3-1.6-.42,.76c-.44-.64-.31-1.48-.78-.61,.36-.64,.14-2.14-.23-3.53-.36-1.39-.8-2.7-.74-3.06-.66-.84-.9-1.78-1.13-2.94-.05,.31-.64,.64-.8-.38,1.39,.06,.14-1.97,.96-2.94-.24,.41-.42-.28-.6-.91-.17-.63-.37-1.22-.73-.6-.01-.85,.48-.12,.72-.78-.75-1.91,0-4.27,.22-6.49-.17-.07-.51,.27-.67-.27,.38-.35,.71-.7,1.12-.99,.04-.43-.87-.7-.04-1.28-.18,.06-.44,.15-.4-.15,1.14-1.95,2.27-3.69,4.04-4.05,.88-.19,1.94-.03,2.84,.47,.91,.5,1.59,1.31,1.99,2.35-.14-.64,.15-.4,.45-.08-.13-.27,.33-.28,.47-.48,.26,.62,.45,1.27,.62,1.92,.76-.08,1.13,1.79,1.77,1.69l-.41-.52c1.09,.41,.84-1.88,1.7-2.29-.64-.23-.73-.97-1.02-1.78-.27-.8-.77-1.7-1.88-1.87-.18-.42,.47,0,.45-.31-.64-.01-1.11-.33-1.96-1.05l.16-.02c-1.38-.73-2.44-1.13-3.66-1.4-.61-.12-1.27-.21-2.03-.17-.76,.04-1.66,.22-2.59,.68,.17,.09,.33,.18,.49,.27-.76,.35-.98,.35-1.37,.5-.14,.58,.3,.2,.8-.1,.51-.31,1.06-.52,.86,.02-.69-.23-1.97,.63-2.79,1.67-.85,1.02-1.38,2.1-2.02,2.19-.45,1.06,.62-.09,.19,.95l-.38,.17,.27,.39c-.27,.65-.71,.9-.96,.86,.08-.16,.07-.5,.1-.69-.29,.4-.48,1.06-.53,1.65-.06,.59-.07,1.1-.15,1.25l.38-1c-.39,2.95-.66,6.56,.35,9.15l.19-.23c.35,.98,.36,1.39,.35,1.82-.01,.44-.05,.91,.28,1.97l-.07-.07c.31,.39,.56,.93,.67,1.52-.39-.48-.25,1.13-.7,.5,.96,1.99,.6,.96,1.76,2.11l-.28,.41c.45,.38,.63,.37,1,1.38-.54-.77-.37,.81-1.03-.04-.2,2.38,1.65,3.01,.71,4.29,1.23,.75,.12-2.01,.46-1.5,.21-.55,.95,.64,1,1.35,.14,.71-1,1.48-.6,3.2-.03-.18-.11-.17-.14-.34-.12,.7,.59,1.21,.33,2.09,.69,.34,.16,1.05,.96,1.04l-.48-1.58c.36,.87,1.47,1.57,1.26,3.17-.18-.09-.44-.52-.62-.8-.14,.48,.28,.83,.12,1.33-.4,0-.51-.49-.63-1.08-.13-.59-.26-1.29-.64-1.72-.24,.53,.91,1.74-.03,1.4,1.22,.52,.13,1.75,1.13,2.81h-.48c.1,.17,.38,.53,.42,.88l-.7-.54c.67,.89-.19,1.91,.19,2.8-.23-1.94,.52-.5,.77-1.37,.89,2.34-1.08,1.53-.57,4.18-.11-.35,.14-1.39,.42-.84-.03,.52-.15,1.21-.38,1.55,.23,1.78,.47-.32,.81,.42-.53,.66,.3,.86,.55,1.64l-.48,.04c-.16,2.06,1.06,.48,.78,2.35l-.7-.74,.22,.95-.56-.17c.46,1.02,.37,1.36,.26,2.39,.33-.25,.89,.1,.93,1.01-.27,.63-.47-.33-.37,.96-.31-.28-.69-.59-.26-1.17-.16-.05-.32-.28-.47-.33-.3,.68-.04,1.68-.02,2.14,.01-.18,.04-.39,.1-.51l.71,1.86c-.17,.3-.33,.07-.47-.16,.06,.38,.29,.64,.34,1.19-.39-.14-.8-.1-1-.88,.16,.59,.31,1.18,.45,1.77-.17,.12-.47,.92-.61,.68-.24,.98,.77,2.42,.43,3.73,.07,.07,.14,.21,.2,.49-.12,1.23-.6,2.31-.12,3.79l-.73,.81c.12,1.15,.92-1.1,1.12,.82,.18,1.36-.62,.48-.83,.95,.33,.68,.99,1.89,.37,3.11-.11-.42,0-.74-.03-1.12Zm-.49,14.22c-.08-.28-.36-.85-.06-1.04,.53,.35,.25,.58,.06,1.04Zm3.86,21.76c-.29-.03-.52-.35-.65-.77,.23,.19,.44,.43,.65,.77Zm9.87-52.05s.01,.02,.02,.03c-.17,.62-.1,.4-.02-.03Zm.18-1.28c-.07-.13-.14-.12-.2-.06,.12,.09,.14,.37,.11,.7,.12-.09,.21-.26,.09-.64Zm-11.2-22.63l-.07,.27c-.25-.53-.1-.4,.07-.27Z"></path><path class="cls-1" d="M436.78,373.17c.02-.12,.09-.19,.15-.25-.14-.07-.22-.03-.15,.25Z"></path><path class="cls-1" d="M435.79,330.18v-.04s-.05-.04-.08-.04l.08,.09Z"></path><path class="cls-1" d="M453.48,341.42c-.07,.26-.16,.41-.25,.51,.12,.01,.22-.1,.25-.51Z"></path><path class="cls-1" d="M448.18,314.89l.15,.81c-.04-.39,.07-.54,.14-.74-.11,.02-.27,.18-.29-.07Z"></path><path class="cls-1" d="M450.89,307.68c-.06-.12-.02-.25-.08-.37l-.22,.04c.04,.51,.23,.86,.31,.33Z"></path><path class="cls-1" d="M449.76,314.08c.4-.08,.25-.59,.15-1.16,0,.03,0,.07,0,.1-.57-.15-.36,.45-.15,1.06Z"></path><path class="cls-1" d="M449.89,312.79c-.03-.18-.04-.36-.03-.53-.23-.06-.04,.22,.03,.53Z"></path><path class="cls-1" d="M448.88,320.01c.1-.27-.52-.16-.36-.31-.52-.29,.67,1.79,.36,.31Z"></path><polygon class="cls-1" points="451.08 313.57 450.58 313.79 451 314.1 451.08 313.57"></polygon><path class="cls-1" d="M450.85,318.11l.11-.92c-.08,.02-.14-.1-.18-.24,0,.57-.08,1.19,.07,1.16Z"></path><path class="cls-1" d="M450.78,316.95c0-.29-.02-.57-.1-.74,0,.16,.04,.5,.1,.74Z"></path><polygon class="cls-1" points="451.27 314.82 451.17 315.09 451.16 315.74 451.27 314.82"></polygon><path class="cls-1" d="M450.96,327.98l.16,1c.17,.1,.27-.17,.2-.55-.12-.24-.2-.61-.36-.45Z"></path><path class="cls-1" d="M452.29,324.92c-.1,.27-.21,.29-.37,.45l.62,.02-.25-.47Z"></path><path class="cls-1" d="M452.48,327.85c.17,.1,.52,1.45,.46,.18-.17-.1-.33-1.1-.46-.18Z"></path><polygon class="cls-1" points="451.77 342.96 451.77 342.71 450.75 342.74 451.77 342.96"></polygon><path class="cls-1" d="M454.03,356.33c.27-1.19-.62-.3-.3-1.37-.23-.28-.27,.87-.47,.58,.24,.72,.09,1.1,.76,.78Z"></path><path class="cls-1" d="M453.26,355.54c-.04-.12-.08-.24-.15-.37,.06,.21,.11,.31,.15,.37Z"></path><polygon class="cls-1" points="444.95 274.42 445.11 275.14 445.18 274.57 444.95 274.42"></polygon><path class="cls-1" d="M446.28,275.27l-.49,.46,.73,.13c-.1-.14-.3-.4-.23-.58Z"></path><path class="cls-1" d="M433.84,355.23l.15,.07c.18-.11,.2-.29,.25-.64l-.4,.57Z"></path><polygon class="cls-1" points="434.95 344.94 434.93 345.12 435.53 344.82 434.95 344.94"></polygon><path class="cls-1" d="M434.62,336.29c-.04,.35,.08,.77,.04,1.12-.08-.77,.69-1.18-.04-1.12Z"></path></g></g><path class="cls-2" d="M399.84,392c4.96,.17,9.96,.33,14.89-.38,4.81-.7,9.27-2.83,14.09-3.36,9.13-1,18.46,1.48,27.23-2.14,.59-.24,1.05-.99,.66-1.58-.43-.64-1.39-.51-1.98-.26-8.38,3.46-17.82,.63-26.55,1.83-4.68,.64-9,2.69-13.69,3.32s-9.62,.48-14.43,.32c-1.71-.06-2.17,2.19-.22,2.25h0Z"></path><path class="cls-2" d="M400.05,383.29c-4.84,.72-9.68,1.43-14.51,2.15-.5,.07-1.54,.34-1.65,.96s.87,.63,1.24,.57c4.84-.72,9.68-1.43,14.51-2.15,.5-.07,1.54-.34,1.65-.96s-.87-.63-1.24-.57h0Z"></path><path class="cls-2" d="M383.62,393.21c-3.79-.07-7.58,.35-11.27,1.2-.59,.14-1.36,.72-1.17,1.41s1.14,.77,1.72,.63c3.44-.79,6.96-1.13,10.48-1.07,.64,.01,1.52-.5,1.59-1.19,.08-.77-.76-.98-1.35-.99h0Z"></path><path class="cls-2" d="M460.68,372.89c5.32-.23,10.61,.74,15.55,2.72,1.1,.44,3.38-1.14,1.71-1.8-5.38-2.16-11.16-3.08-16.95-2.84-.58,.02-1.53,.43-1.62,1.1-.09,.72,.8,.84,1.3,.82h0Z"></path><path class="cls-2" d="M460.69,379.65c2.73-.3,5.46-.59,8.19-.89,.6-.06,1.52-.41,1.62-1.1s-.8-.88-1.31-.83c-2.73,.3-5.46,.59-8.19,.89-.6,.06-1.52,.41-1.62,1.1s.8,.88,1.31,.83h0Z"></path><path class="cls-2" d="M395.42,373.83c-3.47-2.12-8.23-1.44-11.29,1.09-.49,.4-.27,.96,.29,1.1,.7,.17,1.51-.1,2.05-.55,.04-.03,.15-.13,.05-.05,.07-.05,.14-.1,.21-.15,.14-.1,.29-.19,.44-.28,.08-.04,.15-.09,.23-.13-.23,.12,.04-.01,.08-.03,.16-.07,.32-.13,.48-.2,.21-.1-.23,.07,0,0,.08-.03,.17-.05,.25-.08,.17-.05,.34-.08,.51-.13,.22-.06-.23,.03,0,0,.09-.01,.17-.03,.26-.04,.2-.03,.39-.04,.59-.06-.24,.02,.21,0,.29,0,.18,0,.35,.01,.53,.03,.09,0,.17,.02,.26,.03-.13-.02,.01,0,.06,.01,.17,.03,.34,.06,.51,.1,.68,.16,1.27,.42,1.91,.8,.58,.35,1.53,.09,2.06-.25,.44-.29,.82-.84,.24-1.2h0Z"></path></g><g id="cactus-2"><g><path class="cls-4" d="M84.09,377.82c1.63-20.7,2.23-41.48,1.8-62.24-.2-9.63-.66-19.45-4.1-28.45-1.23-3.23-2.93-6.43-5.71-8.49-6.02-4.48-15.18-1.87-20.11,3.79-4.93,5.66-6.6,13.4-7.66,20.83-3.79,26.6-2.03,53.64-.27,80.46,5.05-.17,10.09-.34,15.14-.51,7.22-.24,15.32-.88,20.04-6.35"></path><path class="cls-4" d="M85.54,377.43c1.29-16.43,1.94-32.9,1.93-49.38,0-7.95,.03-15.96-.63-23.89-.59-7.21-1.79-15.06-5.47-21.41-1.52-2.63-3.62-4.85-6.46-6.03-2.57-1.07-5.47-1.17-8.19-.73-5.98,.98-11.1,4.47-14.32,9.57-3.65,5.79-4.83,12.74-5.73,19.41-1.08,7.99-1.68,16.04-1.92,24.1-.57,18.37,.64,36.72,1.85,55.04,.02,.29,.68,.24,.83,.24,7.14-.24,14.4-.12,21.5-.92,5.68-.64,11.69-2.22,15.62-6.65,.43-.49-.38-.56-.7-.54-.59,.02-1.52,.24-1.93,.71-3.58,4.04-8.85,5.05-14.01,5.44-6.39,.47-12.84,.5-19.24,.71l.83,.24c-1.04-15.71-2.07-31.44-1.98-47.19,.04-7.69,.35-15.37,1.05-23.03,.65-7.06,1.34-14.39,3.56-21.17,1.86-5.69,5.18-11.3,10.87-13.81,5.7-2.51,11.76-.5,15.07,4.71,3.66,5.76,4.96,13.14,5.67,19.81,.8,7.53,.79,15.15,.83,22.71,.1,17.63-.55,35.27-1.92,52.84-.04,.48,2.83,.14,2.9-.78h0Z"></path></g><g><path class="cls-4" d="M85.52,334.52c3.57-.24,6.35-3.28,7.93-6.5,1.57-3.22,2.36-6.8,4.19-9.88,1.83-3.08,5.2-5.69,8.73-5.07,3.56,.64,5.83,4.35,6.31,7.93,.93,7.03-3.2,13.67-7.57,19.25-2.31,2.95-4.77,5.83-7.84,7.97-3.07,2.14-6.84,3.48-10.55,3-.58-.07-1.2-.18-1.71,.1-.51,.28-.69,1.15-.16,1.41"></path><path class="cls-4" d="M85.29,335.22c6.06-.57,9.16-5.83,11.07-10.99,1.07-2.88,2.04-5.94,4.18-8.23,2.02-2.17,4.69-3.11,7.23-1.14,4.88,3.78,3.99,11.15,1.83,16.13-1.29,2.98-3.1,5.69-5.06,8.27-1.89,2.5-3.88,4.99-6.23,7.07-2.59,2.29-5.8,4.23-9.37,4.26-1.55,.01-3.01-.42-4.5,.24-.85,.38-2.06,1.59-.97,2.44,.73,.57,3.36-.56,2.71-1.08l-.19-.19c.09-.42-.09-.46-.55-.11,0,0,1.1,.12,1.18,.12,.66,.04,1.31,.04,1.97,0,1.63-.11,3.23-.47,4.77-1.01,3.03-1.07,5.71-2.88,8.03-5.08,2.36-2.23,4.42-4.79,6.34-7.4s3.68-5.35,4.92-8.34c2.1-5.07,2.73-12.22-1.91-16.18s-10.83-.92-13.83,3.22c-2.13,2.94-2.97,6.55-4.38,9.83-1.22,2.85-3.38,6.45-6.8,6.77-.4,.04-1.64,.36-1.67,.91-.03,.61,.81,.52,1.21,.48h0Z"></path></g><g><path class="cls-4" d="M49.69,311.61c-3.97-.33-6.99-3.76-8.72-7.35-1.73-3.59-2.63-7.57-4.76-10.93-2.13-3.36-6.1-6.09-9.94-5.04-4.07,1.11-6.04,5.81-6.36,10.02-.29,3.89,.33,7.85,1.8,11.47,4.34,10.65,15.33,17.09,26.28,20.59"></path><path class="cls-4" d="M50.62,310.96c-7.27-.78-9.04-9.79-11.46-15.2-1.34-2.99-3.26-5.75-6.23-7.29-2.69-1.39-5.85-1.37-8.57-.05-5.67,2.75-6.48,10.12-5.71,15.66,.91,6.56,4.44,12.35,9.32,16.72,5.36,4.8,12.05,7.97,18.85,10.16,.62,.2,1.48-.04,2.03-.34,.29-.16,.97-.66,.32-.87-10.97-3.54-22.51-10.13-26.49-21.64-1.84-5.33-2.56-13.06,1.45-17.66,.77-.89,1.75-1.67,2.97-1.73,1.62-.08,3.25,.73,4.52,1.66,2.69,1.96,4.16,4.89,5.35,7.92,2.24,5.71,4.6,13.19,11.78,13.96,.62,.07,1.57-.11,2.05-.55,.39-.36,.43-.69-.2-.75h0Z"></path></g><path class="cls-1" d="M70.91,281.17c3.57,3.75,5.11,8.79,5.79,13.82,.78,5.79,.69,11.72,.8,17.55,.26,13.36,.3,26.72,.14,40.08-.09,7.47-.26,14.94-.48,22.4,0,.33,2.87,0,2.9-.78,.41-13.44,.6-26.88,.58-40.33-.01-6.81-.08-13.61-.2-20.41-.11-5.91-.03-11.88-.65-17.76-.59-5.66-2.11-11.31-6.13-15.53-.47-.49-3.1,.58-2.74,.95h0Z"></path><path class="cls-1" d="M65.07,279.53c-2.71,12.46-2.75,25.37-3.19,38.06-.44,13-.8,26.01-1.05,39.02-.15,7.37-.26,14.75-.35,22.12-.02,1.38,2.9,.86,2.92-.29,.3-26,.71-52.06,2.06-78.03,.37-7.11,1.01-14.21,2.53-21.18,.28-1.27-2.67-.86-2.92,.29h0Z"></path><path class="cls-1" d="M56.77,284.8c-8,24.07-9.14,49.61-8.67,74.77,.13,7.17,.4,14.33,.66,21.49,.06,1.57,2.99,1.18,2.94-.19-.93-24.94-1.85-50.19,2.6-74.87,1.27-7.05,2.99-14.01,5.25-20.81,.54-1.62-2.35-1.68-2.79-.39h0Z"></path><path class="cls-1" d="M25.07,292.28c2.69,.04,3.62,4.04,4.22,6.05,.93,3.11,1.63,6.29,2.73,9.34,1.77,4.92,4.8,9.55,9.82,11.58,1.15,.47,3.38-1.19,1.7-1.87-5.53-2.23-8.05-8.25-9.6-13.57-.88-3.02-1.49-6.19-2.7-9.11-.92-2.22-2.51-4.38-5.13-4.42-.66,0-1.59,.18-1.89,.87-.27,.61,.24,1.13,.86,1.14h0Z"></path><path class="cls-1" d="M105.81,316.43c-5.96,2.17-5.08,9.42-6.51,14.37-.8,2.79-2.18,5.46-3.98,7.74-1.76,2.22-3.94,4.41-6.81,4.98-.55,.11-1.37,.67-1.2,1.33,.19,.71,1.16,.66,1.7,.55,5.59-1.11,9.84-6.58,12.03-11.53,1.22-2.76,1.76-5.61,2.15-8.59,.36-2.7,.96-6.18,3.88-7.24,.53-.19,1.09-.87,.7-1.42-.43-.61-1.41-.38-1.96-.18h0Z"></path><g><path class="cls-2" d="M61.99,278.47c2.46,.8,5.28,.37,7.38-1.14,1.13-.81,2.12-2.27,1.52-3.53-.56-1.17-2.13-1.42-3.41-1.2-2.17,.37-4.17,1.64-5.42,3.46,.96-1.4,1.51-3.09,1.57-4.79,.04-1.22-.21-2.5-1.02-3.41-.81-.9-2.3-1.26-3.28-.54-.92,.68-1.08,1.97-1.04,3.11,.06,1.79,.42,3.57,1.06,5.24-1.72-1.82-4.86-2.05-6.83-.5-.94,.73-1.61,2.07-1.03,3.11,.57,1.01,2.01,1.14,3.12,.78s2.06-1.09,3.18-1.41c-1.24,.94-2.4,2.09-2.88,3.57-.48,1.48-.11,3.32,1.2,4.16,1.45,.92,3.52,.25,4.53-1.14,1.02-1.38,1.15-3.24,.86-4.93"></path><path class="cls-2" d="M61.13,279.37c2.47,.75,5.17,.56,7.51-.51,1.85-.85,4.61-2.92,3.74-5.32-.79-2.18-3.73-2.16-5.59-1.74-2.5,.57-4.64,2.08-6.12,4.14l2.74,.22c1.99-3.02,2.98-9.71-2.13-10.19-2.06-.19-3.95,1.09-4.37,3.12-.47,2.24,.19,4.87,.97,6.96l2.78-1c-2.72-2.71-8.12-2.54-10.3,.82-1.08,1.67-.49,3.65,1.49,4.17,.96,.26,2.03,.18,2.97-.11,1.12-.35,2.07-1.06,3.18-1.41-.39-.49-.78-.97-1.17-1.46-1.65,1.28-3.38,2.97-3.59,5.17-.18,1.91,.78,3.76,2.68,4.34s4.2-.2,5.56-1.6c1.57-1.62,1.78-3.95,1.45-6.07-.19-1.2-3.1-.49-2.9,.78,.22,1.38,.21,2.98-.61,4.19-.51,.74-1.36,1.25-2.2,.71-.96-.61-1.2-1.97-1-3.01,.27-1.42,1.39-2.51,2.49-3.36,1.2-.93-.07-1.8-1.17-1.46-.69,.22-1.33,.49-1.97,.82-.46,.23-.99,.58-1.5,.67-1.17,.2-1.6-.99-1.09-1.9,1.05-1.9,3.75-1.35,5.04-.06,.46,.46,1.19,.41,1.76,.21,.42-.15,1.24-.63,1.02-1.21-.59-1.6-.99-3.29-1.05-4.99-.02-.6-.01-1.28,.2-1.85,.2-.53,.23-.63,.7-.43,1.35,.56,1.6,2.45,1.51,3.71-.11,1.54-.62,2.94-1.46,4.22-.4,.6,.35,1.02,.84,1.07,.73,.08,1.48-.26,1.9-.85,.83-1.16,2.04-2.07,3.41-2.48,.95-.28,2.47-.37,2.73,.89,.29,1.41-1.33,2.47-2.43,2.91-1.39,.54-2.87,.52-4.29,.09-.66-.2-1.58,.03-2.05,.55-.43,.48-.3,1.06,.34,1.25h0Z"></path></g><path class="cls-4" d="M88.98,368.89c-1.57,.3-3.14,.6-4.71,.9-.38,.07-.76,.18-1.1,.35-.17,.08-.51,.26-.59,.47-.18,.52,1,.37,1.17,.33,1.57-.3,3.14-.6,4.71-.9,.38-.07,.76-.18,1.1-.35,.17-.08,.51-.26,.59-.47,.18-.52-1-.37-1.17-.33h0Z"></path><path class="cls-4" d="M90.74,362.3c-1.73-1.01-3.86-1.19-5.77-.66-.34,.09-.71,.27-.96,.52-.16,.16-.35,.47-.26,.72,.22,.63,1.16,.61,1.68,.46,.09-.03,.19-.05,.29-.07,.05-.01,.1-.02,.14-.03-.26,.05-.33,.06-.21,.04,.18-.03,.36-.05,.55-.06,.11,0,.35,.02-.07,0,.1,0,.2,0,.29,0,.17,0,.34,.02,.51,.04,.05,0,.1,.01,.15,.02-.2-.03-.24-.04-.15-.02,.08,.02,.17,.03,.25,.05,.17,.04,.33,.09,.5,.14,.02,0,.28,.1,.28,.1-.16-.07-.18-.07-.07-.03l.07,.03c.18,.08,.35,.17,.52,.27,.59,.35,1.53,.16,2.06-.23,.22-.16,.5-.39,.53-.69,.02-.26-.09-.48-.32-.62h0Z"></path><path class="cls-4" d="M88.06,355.01c-1.58,0-3.16,0-4.73,0-.36,0-.81,.19-1.09,.4-.22,.17-.49,.49-.5,.8-.03,.77,.72,1,1.35,1,1.58,0,3.16,0,4.73,0,.36,0,.81-.19,1.09-.4,.22-.17,.49-.49,.5-.8,.03-.77-.72-1-1.35-1h0Z"></path><path class="cls-4" d="M90.92,317.71c-.29,.13-.59,.25-.89,.36-.13,.05-.26,.09-.39,.14,.32-.11-.11,.03-.14,.04-.28,.08-.57,.16-.86,.23-.07,.02-.13,.03-.2,.05,.17-.03,.17-.03-.01,0-.13,.03-.27,.05-.4,.07-.27,.05-.54,.08-.81,.12-.17,.02-.18,.02-.05,0-.07,0-.14,.01-.2,.02-.16,.01-.32,.02-.48,.03-.61,.03-1.05,.02-1.59-.01-.69-.05-1.49,.12-2.05,.55-.15,.11-.37,.3-.32,.52s.36,.28,.53,.29c3.03,.21,6.11-.3,8.91-1.5,.25-.11,1.26-.56,.82-.97-.41-.38-1.47-.1-1.89,.08h0Z"></path><path class="cls-4" d="M91.24,306.97c-.59,.05-1.19,.09-1.78,.1-.14,0-.27,0-.41,0,.27,0-.17,0-.18,0-.3,0-.59-.01-.89-.02-1.17-.05-2.33-.17-3.48-.36-.65-.11-1.59,.25-1.9,.86-.34,.66,.3,1.01,.85,1.1,2.47,.41,4.99,.49,7.48,.27,.6-.05,1.52-.42,1.61-1.11s-.8-.89-1.31-.84h0Z"></path><path class="cls-4" d="M89.38,296.32c-2.1,.32-4.19,.64-6.29,.96-.37,.06-.77,.18-1.1,.35-.17,.08-.51,.26-.59,.47-.19,.51,1,.35,1.17,.32,2.1-.32,4.19-.64,6.29-.96,.37-.06,.77-.18,1.1-.35,.17-.08,.51-.26,.59-.47,.19-.51-1-.35-1.17-.32h0Z"></path><path class="cls-4" d="M85.69,285.32c-1.76,.61-3.44,1.41-4.96,2.48-.21,.15-.49,.36-.54,.64-.04,.24,.09,.45,.31,.55,.6,.29,1.53,.12,2.06-.25,.31-.22,.63-.43,.95-.63,.17-.11,.35-.21,.53-.31,.09-.05,.18-.1,.27-.15,.04-.02,.09-.05,.13-.07-.2,.11-.25,.13-.16,.08,.34-.17,.68-.34,1.03-.49,.18-.08,.35-.15,.53-.22,.09-.04,.19-.07,.29-.11,.11-.04,.48-.17-.02,0,.34-.12,.69-.24,.96-.5,.15-.14,.36-.43,.28-.66-.21-.58-1.2-.54-1.66-.38h0Z"></path><path class="cls-4" d="M50.98,292.45l-3.14-.48c-.35-.05-.82,.06-1.14,.21-.27,.12-.63,.36-.76,.64-.11,.23-.15,.51,.04,.72,.21,.24,.5,.31,.81,.35,1.05,.16,2.1,.32,3.14,.48,.35,.05,.82-.06,1.14-.21,.27-.12,.63-.36,.76-.64,.11-.23,.15-.51-.04-.72-.21-.24-.5-.31-.81-.35h0Z"></path><path class="cls-4" d="M50.15,299.91c-1.63-.47-3.37-.6-5.05-.36-.38,.05-.77,.16-1.09,.39-.21,.15-.5,.43-.52,.71-.05,.68,.76,.9,1.31,.83,.35-.05,.7-.08,1.05-.1,.08,0,.16,0,.24,0-.42,.05-.12,0,0,0,.18,0,.35,.01,.53,.02,.16,.01,.32,.03,.49,.05,.09,.01,.19,.02,.28,.04,.07,.01,.22,.06,.28,.04l-.17-.03c.05,.01,.11,.02,.16,.03,.08,.02,.16,.03,.24,.05,.19,.04,.37,.09,.55,.14,.35,.1,.75,.08,1.09-.01,.32-.09,.73-.27,.95-.54,.17-.2,.35-.47,.26-.74s-.32-.44-.59-.52h0Z"></path><path class="cls-4" d="M46.11,337.46c-1.31-.27-2.63-.55-3.94-.82-.3-.06-.62-.03-.92,.02-.37,.06-.77,.18-1.1,.35-.2,.1-.51,.24-.59,.46-.07,.18,.08,.29,.24,.32,1.31,.27,2.63,.55,3.94,.82,.3,.06,.62,.03,.92-.02,.37-.06,.77-.18,1.1-.35,.2-.1,.51-.24,.59-.46,.07-.18-.08-.29-.24-.32h0Z"></path><path class="cls-4" d="M46.66,350.44c-.92,.26-1.84,.53-2.76,.79-.34,.1-.71,.27-.95,.54-.16,.18-.34,.5-.25,.77,.23,.66,1.14,.69,1.7,.53,.92-.26,1.84-.53,2.76-.79,.34-.1,.71-.27,.95-.54,.16-.18,.34-.5,.25-.77-.23-.66-1.14-.69-1.7-.53h0Z"></path><path class="cls-4" d="M46.23,362.94c-1.19,.38-2.38,.76-3.56,1.14-.35,.11-.71,.29-.94,.58-.17,.22-.32,.57-.22,.86,.23,.68,1.11,.86,1.73,.67,1.19-.38,2.38-.76,3.56-1.14,.35-.11,.71-.29,.94-.58,.17-.22,.32-.57,.22-.86-.23-.68-1.11-.86-1.73-.67h0Z"></path><path class="cls-4" d="M33.38,323.43c-1.05,1.18-2.11,2.36-3.16,3.55-.13,.14-.18,.34-.03,.49,.17,.16,.55,.18,.76,.17,.38-.02,.78-.09,1.13-.24,.29-.12,.58-.26,.79-.5,1.05-1.18,2.11-2.36,3.16-3.55,.13-.14,.18-.34,.03-.49-.17-.16-.55-.18-.76-.17-.38,.02-.78,.09-1.13,.24-.29,.12-.58,.26-.79,.5h0Z"></path><path class="cls-4" d="M24.2,312.67c-1.31,.27-2.63,.55-3.94,.82-.32,.07-.73,.28-.96,.52-.16,.16-.35,.45-.27,.7,.23,.65,1.16,.54,1.67,.44l3.94-.82c.32-.07,.73-.28,.96-.52,.16-.16,.35-.45,.27-.7-.23-.65-1.16-.54-1.67-.44h0Z"></path><path class="cls-4" d="M21,299.78c-1.58-.13-3.16-.26-4.73-.38-.38-.03-.79,.04-1.14,.2-.27,.13-.63,.38-.75,.67-.27,.64,.24,1.11,.87,1.16,1.58,.13,3.16,.26,4.73,.38,.38,.03,.79-.04,1.14-.2,.27-.13,.63-.38,.75-.67,.27-.64-.24-1.11-.87-1.16h0Z"></path><path class="cls-4" d="M26.81,287.79c-.88-1.68-1.35-3.55-1.38-5.44,0-.18-.43-.23-.52-.24-.34-.03-.74,.04-1.06,.13s-.7,.21-.99,.42c-.16,.12-.33,.24-.33,.47,.03,1.9,.51,3.76,1.38,5.44,.24,.46,1.21,.22,1.58,.11,.34-.1,.7-.21,.99-.42,.11-.08,.42-.29,.33-.47h0Z"></path><path class="cls-4" d="M109.88,314.81c.18-.42,.41-.82,.68-1.19l-.18,.24c.19-.24,.39-.47,.61-.68,.06-.05,.11-.1,.17-.15,.03-.02,.06-.05,.09-.07,0,0-.26,.21-.12,.1,.13-.1,.26-.2,.39-.29,.06-.04,.13-.08,.19-.12,.06-.04,.31-.18,.06-.04s0,0,.07-.03c.07-.03,.14-.07,.21-.1s.14-.06,.21-.09c.04-.01,.07-.03,.11-.04,.16-.06-.38,.13-.22,.08,.16-.05,.31-.09,.47-.13,.33-.08,.72-.28,.96-.53,.16-.17,.35-.47,.26-.72-.23-.65-1.15-.6-1.68-.48-2.13,.51-4.14,2-5,4.05-.1,.24-.15,.48,.03,.71s.54,.32,.8,.34c.38,.02,.79-.04,1.14-.21,.28-.14,.63-.33,.76-.63h0Z"></path><path class="cls-4" d="M111.9,324.47c1.85-.37,3.69-.74,5.54-1.11,.59-.12,1.39-.78,1.16-1.46-.25-.74-1.09-.81-1.74-.68-1.85,.37-3.69,.74-5.54,1.11-.59,.12-1.39,.78-1.16,1.46,.25,.74,1.09,.81,1.74,.68h0Z"></path><path class="cls-4" d="M107.51,332.17c1.85,1.3,3.71,2.59,5.56,3.89,.52,.37,1.35,.2,1.9-.03,.28-.12,.6-.27,.79-.52,.11-.14,.2-.4,.01-.53-1.85-1.3-3.71-2.59-5.56-3.89-.52-.37-1.35-.2-1.9,.03-.28,.12-.6,.27-.79,.52-.11,.14-.2,.4-.01,.53h0Z"></path><path class="cls-4" d="M101.97,341.77l2.74,3.57c.19,.24,.53,.36,.82,.39,.36,.04,.82-.04,1.14-.2,.49-.25,1.14-.87,.7-1.45-.91-1.19-1.82-2.38-2.74-3.57-.19-.24-.53-.36-.82-.39-.36-.04-.82,.04-1.14,.2-.49,.25-1.14,.87-.7,1.45h0Z"></path><path class="cls-4" d="M95.14,345.86c1.16,2.38,2.31,4.76,3.47,7.14,.28,.59,1.12,.56,1.66,.4,.34-.1,.71-.24,.96-.51,.15-.15,.39-.44,.27-.67-1.16-2.38-2.31-4.76-3.47-7.14-.28-.59-1.12-.56-1.66-.4-.34,.1-.71,.24-.96,.51-.15,.15-.39,.44-.27,.67h0Z"></path><g class="cls-3"><path class="cls-1" d="M81.63,285.13c-1.03-2-2.16-4.02-3.89-5.45-1.73-1.44-4.21-2.18-6.28-1.31-1.88,.8-3.05,2.73-3.68,4.67-2.18,6.65,.39,13.78,2.1,20.56,5.07,20.06,2.66,41.12,1.56,61.78-.12,2.23-.22,4.51,.46,6.63s2.3,4.09,4.49,4.53c2.68,.54,5.37-1.38,6.61-3.81,1.24-2.43,1.37-5.26,1.45-8,.8-25.8,.13-51.64-1.99-77.36"></path><g><path class="cls-1" d="M80.05,287.83c.01-.31-.4-.17-.48-.21,.13,.51,.58,.18,.48,.21Z"></path><polygon class="cls-1" points="81.39 292.84 81.22 292.76 81.69 293.48 81.39 292.84"></polygon><path class="cls-1" d="M81.72,297.6c.69-.5-.24-1.72-.04-2.58l.15-.15-.6-.34c.16,1.02,.64,2.34,.49,3.07Z"></path><path class="cls-1" d="M80.35,300.23c.27-.17,.27,.53,.05-.6-.03,.06-.04,.08-.06,.11,.01,.1,.02,.24,.01,.48Z"></path><path class="cls-1" d="M80.33,299.75c-.05-.5-.21,.34,0,0h0Z"></path><path class="cls-1" d="M80.64,302.05l-.29-.64c-.15,.15-.15,.74-.29,.53,.18,.67,.33,.52,.58,.12Z"></path><path class="cls-1" d="M81.2,302.64l-.12-.34c-.07,.06-.08,.16,.12,.34Z"></path><path class="cls-1" d="M80.81,301.6l.27,.71c.11-.1,.34-.13-.1-.33,.21,.05,0-.08-.17-.38Z"></path><path class="cls-1" d="M80.89,301.18c.13-.38,.2-.86,.49-.22-.18-1.26-.67-1.04-.49,.22Z"></path><path class="cls-1" d="M82.48,297.79l.18-.51-.27-.41c.14,.21-.13,.97,.09,.92Z"></path><path class="cls-1" d="M80.51,306.18c.15,.03,.39-.24,.58-.3l-.2-.48c-.09,.26-.16,.74-.38,.78Z"></path><path class="cls-1" d="M81.09,305.87l.3,.71c0-.65-.14-.77-.3-.71Z"></path><polygon class="cls-1" points="81.99 302.71 81.38 301.55 82.01 302.94 81.99 302.71"></polygon><polygon class="cls-1" points="80.63 308.96 80.26 308.56 80.83 309.27 80.63 308.96"></polygon><path class="cls-1" d="M80.79,310.8c-.31-.29-.47,.44-.67,.13,.08,.5,.35,.91,.59,1.29-.14-.4-.13-.84,.08-1.42Z"></path><path class="cls-1" d="M81.07,312.85c-.08-.2-.21-.41-.36-.63,.08,.21,.18,.42,.36,.63Z"></path><path class="cls-1" d="M81.38,307.83c-.09,.06-.32,.18-.4,.6l.41-.31c0-.09,0-.19,0-.29Z"></path><path class="cls-1" d="M81.4,308.11h-.01c0,.32,0,.54,0,.63,0-.08,0-.27,0-.63Z"></path><path class="cls-1" d="M81.38,307.76s0,.05,0,.07c.04-.03,.05-.05,0-.07Z"></path><path class="cls-1" d="M81.72,304.65c.26,.41,.57,1.3,.88,.41-.31-.29-.49,.22-.88-.41Z"></path><path class="cls-1" d="M81.9,307.38l.06-.78c-.11,.02-.27,.17-.4-.04l.34,.82Z"></path><polygon class="cls-1" points="82.05 307.75 81.9 307.38 81.87 307.67 82.05 307.75"></polygon><path class="cls-1" d="M81.41,311.51c.2,.33,.23,.69,.28,1.1,.06-.45,.09-.91,.07-1.34-.14-.06-.39-.23-.35,.24Z"></path><path class="cls-1" d="M81.44,309.85s.02,.05,.03,.07c.03-.05,.04-.08-.03-.07Z"></path><polygon class="cls-1" points="81.86 316.68 81.94 316.62 81.86 316.6 81.86 316.68"></polygon><path class="cls-1" d="M81.83,311.19c.07-.34-.05-.53-.19-.71,.06,.25,.1,.51,.11,.79,.06,.02,.1,.03,.08-.08Z"></path><path class="cls-1" d="M81.32,313.98c.08-.18,.15-.38,.21-.59-.13,.18-.32,.53-.21,.59Z"></path><path class="cls-1" d="M81.36,310.05s-.02-.03-.02-.05c-.09,.11-.04,.1,.02,.05Z"></path><path class="cls-1" d="M81.36,310.05c.07,.17,.18,.3,.28,.43-.04-.2-.1-.39-.17-.55-.03,.04-.07,.09-.11,.12Z"></path><path class="cls-1" d="M84.65,317.81c-.4-.04-.79-.91-.4-1.69-.33-.73-1.61-.19-2.31,.49,.17,.02,.33,0,.59,.77,.21-.28,.44-1.72,.82-1.09,.24,1.01-.11,.84-.3,1.34,.48-.44,.76,1.27,1.48,1.02l-.29-.88c.11-.02,.3,.3,.4,.04Z"></path><path class="cls-1" d="M81.91,315.15l-.06-.31c-.05,.36-.2,.63-.49,1.11,.22,.52,.37,.62,.5,.65v-1.55s.05,.11,.05,.11Z"></path><path class="cls-1" d="M81.79,313.43c.44,.23,.66,.98,1.1,.49-.07-.93-.39-.63-.6-1.18,.17,1.49-.26-.42-.46,.67-.09-.29-.12-.55-.15-.8-.04,.27-.09,.53-.16,.78,0-.01,.02-.02,.03-.04h0s0,0,0,0c.05-.07,.08-.09,.05-.02,0,0,0,.02,.01,.03,.06,0,.11,.03,.17,.06-.07,.44-.11,.07-.17-.06-.02,0-.04-.01-.06-.02h0s.3,1.49,.3,1.49c.05-.32,.02-.71-.06-1.42Z"></path><path class="cls-1" d="M83.57,305.8s-.07,.05-.1,.05c.06,.09,.1,.13,.1-.05Z"></path><path class="cls-1" d="M83.35,306.44c-.07-.11-.24-.19-.22-.54,.11-.31,.21,0,.35-.03-.13-.21-.35-.73-.52-.05l.06,.1c-.11,.61-.61,1.41-.67,1.31,.38-.2,.65-.37,1-.79Z"></path><path class="cls-1" d="M82.69,309.97l.27,1.24,.34-.65-.22,.04c.05-.71-.22-.55-.39-.63Z"></path><polygon class="cls-1" points="81.65 316.83 81.19 316.69 81.86 317.38 81.65 316.83"></polygon><polygon class="cls-1" points="81.76 318.45 81.37 318.41 81.62 318.82 81.76 318.45"></polygon><path class="cls-1" d="M70,349.67l-.09-.37c.03,.17,.06,.29,.09,.37Z"></path><path class="cls-1" d="M69.81,352.32l.19,.08c-.1-.13-.18-.18-.19-.08Z"></path><path class="cls-1" d="M82.12,358.21c-.38,.53-.97,1.11-.52,1.05l.44-.15c-.07-.37-.02-.66,.08-.9Z"></path><path class="cls-1" d="M72.75,374.03c0,.07-.01,.14-.02,.21,.2,.03,.38,.04,.55,.05-.17-.06-.34-.15-.53-.25Z"></path><path class="cls-1" d="M71,374.62c-.07-.3-.13-.6-.16-.89,0,.22,.04,.5,.16,.89Z"></path><path class="cls-1" d="M70.12,335.25l-.43-.43c-.01,.66,.22,.37,.43,.43Z"></path><path class="cls-1" d="M82.34,335.03c-.16,.46-.23,.83-.25,1.15,.25-.56,.61-1.01,.25-1.15Z"></path><path class="cls-1" d="M74.53,350.99c-.06-.23-.15-.33-.24-.33,.06,.24,.14,.37,.24,.33Z"></path><path class="cls-1" d="M82.1,337.51c.04-.08,.06-.16,.1-.24-.08-.34-.14-.67-.11-1.08-.18,.41-.29,.88,.01,1.33Z"></path><path class="cls-1" d="M65.36,282.51s.05-.09,.09-.12c-.05-.03-.07,.03-.09,.12Z"></path><path class="cls-1" d="M77.81,282.5c-.1-.09-.23-.25-.36-.39,.04,.09,.14,.21,.36,.39Z"></path><path class="cls-1" d="M81.79,324.97c-.04-.34-.05-.05,0,0h0Z"></path><path class="cls-1" d="M83.45,323.25c.05,.07,.11,.13,.21,.13-.11-.03-.17-.07-.21-.13Z"></path><path class="cls-1" d="M84.83,340.92v.03c.08-.1,.07-.09,0-.03Z"></path><path class="cls-1" d="M81.97,324.45c-.05,.13-.09,.28-.12,.44,.03-.07,.07-.21,.12-.44Z"></path><path class="cls-1" d="M81.76,324.52c.01-.12,.02-.21,.03-.3-.07-.04-.12,0-.03,.3Z"></path><path class="cls-1" d="M81.82,325.44c-.01-.2,0-.38,.03-.56-.03,.07-.05,.1-.07,.08,0,.1,.02,.24,.04,.48Z"></path><path class="cls-1" d="M70.1,311.14s.01-.05,.03-.08c-.24-.31-.18-.16-.03,.08Z"></path><path class="cls-1" d="M86.33,367.38s-.01-.03-.02-.04c0,.02-.01,.04-.02,.05h.04Z"></path><path class="cls-1" d="M86.52,368.75c-.46-.64-.37-.94-.23-1.36l-1.28,.32c.51,.33,1.01,.67,1.51,1.04Z"></path><path class="cls-1" d="M70.2,343.34l-.43,.84c-.59-1.07-.34-1.81-.92-1.03,1.35,.18-.01,3.35,1.33,3.54l-.32,.55c.02-.16-.06-.19-.03-.35-.71,1.07,.94,.88,.66,2.29-.13,.49-.35,.83-.49,.48l.27,1.13c-.05,.32-.28,.23-.23-.09v1.7s-.03-.02-.03-.02c.2,.25,.49,.82,.62,1.1-.22,.42-.13-.22-.31-.13l.27,.96c-.38,.36-.67-.44-.58-1.08-1.41,.79,.29,.8-.62,2.65l-.12-.9c-.8,.52-.57,1.23-1.11,2.21,.27-.22,1.33-1.93,1.61-.89-.12,.28-.19,.66,.05,1.22-.48-.02-.4,.52-.41,1.2l-.64-.09c.14,.74,.47,.7,.73,1.15-.11,.81-.62,.95-1.05,1.11-.18,1.29,.85-.85,.88,.7-.31,1.07-.09,1.85,.22,3.16-.26,.75-.38-.15-.58,.11l.47,.7c-.02,.17-.17,.1-.25,.07,.17,.59,.63,.08,.77,1,.35,.14,.07,.59-.17,1.19-.25,.59-.45,1.36,0,1.94-.15,.32-.41-.11-.64,0,.35,.84,.52,1.19,.7,1.5,.19,.3,.38,.58,.93,1.14,0,.43,.01,.87,.07,1.31,.06-1.04,1.04-.15,1.91,.3,.05-.35,.09-.65,.12-.83,.31,.33,.64,.62,.99,.87,.01,.18-.23,.23-.58,.22,.1,.04,.19,.08,.27,.1,.13,.5-.29,.6-.82,.52-.02-.22-.02-.44,0-.66-.52-.06-1.07-.17-1.36,.09,.12,.05,.28,.2,.43,.36-.15-.03-.26-.04-.29,.04-.03,.08,.19,.15,.48,.27-.12,.24-.23,.48-.33,.74l.28-.1c.36,.68,.83,1.33,1.44,1.93,.95,.2,1.9,.13,2.8-.08,.91-.21,1.77-.58,2.71-1.02-.37,.64,.12,.85,.28,1.45-.44-.22-.87-.03-1.47,.14-.58,.18-1.34,.33-2.03,.07,.72,.25,.53,.47,.3,.55,.96-.01,1.86-.24,2.63-.6,.04,.51,.62,.28,1.32,.23-.41-.39-.02-.69,.49-1.03,.51-.34,1.14-.78,1.39-1.19,.25,.2,.34,.67-.72,1.24,.77-.03,.96-.55,1.06-1.04,.11-.51,.14-.97,.77-1.2-.16,.21-.31,.27-.26,.47,.25-.62,1.28-1.73,1.32-1.29l-.15,.24c.6-.74,1.19-2.01,1.38-3.13,.21-1.12,.09-2.06-.31-2.23,.11,0,.98,.37,1.13,.51-.77-1.16-1.64-2.16-2.54-3.1,.71,.3,2.51-.57,2.84,.78,.13-.38,.28-.85,.06-1.65-.11,.25-1.08,.59-1.13,.24,.85-.91,.46-.64,1.19-1.77-.17,.37-1.3-.08-1.25-.67,.17,.1,1.13-.02,1.24,.2l-1.08-1.5c.19,.37,.95,.09,1.28-.23-.22,.15,.06-1.27-.05-1.66l-.28,.62c.22-1.66-1.54-1.68-1.45-3.32,.23,.2,1.42,.52,1.58-.31-.57-.4-2.73-1.75-3.16-3.2l.33-.27-.36-1.12c.86,.7,2.66,2.68,3.34,3.76,.27-.62,.39-.17,.38-1.1,.32-.32,.46,.52,.47,.79l.23-2.16c-.67,.09-.65-1.67-1.21-1.59l.67,2.36c-.67,.08-1.89-1.39-1.75-2.92,.27-.39,1.19,.31,1.42,.28-.23-.2-.42-1.46-.26-1.6l.35,.65c.27-.85-.88-1.4-.23-2.42,.05-.35,.87-1.05,.47-1.12-.77,.57-3.14,.67-3.72,.28,.05-.12,.74-1.85,1.13-2.25,.6-.58,1.43,.88,1.95,.38-.18-.02-.41-.34-.48-.48,.16-.37,.57,.16,.49-.65-.68-.14,.06-1.64-.58-.38-.2-.79,.14-.84,.11-1.77-.44,.3-1.5-.83-1.69-1.62,.17,.05,.4-.13,.5-.22,.05-1.62,.35-2.49,.35-4,.16-.14,.36-.87,.65-.56-.12-.22-.35-.41-.38-.88,.58-.91,.1,1.04,.8,.34-.4-.05-.56-1.2-.82-1.86-.61,.21-.09,1.53,.16,2.19-.84,.01-1.74-1.13-2.16-2.7-.23-1.25,.54-.55,.41-.77,.11-2.35-1.51-1.97-.94-3.93,.52-.79,1.07-.06,1.45-.24,.23,1.02-.31,1.57-.27,2.26l.24-.86c.19,.32,.34,1,.19,1.37,.47-.66,.01-3.97,.41-5.8-.19-.32-.39-.87-.6-.6l.09,.57c-.42,.54-.63-1.06-.81-.33-.33-.76-.83-1.61-.62-2.7l.61-.22c-.18,.03-.34,.72-.15,1.02-.29-.44,.78-1.69-.04-2.15l-.4,.77c-.33-.76-1.02-1.69-.86-2.66-.59,.46,.08,.22-.61,.92,.86-.62,.05,2.45,.94,1.47-.8,.72-.31,1.22-.99,2.15,.2-.03,.38-.33,.3,.47,.06,.03,.14,.12,.18,.17,0,.02,0,.03-.01,.05l.02-.05s.04,.04,0-.02c.08-.19,.18-.35,.3-.42,.48,.39,.5,1.67,.75,2.09-.09,.48-.24-.19-.45,.07l.37,.64c-.45,.08-.72,1.29-1.01,.17v1.01c-.24,.6-.32,1.42-.12,1.92-.09,.48,.52,1.19,.16,.79l.3,1.58-.11,.02c-.04,1.56,.8,3.21,0,5.01,.12,.53,.26,1.07,.14,1.95l-.39,.17c.14,.68-.38,2.03,.03,2.32-1.05,.73-.22,3.28-.41,4.47l.51,.05c-.03,.82,.11,1.6,.3,2.62l.45-.06c.37,.88-.34,2.25-.31,3.64-.17-.1-.12-.45-.01-.7-1.03,1.64,.69,3.51-.08,5,.16,.38,.09,.65-.02,.91,0-.03,0-.07-.02-.09,0,.04,0,.1,0,.15-.08,.16-.17,.33-.25,.51,.11-.15,.2-.3,.25-.43,0,.29,.05,.73,.15,1.16l-.49,.17s0,.06,.01,.1c-.19,.42,.22,.34,.59,.13,.07,.22,.17,.42,.28,.57-.79,.32,.23,1.13-.61,1.58,.4,.3,.25,2.17,1.09,2.42-.11,.01-.17,.14-.17-.1-.11,.48-.22,.95,0,1.39l-.62,.18,.78,1.06c-.41,.6-.65,.82-1.07,.2,.61,1.49,.19,1.17,.73,2.47l-.38-.12c-.05,.41,.32,1.2-.07,1.37-.48,.34-.83,1.44-1.51,2.36-.67,.96-1.85,1.81-2.8,1.73,.36,.49,.1,.45-.2,.36-.3-.09-.57-.27-.58,.18-.13-.26-.31-.42-.09-.67-.35,.15-.61-.02-.81-.13-.21-.12-.38-.18-.83-.02,.08-.28,.36-.25,.38-.43-.07,.02-.33,.07-.3-.12,.04-.18,.23-.11,.38-.16-.56-.34-1.26,.07-1.92,.56-.1-.69-.25-.85-.94-.97,.12-.33,.21-.72,.63-.17-.09-.17-.29-.74-.44-1.25-.17-.52-.34-1.04-.66-1,.13-.16-.05-.6-.14-.71-.07-.99,0-1.08-.08-2.08l-.1,.28c-.77-.4-.17-.85-.23-1.7l.08,.03c.65-1.92-.22-.86,.52-2.77l-.48,.08c-1.02-.24,.7-1.69,.38-2.84l-.3,.39c-.31-.64,1.51-1.64,1.67-2.25,.1-.13,.13,.22,.19,.41,.71-1.58-.61-.25-.69-1.47,.35-.2,.84,.34,.96-.47,.3-.39-.95-2.43-.23-3.5-.28,.23-.55,.46-.71-.12-.04-.87,1.13-2.27,.35-3.1,.08-.11,.15-.14,.21-.14-.17-.67-.23-2.17-.65-2.59,1.7-.52-.59-4.15,.93-4.06v-2.04s.16,.06,.16,.06c.15-1.3-.2-1.78-.55-2.25,.11-.3,.25-.07,.33-.05,.38-1.89,.3-2.09-.42-3.7l.5-.16c-.27-.43,.82-2.76,.23-4.64,.06,.02,.15,.06,.22,.21-.59-2.09,1.3-5.11-.55-5.83l-.51-1.37c-.06,1.8-.79-.23-1.06,.52-.14-.69,.46-1.85,.59-.99l-.08,.14c.96,.27,.22-2.25,.84-2.24-.27-3.54-.17-7.05-.64-10.39l-.67,.5c-.05-.39-.07-.77-.14-1.16,.11-.33,.49-.5,.61,.33,.34-.5-.6-1.32-.75-1.31,0-1.66,.96,.48,.88-.02l-.18-.66-.06,.17c-.39-.49-.71-.48-.86-1.47,.03-.65,.38-.41,.36-.66,.05,0,.06-.1-.06-.38l-.27-1.46-.43,.7c-.42-.57-.28-1.35-.77-.55,.37-.59,.18-1.97-.16-3.23-.33-1.27-.74-2.46-.66-2.79-.64-.75-.85-1.61-1.06-2.67-.06,.29-.65,.6-.79-.33,1.38,.03,.17-1.8,1.01-2.7-.54,.76-.57-2.5-1.3-1.36,0-.77,.48-.12,.73-.72-.73-1.72,.03-3.87,.22-5.85-.17-.07-.5,.24-.67-.25,.37-.31,.7-.62,1.09-.88,.03-.39-.88-.66-.08-1.16-.17,.04-.43,.12-.4-.15,1.07-1.75,2.05-3.27,3.58-3.59,.77-.17,1.71-.04,2.51,.42,.81,.46,1.4,1.19,1.72,2.14-.09-.59,.16-.39,.44-.1-.11-.25,.33-.28,.48-.48,.21,.58,.37,1.17,.51,1.77,.74-.11,1.02,1.61,1.66,1.5l-.38-.46c1.05,.34,.9-1.78,1.75-2.2-.61-.19-.68-.88-.92-1.64-.23-.74-.68-1.59-1.74-1.71-.16-.4,.45-.02,.45-.32-.61,.01-1.05-.28-1.83-.95l.15-.03c-1.28-.67-2.26-1.05-3.39-1.31-.57-.12-1.18-.2-1.9-.17-.71,.03-1.55,.2-2.43,.62,.16,.09,.32,.18,.47,.28-.71,.32-.92,.32-1.29,.45-.12,.56,.29,.21,.76-.07,.47-.29,.99-.48,.81,.04-.66-.24-1.85,.56-2.61,1.52-.79,.95-1.28,1.94-1.91,2.01-.42,.98,.61-.06,.22,.89l-.37,.15,.28,.37c-.25,.6-.69,.81-.94,.77,.07-.15,.06-.46,.09-.64-.28,.37-.45,.97-.49,1.52-.05,.54-.05,1.02-.13,1.15l.37-.92c-.34,2.72-.62,6.04,.36,8.4l.19-.21c.34,.89,.34,1.26,.33,1.67-.02,.4-.06,.84,.25,1.8l-.07-.06c.3,.35,.54,.84,.63,1.38-.37-.43-.27,1.04-.71,.47,.91,1.8,.58,.86,1.71,1.9l-.28,.38c.44,.34,.62,.33,.96,1.25-.52-.69-.38,.75-1.02-.01-.25,2.18,1.57,2.72,.62,3.91,1.21,.66,.16-1.84,.49-1.38,.22-.51,.93,.56,.96,1.21,.12,.64-1.03,1.37-.66,2.94-.02-.16-.11-.15-.14-.31-.13,.64,.57,1.1,.29,1.9,.69,.3,.14,.95,.94,.93l-.45-1.43c.35,.79,1.44,1.41,1.21,2.87-.18-.08-.43-.46-.61-.72-.15,.44,.27,.75,.1,1.21-.78,0-.45-1.76-1.22-2.54-.25,.48,.88,1.57-.05,1.27,1.21,.46,.1,1.59,1.09,2.55h-.48c.1,.16,.37,.48,.41,.8l-.69-.49c.65,.8-.21,1.74,.15,2.55-.21-1.76,.52-.46,.79-1.26,.87,2.12-1.1,1.4-.61,3.81-.1-.32,.15-1.27,.42-.77-.04,.47-.17,1.11-.4,1.41,.22,1.61,.47-.29,.81,.38-.53,.6,.3,.78,.53,1.49l-.48,.04c-.17,1.88,1.06,.43,.77,2.13l-.7-.67,.21,.87-.56-.15c.45,.93,.36,1.23,.25,2.17,.33-.23,.89,.09,.93,.92-.27,.58-.47-.3-.37,.87-.31-.26-.69-.53-.26-1.06-.16-.05-.31-.25-.47-.3-.3,.62-.04,1.52-.02,1.95,.01-.16,.04-.36,.1-.46l.7,1.69c-.18,.27-.33,.06-.47-.15,.06,.34,.29,.58,.34,1.09-.39-.13-.8-.09-1-.8,.16,.53,.31,1.07,.45,1.61-.17,.11-.47,.83-.61,.62-.24,.89,.77,2.2,.44,3.39,.07,.06,.15,.19,.2,.44-.11,1.12-.6,2.1-.11,3.45l-.73,.73c.12,1.05,.92-.99,1.13,.75,.18,1.24-.61,.44-.83,.86,.34,.62,1,1.72,.38,2.83-.11-.38,0-.67-.03-1.02Zm-.42,12.95c-.09-.26-.37-.78-.07-.94,.53,.32,.26,.53,.07,.94Zm3.65,19.9c-.27-.02-.48-.32-.6-.72,.21,.17,.41,.4,.6,.72Zm8.84-47.46s.01,.02,.02,.03c-.18,.56-.11,.36-.02-.03Zm.18-1.17c-.07-.12-.14-.11-.2-.05,.12,.08,.14,.34,.11,.64,.12-.09,.21-.24,.09-.58Zm-9.84-20.65l-.08,.25c-.24-.48-.09-.36,.08-.25Z"></path><path class="cls-1" d="M71.22,374.57c.02-.12,.09-.18,.16-.24-.13-.06-.22-.02-.16,.24Z"></path><path class="cls-1" d="M70.2,335.33v-.04s-.05-.03-.08-.04l.08,.08Z"></path><path class="cls-1" d="M86.73,345.57c-.07,.24-.16,.37-.25,.46,.12,.01,.22-.1,.25-.46Z"></path><path class="cls-1" d="M81.46,321.42l.15,.74c-.03-.36,.07-.49,.14-.67-.11,.02-.27,.17-.29-.06Z"></path><path class="cls-1" d="M84.2,314.85c-.06-.11-.02-.23-.08-.34l-.22,.04c.03,.46,.23,.78,.3,.3Z"></path><path class="cls-1" d="M83.04,320.68c.4-.07,.25-.54,.15-1.05,0,.03,0,.06,0,.09-.57-.13-.37,.42-.16,.96Z"></path><path class="cls-1" d="M83.18,319.5c-.02-.16-.04-.32-.03-.48-.23-.05-.04,.2,.03,.48Z"></path><path class="cls-1" d="M82.15,326.09c.1-.25-.52-.14-.36-.29-.52-.26,.66,1.63,.36,.29Z"></path><polygon class="cls-1" points="84.36 320.21 83.87 320.42 84.28 320.7 84.36 320.21"></polygon><path class="cls-1" d="M84.12,324.35l.11-.84c-.08,.02-.14-.09-.18-.22,0,.52-.08,1.08,.06,1.06Z"></path><path class="cls-1" d="M84.06,323.29c0-.27-.02-.52-.1-.67,0,.14,.04,.46,.1,.67Z"></path><polygon class="cls-1" points="84.55 321.35 84.46 321.6 84.44 322.19 84.55 321.35"></polygon><path class="cls-1" d="M84.22,333.33l.16,.91c.17,.09,.27-.16,.2-.5-.12-.22-.19-.55-.36-.41Z"></path><path class="cls-1" d="M85.55,330.55c-.1,.25-.21,.27-.37,.41l.62,.02-.25-.43Z"></path><path class="cls-1" d="M85.74,333.21c.17,.09,.51,1.32,.46,.16-.17-.09-.33-1-.46-.16Z"></path><polygon class="cls-1" points="85.02 346.98 85.02 346.75 84 346.77 85.02 346.98"></polygon><path class="cls-1" d="M87.29,359.15c.27-1.08-.62-.27-.3-1.25-.24-.26-.26,.8-.47,.53,.24,.66,.09,1,.77,.71Z"></path><path class="cls-1" d="M86.53,358.44c-.04-.11-.08-.22-.15-.34,.06,.19,.11,.28,.15,.34Z"></path><polygon class="cls-1" points="78.59 284.67 78.72 285.33 78.82 284.8 78.59 284.67"></polygon><path class="cls-1" d="M79.86,285.41l-.5,.44,.71,.09c-.1-.12-.28-.36-.21-.53Z"></path><path class="cls-1" d="M68.36,358.14l.15,.06c.18-.1,.2-.26,.24-.58l-.4,.52Z"></path><polygon class="cls-1" points="69.41 348.77 69.39 348.93 69.99 348.66 69.41 348.77"></polygon><path class="cls-1" d="M69.04,340.89c-.04,.32,.08,.7,.05,1.02-.08-.7,.69-1.08-.05-1.02Z"></path></g></g><path class="cls-2" d="M37.7,391.74c4.52,.15,9.08,.3,13.58-.35,4.41-.64,8.49-2.59,12.91-3.07,8.31-.89,16.78,1.33,24.77-1.96,.59-.24,1.05-.99,.66-1.58-.43-.64-1.39-.51-1.98-.26-7.6,3.13-16.17,.56-24.09,1.65-4.28,.59-8.22,2.46-12.51,3.03-4.35,.58-8.75,.43-13.12,.28-1.71-.06-2.17,2.19-.22,2.25h0Z"></path><path class="cls-2" d="M37.91,383.63c-4.41,.65-8.81,1.3-13.22,1.95-.5,.07-1.54,.34-1.65,.96s.87,.63,1.24,.57c4.41-.65,8.81-1.3,13.22-1.95,.5-.07,1.54-.34,1.65-.96s-.87-.63-1.24-.57h0Z"></path><path class="cls-2" d="M22.95,392.64c-3.47-.06-6.92,.32-10.3,1.1-.59,.14-1.36,.72-1.17,1.41s1.14,.77,1.72,.63c3.1-.71,6.29-1.03,9.51-.97,.64,.01,1.52-.5,1.59-1.19,.08-.77-.76-.98-1.35-.99h0Z"></path><path class="cls-2" d="M93.1,374.32c4.82-.21,9.62,.68,14.1,2.47,1.1,.44,3.38-1.14,1.71-1.8-4.92-1.97-10.21-2.81-15.5-2.59-.58,.02-1.53,.43-1.62,1.1-.09,.72,.8,.84,1.3,.82h0Z"></path><path class="cls-2" d="M93.1,380.48c2.49-.27,4.97-.54,7.46-.81,.6-.06,1.52-.41,1.62-1.1s-.8-.88-1.31-.83c-2.49,.27-4.97,.54-7.46,.81-.6,.06-1.52,.41-1.62,1.1s.8,.88,1.31,.83h0Z"></path><path class="cls-2" d="M33.78,375.03c-3.23-1.97-7.65-1.31-10.49,1.04-.48,.39-.28,.98,.29,1.1,.72,.15,1.49-.09,2.05-.55,.07-.06,.13-.1,.02-.02,.06-.05,.13-.09,.19-.14,.13-.09,.27-.18,.4-.26,.07-.04,.14-.08,.21-.12-.26,.14,0,0,.05-.02,.14-.07,.29-.12,.44-.19,.2-.09-.25,.07-.04,.01,.08-.02,.15-.05,.23-.07,.15-.04,.31-.08,.46-.12,.21-.06-.26,.04-.04,0,.08-.01,.16-.03,.24-.04,.18-.02,.36-.03,.54-.05-.13,.01-.15,0,0,0,.08,0,.16,0,.24,0,.16,0,.32,.01,.48,.02,.08,0,.16,.01,.24,.02-.13-.02-.06,0,.03,0,.16,.03,.31,.06,.47,.09,.61,.14,1.11,.35,1.71,.72,.57,.35,1.55,.1,2.06-.25,.43-.3,.83-.84,.24-1.2h0Z"></path></g><g id="dino_404"><g><path class="cls-2" d="M329.59,250c-3.34,18.88-6.06,37.87-8.15,56.93,9.63-1.03,19.26-2.06,28.9-3.09,.57-.06,1.16-.13,1.64-.45,.72-.49,.98-1.42,1.18-2.27,3.89-16.32,7.77-32.63,11.66-48.95-11.27-1.12-22.6-1.6-33.92-1.42"></path><path class="cls-2" d="M328.13,250.15c-3.33,18.88-6.05,37.87-8.15,56.93-.07,.68,.79,.82,1.29,.77,5.71-.61,11.43-1.22,17.14-1.83,2.86-.31,5.71-.61,8.57-.92,2.14-.23,5.09-.04,6.63-1.83,.56-.65,.79-1.49,.99-2.3,.36-1.45,.69-2.91,1.04-4.36,.69-2.91,1.39-5.82,2.08-8.72,1.33-5.57,2.66-11.15,3.98-16.72,1.52-6.38,3.04-12.76,4.56-19.14,.13-.53-.54-.74-.92-.77-11.27-1.11-22.6-1.59-33.92-1.42-.62,0-1.61,.18-1.9,.83-.26,.59,.23,1.02,.83,1.01,11.33-.17,22.65,.3,33.92,1.42l-.92-.77c-2.5,10.5-5,21-7.51,31.5-1.25,5.25-2.5,10.5-3.75,15.75-.18,.77-.29,2.6-.96,3.15-.29,.24-.75,.21-1.13,.25-.82,.09-1.63,.17-2.45,.26-2.61,.28-5.22,.56-7.84,.84-6.04,.65-12.08,1.29-18.12,1.94l1.29,.77c2.1-19.06,4.82-38.05,8.15-56.93,.22-1.27-2.72-.82-2.91,.3h0Z"></path></g><g><path class="cls-4" d="M226.68,139.81c41.97-10.7,85.6-14.91,128.84-12.43,7.43,.43,15.71,1.48,20.39,7.27,3.2,3.96,3.96,9.31,4.39,14.38,1.53,18.01,.35,36.25-3.49,53.92-.5,2.32-1.18,4.82-3.09,6.22-1.78,1.3-4.16,1.29-6.36,1.24-20.39-.53-40.78-1.05-61.16-1.58-4.99-.13-12.13,2.56-10.25,7.18,23.72,1.92,47.51,3.04,71.31,3.37,.29,4.21,.58,8.42,.87,12.63-23.73,0-47.47,1.83-70.92,5.45-2.67,.41-5.55,.97-7.34,2.99-2.22,2.52-1.92,6.3-1.51,9.64,3.68,29.35,5.61,61.95-12.2,85.56-9,11.93-22.15,20.1-35.81,26.16-20.82,9.22-45.33,13.96-66.16,4.74-18.69-8.28-31.42-26.78-36.95-46.46-5.53-19.68-4.72-40.57-2.53-60.9,10.29,12.66,20.58,25.32,30.87,37.98,13.74-10.35,27.61-20.81,38.65-34,11.04-13.19,19.16-29.54,19.36-46.73,.15-13.02-4.17-25.62-6.14-38.49-1.98-12.87-1.11-27.34,7.65-36.96"></path><path class="cls-4" d="M226.94,140.78c20.87-5.31,42.12-9.02,63.55-11.09,21.43-2.07,43.03-2.53,64.53-1.28,8.08,.47,17.72,1.72,21.5,10.01,1.9,4.16,2.2,8.91,2.52,13.41,.39,5.54,.52,11.11,.4,16.66-.24,10.73-1.42,21.44-3.55,31.96-.45,2.25-.76,4.79-1.98,6.78-1.26,2.04-3.47,2.17-5.65,2.14-5.52-.08-11.04-.28-16.55-.43-11.11-.29-22.21-.57-33.32-.86-2.74-.07-5.47-.14-8.21-.21-2.19-.06-4.4-.24-6.58,.09-3.12,.47-6.97,1.64-8.75,4.49-.76,1.21-.85,2.6-.36,3.94,.15,.4,.53,.61,.94,.65,18.45,1.49,36.94,2.51,55.44,3.03,5.29,.15,10.57,.26,15.86,.33l-.94-.65c.29,4.21,.58,8.42,.87,12.63l1.58-1.43c-15.55,.01-31.1,.79-46.57,2.35-7.82,.79-15.61,1.77-23.38,2.96-2.86,.44-5.91,.83-8.33,2.57s-3.38,4.63-3.39,7.56c0,3.08,.58,6.18,.93,9.24s.68,6.16,.95,9.25c.57,6.52,.92,13.06,.86,19.61-.11,12.35-1.64,24.91-6.33,36.42s-13.23,21.81-23.79,29.25c-10.89,7.67-23.56,13.34-36.38,16.89-13.12,3.64-27.31,4.93-40.56,1.15-11.76-3.36-21.8-10.69-29.36-20.21-17.49-22.02-19.79-51.05-17.74-78.09,.27-3.62,.62-7.23,1.01-10.83-.93,.25-1.86,.5-2.79,.75,10.29,12.66,20.58,25.32,30.87,37.98,.53,.65,1.7,.45,2.28,0,19.26-14.5,39.26-29.72,50.56-51.61,5.28-10.22,8.39-21.61,7.9-33.17-.55-12.84-4.85-25.07-6.43-37.76-1.45-11.62-.45-24.77,7.73-33.87,1.21-1.35-1.56-1.78-2.42-.82-7.12,7.93-9.17,18.83-8.73,29.2,.52,12.34,4.52,24.14,6.23,36.31,.86,6.11,1.02,12.26,.1,18.37-.85,5.69-2.52,11.23-4.8,16.51-4.67,10.82-11.77,20.36-19.96,28.77-9.75,10-20.95,18.42-32.08,26.8h2.28c-10.29-12.65-20.58-25.31-30.87-37.97-.67-.82-2.68-.36-2.79,.75-2.98,27.73-3.3,57.57,11.64,82.21,6.17,10.18,14.81,19.1,25.48,24.56,12.12,6.2,26,7.54,39.35,5.74,13.65-1.84,26.9-6.6,39.08-12.93,11.57-6.01,22.45-13.95,29.97-24.76,14.78-21.24,14.75-48.52,12.31-73.25-.32-3.2-.68-6.41-1.07-9.6-.36-2.94-1.07-6.35,.25-9.16,1.39-2.96,4.91-3.33,7.79-3.77,3.88-.59,7.77-1.13,11.67-1.63,15.51-1.96,31.11-3.14,46.74-3.53,3.85-.1,7.69-.14,11.54-.15,.79,0,1.64-.6,1.58-1.43-.29-4.21-.58-8.42-.87-12.63-.03-.39-.62-.64-.94-.65-18.51-.26-37.01-.99-55.48-2.21-5.28-.35-10.55-.74-15.82-1.16l.94,.65c-1.27-3.39,2.77-4.93,5.4-5.47,2.1-.43,4.25-.25,6.37-.2,2.82,.07,5.64,.15,8.45,.22,11.35,.29,22.71,.59,34.06,.88,5.5,.14,11.01,.39,16.52,.41,2.19,0,4.45-.28,6.31-1.54,1.74-1.19,2.67-3.09,3.26-5.06,1.49-5.03,2.2-10.43,2.92-15.61s1.26-10.91,1.52-16.39c.26-5.48,.27-10.98,.04-16.46-.21-4.97-.36-10.13-1.55-14.98-1.04-4.21-3.19-8-6.8-10.5-3.39-2.34-7.52-3.4-11.54-3.99-4.78-.7-9.66-.8-14.49-.98-5.41-.2-10.83-.31-16.25-.31-10.91,0-21.82,.42-32.7,1.26-21.72,1.67-43.33,5.02-64.54,9.99-2.66,.62-5.3,1.27-7.95,1.94-1.79,.46-1.27,2.4,.52,1.94h0Z"></path></g><g><path class="cls-4" d="M276.93,290.02c3.48,8.17,10.16,14.92,18.28,18.51,6.14,2.71,14.2,3.26,18.8-1.63,2.78-2.95,3.65-7.22,3.86-11.27,.3-5.8-.5-11.65-2.35-17.15,1.74,.84,2.33,2.97,3.37,4.61,2.44,3.85,7.6,4.98,12.14,4.67s9.01-1.71,13.56-1.48c-3.19,2.49-6.38,4.98-9.57,7.47,2.85-.13,5.73,.93,7.83,2.87-4.75,2.82-9.99,6.33-10.85,11.79-.34,2.13,.06,4.31,.16,6.47,.22,4.97-1.23,10.01-4.07,14.1-1.92,2.78-4.44,5.1-7.21,7.03-8.81,6.15-20.35,8.22-30.75,5.54-10.4-2.69-19.49-10.09-24.22-19.74"></path><path class="cls-4" d="M275.48,290.41c3.96,9.15,11.9,16.95,21.53,19.92,4.48,1.38,9.58,1.61,13.95-.29,4.75-2.07,7.26-6.46,8.04-11.44,1.06-6.8,.11-14.02-2.03-20.51-.87,.36-1.73,.73-2.6,1.09,1.2,.66,1.78,1.91,2.39,3.08,.57,1.09,1.19,2.12,2.09,2.98,1.76,1.68,4.13,2.62,6.49,3.05,6.31,1.16,12.4-1.44,18.69-1.2l-.6-1.07c-3.19,2.49-6.38,4.98-9.57,7.47-.69,.54-.03,1.08,.6,1.07,2.64-.06,5.08,.86,7.04,2.61l.44-1c-5.42,3.23-11.57,7.43-11.54,14.45,.01,2.12,.38,4.22,.29,6.34-.08,1.92-.4,3.83-.95,5.67-1.11,3.73-3.19,7.07-5.97,9.78-10.63,10.37-27.57,12.17-40.52,5.3-6.82-3.62-12.48-9.38-15.92-16.3-.5-1-3.32-.07-2.9,.78,6.49,13.05,20.19,21.53,34.8,21.33,14.95-.21,32.84-9.36,34.29-25.84,.39-4.39-1.21-8.97,1.21-12.98,2.07-3.43,5.65-5.64,9.01-7.64,.26-.16,.82-.67,.44-1-2.38-2.12-5.42-3.21-8.61-3.13l.6,1.07c3.19-2.49,6.38-4.98,9.57-7.47,.71-.56,0-1.05-.6-1.07-6.03-.23-12.04,2.37-18.04,1.27-2.38-.44-4.7-1.45-6.27-3.36s-1.95-4.37-4.17-5.58c-.57-.31-2.93,.1-2.6,1.09,1.8,5.45,2.65,11.21,2.35,16.94-.23,4.47-1.27,9.69-5.29,12.31-3.52,2.29-8.16,1.87-12,.73-4.3-1.27-8.31-3.77-11.66-6.72-3.91-3.45-7.02-7.71-9.09-12.49-.44-1.01-3.29-.12-2.9,.78h0Z"></path></g><g><path class="cls-4" d="M181.21,322.6c-4.07,1.31-6.79,5.11-8.83,8.87-10.66,19.68-10.37,43.23-9.81,65.6-8.12,.25-16.19,2.02-23.67,5.17,17.27,1.43,34.62,2,51.95,1.7-2.99-18.49,2.32-38.16,14.21-52.63"></path><path class="cls-4" d="M180.99,321.78c-4.68,1.61-7.68,5.39-9.97,9.61-2.55,4.69-4.51,9.7-5.97,14.82-3,10.5-3.91,21.47-4.11,32.35-.11,6.22,.02,12.44,.18,18.66l1.63-1.05c-8.4,.29-16.68,2.14-24.44,5.37-.96,.4-1.18,1.48,.05,1.58,17.28,1.43,34.62,1.99,51.95,1.7,.67-.01,2.14-.33,1.99-1.29-2.25-14.19,.33-29.04,7.13-41.7,1.94-3.62,4.22-7.06,6.81-10.24,1.11-1.36-1.67-1.45-2.36-.6-9.4,11.52-14.85,26.05-15.28,40.93-.12,4.15,.15,8.29,.8,12.39l1.99-1.29c-17.33,.29-34.67-.27-51.95-1.7l.05,1.58c7.28-3.04,15.02-4.69,22.9-4.96,.46-.02,1.65-.43,1.63-1.05-.51-20.43-1.02-42.13,7.62-61.15,2.02-4.45,4.76-10.62,9.78-12.35,.46-.16,1.41-.54,1.23-1.2-.16-.61-1.22-.58-1.67-.43h0Z"></path></g><g><path class="cls-4" d="M241.07,322.6c4.07,1.31,6.79,5.11,8.83,8.87,10.66,19.68,10.37,43.23,9.81,65.6,8.12,.25,16.19,2.02,23.67,5.17-17.27,1.43-34.62,2-51.95,1.7,2.99-18.49-2.32-38.16-14.21-52.63"></path><path class="cls-4" d="M240.19,323.44c4.62,1.59,7.29,6.39,9.34,10.5,2.27,4.57,4.01,9.4,5.3,14.34,2.65,10.15,3.46,20.69,3.61,31.15,.08,5.93-.04,11.86-.19,17.79-.01,.51,.45,.72,.91,.74,7.93,.28,15.75,1.96,23.07,5.02,.44-.54,.88-1.09,1.32-1.63-17.16,1.42-34.37,1.98-51.58,1.69l.91,.74c2.31-14.59-.38-29.77-7.41-42.75-1.98-3.65-4.29-7.1-6.91-10.31-.69-.85-3.47,.2-2.68,1.18,9.15,11.21,14.38,25.4,14.88,39.86,.14,4.13-.14,8.26-.78,12.34-.08,.5,.51,.73,.91,.74,17.46,.3,34.92-.28,52.32-1.71,.51-.04,2.52-1.13,1.32-1.63-7.71-3.22-15.91-5.03-24.27-5.32l.91,.74c.53-21.29,1.02-43.95-8.63-63.54-2.35-4.78-5.27-9.79-10.59-11.61-1.02-.35-3.4,1.13-1.74,1.7h0Z"></path></g><g><path class="cls-1" d="M245.81,154.62c-1.25-.76-2.65,.77-3.22,2.12-1.56,3.68-2.21,7.75-1.88,11.73,.13,1.55,.51,3.27,1.81,4.13,1.98,1.32,4.72-.28,5.94-2.32,1.98-3.33,1.7-7.5,1.25-11.35-.14-1.22-.37-2.56-1.34-3.3s-2.83-.11-2.64,1.1"></path><path class="cls-1" d="M246.94,153.84c-1.82-.92-3.83,.04-4.99,1.56-1.21,1.6-1.77,3.86-2.2,5.8-.47,2.11-.65,4.28-.57,6.44,.07,1.72,.2,3.72,1.42,5.07,2.73,3,7.49,.51,9.22-2.33,2.09-3.43,1.8-7.72,1.37-11.55-.21-1.89-.74-4.19-3-4.45-1.68-.19-4.06,.73-3.91,2.73,.09,1.14,2.99,.49,2.9-.78-.02-.26,.02-.04-.04-.12-.07-.09-.16,.09-.17,.04,0,0,.39,.27,.44,.32,.21,.23,.34,.5,.45,.78,.46,1.21,.5,2.62,.6,3.9,.23,2.65,.24,5.53-.89,7.99-.72,1.57-2.81,4.15-4.45,2.05-.73-.93-.88-2.24-.97-3.39-.11-1.48-.07-2.97,.1-4.45,.18-1.61,.52-3.2,1.01-4.75,.25-.79,.52-1.61,.91-2.34,.14-.26,.3-.5,.5-.73,.07-.08,.32-.25,.33-.32,.02-.18-.16,.13-.33,.05,.64,.32,1.49,.19,2.07-.22,.41-.29,.85-1,.2-1.33h0Z"></path></g><path class="cls-1" d="M345.87,256.13c-1.55,.55-2.71,2.05-2.89,3.68-.17,1.5,.48,3.06,1.88,3.74,1.74,.84,3.84,.54,5.45-.47,1.45-.91,2.3-2.62,1.75-4.3-.65-2.02-2.76-3.29-4.84-3-.38,.05-.77,.16-1.09,.39-.21,.15-.5,.43-.52,.71-.05,.68,.77,.89,1.3,.82,.07,0,.15-.02,.22-.02,.23-.03-.34-.02-.04,0,.07,0,.15,.02,.22,.02,.13,0-.15-.03-.15-.03,.04,.02,.1,.02,.14,.03,.08,.02,.16,.04,.24,.07,.04,.01,.27,.1,.1,.03s.09,.05,.12,.07c.07,.04,.15,.08,.22,.13,.06,.04,.12,.08,.18,.12,.03,.02,.06,.04,.09,.07,.07,.05,.13,.05-.03-.03,.12,.06,.25,.24,.34,.34,.11,.12,.2,.25,.29,.38,.04,.06,.08,.12,.12,.19,.03,.04,.05,.09,.07,.13-.04-.06-.06-.13-.02-.03,.13,.29,.23,.58,.28,.9,.01,.07,.02,.14,.03,.21,.02,.17,0,0,0-.03,0,.04,0,.07,0,.11-.01,.17-.03,.34-.06,.5-.02,.07-.04,.14-.06,.21-.02,.08,.09-.19,0,0-.06,.14-.13,.27-.2,.39-.03,.04-.16,.22-.04,.06s-.03,.03-.07,.08c-.04,.05-.08,.09-.13,.14-.04,.04-.24,.22-.06,.06s-.02,.01-.07,.05c-.05,.04-.1,.07-.16,.11-.03,.02-.06,.03-.08,.05-.11,.08,.19-.13,.18-.1-.01,.04-.18,.09-.23,.11-.06,.03-.12,.05-.18,.08-.22,.1,.37-.11,.14-.05-.09,.03-.37,.05-.44,.11,0,0,.36-.05,.24-.04-.04,0-.08,.01-.13,.02-.06,0-.13,.01-.19,.02,0,0-.09,.01-.1,0-.01-.01,.34,0,.21,0-.08,0-.17,0-.25-.01-.06,0-.13-.01-.19-.02-.03,0-.06-.01-.09-.01-.01,0,.29,.07,.18,.03-.14-.05-.28-.08-.42-.12-.03,0-.06-.03-.09-.03,0,0,.23,.12,.13,.06-.06-.04-.13-.07-.2-.1-.12-.07-.23-.15-.34-.23s.15,.15,.06,.05c-.02-.02-.05-.04-.07-.07-.05-.05-.09-.09-.13-.14-.1-.11-.19-.23-.26-.36-.01-.02-.1-.15-.09-.16,.01-.01,.07,.19,.04,.08,0-.03-.03-.06-.04-.09-.06-.13-.1-.27-.14-.42-.04-.13-.06-.27-.08-.4,0-.06,0-.13-.02-.19-.02-.11,0,.1,0,.09-.02-.02,0-.13,0-.16,0-.31,.04-.62,.12-.92,.01-.05,.09-.21,.07-.25,0,0-.08,.2-.04,.1,.02-.04,.03-.08,.05-.12,.06-.15,.13-.29,.21-.43,.04-.06,.08-.13,.12-.19,.14-.21-.16,.18,.01-.01,.1-.11,.2-.21,.3-.32,.11-.11-.24,.18-.11,.1,.03-.02,.07-.05,.1-.08,.02-.01,.17-.13,.18-.12s-.3,.15-.18,.1c.05-.02,.09-.05,.14-.07,.08-.04,.16-.07,.24-.1,.45-.16,1.17-.86,.72-1.36-.49-.55-1.35-.35-1.95-.14h0Z"></path><path class="cls-1" d="M220.15,257.67l-1.16,1.16c-.08,.07-.12,.16-.12,.26-.02,.09,0,.16,.09,.22,.09,.07,.2,.11,.31,.12,.15,.04,.29,.05,.45,.04,.38-.02,.78-.1,1.13-.24l.33-.15c.18-.09,.33-.2,.47-.34l1.16-1.16c.08-.07,.12-.16,.12-.26,.02-.09,0-.16-.09-.22-.09-.07-.2-.11-.31-.12-.15-.04-.29-.05-.45-.04-.38,.02-.78,.1-1.13,.24l-.33,.15c-.18,.09-.33,.2-.47,.34h0Z"></path><path class="cls-1" d="M204.8,276.54v.58c.03,.1,.1,.17,.19,.21,.1,.08,.22,.12,.35,.13,.17,.03,.33,.03,.5,0,.19,0,.39-.04,.57-.09l.38-.13c.21-.08,.41-.2,.6-.34l.19-.19c.1-.11,.13-.23,.11-.38v-.58c-.03-.1-.1-.17-.19-.21-.1-.08-.22-.12-.35-.13-.17-.03-.33-.03-.5,0-.19,0-.39,.04-.57,.09l-.38,.13c-.21,.08-.41,.2-.6,.34l-.19,.19c-.1,.11-.13,.23-.11,.38h0Z"></path><path class="cls-1" d="M186.87,290.68l.58,.58c.09,.09,.2,.15,.33,.18,.15,.06,.3,.08,.46,.08,.19,0,.38-.01,.56-.06,.2-.03,.39-.09,.57-.17l.33-.17c.18-.1,.33-.24,.45-.4l.1-.21c.03-.15,0-.27-.1-.38l-.58-.58c-.09-.09-.2-.15-.33-.18-.15-.06-.3-.08-.46-.08-.19,0-.38,.01-.56,.06-.2,.03-.39,.09-.57,.17l-.33,.17c-.18,.1-.33,.24-.45,.4l-.1,.21c-.03,.15,0,.27,.1,.38h0Z"></path><path class="cls-1" d="M206.55,293.41v1.16c.03,.11,.1,.2,.2,.25,.1,.09,.22,.14,.36,.15,.17,.04,.34,.04,.51,.03,.2,0,.39-.03,.57-.09l.38-.13c.22-.09,.41-.21,.59-.36l.19-.21c.1-.13,.13-.27,.1-.42v-1.16c-.03-.11-.1-.2-.2-.25-.1-.09-.22-.14-.36-.15-.17-.04-.34-.04-.51-.03-.2,0-.39,.03-.57,.09l-.38,.13c-.22,.09-.41,.21-.59,.36l-.19,.21c-.1,.13-.13,.27-.1,.42h0Z"></path><path class="cls-1" d="M222.85,279.45v.58c.03,.08,.09,.12,.17,.14,.11,.05,.22,.07,.34,.06,.16,0,.33,0,.49-.03,.19-.02,.38-.06,.57-.11l.38-.12c.21-.07,.42-.17,.61-.28l.2-.15c.1-.07,.14-.16,.14-.28v-.58c-.03-.08-.09-.12-.17-.14-.11-.05-.22-.07-.34-.06-.16,0-.33,0-.49,.03-.19,.02-.38,.06-.57,.11l-.38,.12c-.21,.07-.42,.17-.61,.28l-.2,.15c-.1,.07-.14,.16-.14,.28h0Z"></path></g><g id="wifi"><g><path class="cls-2" d="M145.1,102.03c-17.69-3.36-36.6,1.55-51.01,12.36-14.4,10.81-24.28,27.22-28.03,44.84-4.62,21.69,.61,46.15,16.62,61.49,16.02,15.34,43.3,18.89,60.81,5.28,1.8,3.6,4.86,6.5,8.46,8.28,4.34,2.14,9.44-1.02,9.46-5.87,.02-4.34-.68-8.68-2.08-12.78,13.57-9.69,25.01-22.76,31.11-38.28,6.1-15.52,6.48-33.55-.63-48.64s-22.11-26.61-38.73-27.89"></path><path class="cls-2" d="M145.34,100.99c-17.48-3.25-35.71,.58-50.5,10.43-13.88,9.25-24.01,23.63-29.12,39.42-4.94,15.26-5.07,32.21,.38,47.36,2.67,7.44,6.74,14.44,12.12,20.26,5.26,5.68,11.71,10,18.86,12.94,13.84,5.69,30.82,6.15,44.04-1.46,1.62-.94,3.18-1.98,4.67-3.12-1.56-.37-3.13-.73-4.69-1.1,3.09,6,10.82,12.49,18,9.84,2.77-1.02,4.7-3.63,4.77-6.59,.11-4.41-.71-8.91-2.11-13.08l-.13,.55c16.44-11.79,29.98-28.7,34.37-48.77,2.26-10.36,2.1-21.37-1-31.54-2.83-9.28-8.21-17.54-15.47-23.96-7.98-7.06-18.21-11.63-28.85-12.5-.61-.05-2.18-.12-2,.88,.17,.92,2.13,1.37,2.83,1.43,17.99,1.47,32.76,15.74,38.28,32.4,6.42,19.38,1.61,40.84-9.75,57.37-6.19,9-14.11,16.7-22.97,23.06-.16,.16-.2,.34-.13,.55,1.12,3.36,1.84,6.85,2.01,10.39,.13,2.68-.04,5.18-2.3,6.96-.72,.57-1.69,1.03-2.62,1.06-.71,.02-1.48-.52-2.19-.98-2.51-1.62-4.55-3.87-5.91-6.52-.67-1.3-3.52-2-4.69-1.1-10.94,8.43-25.92,10.11-38.88,5.83-14.03-4.63-24.53-15.63-30.19-29.1-5.92-14.07-6.72-30.05-3.03-44.8,3.83-15.33,12.31-29.53,24.47-39.69,12.46-10.41,29.1-16.35,45.39-15.1,1.97,.15,3.93,.39,5.87,.75,.61,.11,2.46,.47,2.68-.47s-1.64-1.5-2.19-1.61h0Z"></path></g><g id="wifi-2"><g><path class="cls-4" d="M120.4,182.71c7.17-3.33,16.77-.3,20.88,6.05,4.11,6.35,2.8,15.06-2.47,20.64-1.2,1.28-2.6,2.42-4.2,3.24-3.38,1.74-7.53,1.97-11.29,1.1-3.76-.87-7.17-2.75-10.18-5.01-2.1-1.58-4.14-3.51-4.65-5.96-.28-1.33-.08-2.71,.12-4.05,.4-2.69,.81-5.44,2.1-7.89,1.29-2.45,3.62-4.59,6.53-5.04"></path><path class="cls-4" d="M121.76,183.76c4.77-2.14,10.58-1.31,14.73,1.82,4.6,3.46,6.26,9.45,4.98,14.95-1.4,5.97-6.02,11.42-12.3,12.33-3.36,.49-6.8-.25-9.83-1.7-2.81-1.34-5.91-3.22-7.85-5.72-1.21-1.56-1.46-3.3-1.23-5.23s.55-4.04,1.11-5.98c.99-3.38,3.19-6.6,6.86-7.27,.82-.15,.97-.91,.51-1.51-.54-.7-1.67-1-2.51-.84-3.69,.68-6.46,3.41-7.85,6.81-.76,1.87-1.12,3.87-1.42,5.85-.31,2.02-.69,4.08-.04,6.07,1.19,3.64,4.91,6.13,8.01,8.05,3.47,2.15,7.41,3.66,11.51,3.99,4.08,.33,8.22-.5,11.56-2.96,2.88-2.12,5.09-5.1,6.35-8.45,2.44-6.48,.97-13.85-4.17-18.57-5.51-5.06-14.24-6.84-21.13-3.75-.82,.37-.34,1.27,.15,1.67,.66,.55,1.76,.79,2.56,.43h0Z"></path></g><g><path class="cls-4" d="M160.36,185.41c-8.35-9.15-20.69-15.51-33.67-15.77-12.97-.26-26.24,6.19-32,16.9-4.92-4.2-9.84-8.4-14.76-12.6,3.35-5.67,10.07-8.79,16.4-11.57,8.47-3.72,17.14-7.5,26.46-8.52,14.81-1.62,29.85,4.09,40.92,13.3,.54,.45,1.11,.95,1.28,1.61,.14,.53,0,1.09-.14,1.62-1.38,5.17-3.19,10.24-5.42,15.16"></path><path class="cls-4" d="M161.95,184.41c-7.23-7.85-16.86-13.55-27.41-15.49-10.27-1.88-21.07-.07-29.95,5.52-4.77,3.01-8.79,7.07-11.5,12.03,.98-.39,1.97-.79,2.95-1.18-4.92-4.2-9.84-8.4-14.76-12.6l.03,1.67c3.34-5.51,9.57-8.2,15.24-10.69,6.82-3,13.71-6.04,21.03-7.59,13.71-2.9,27.93,.73,39.5,8.39,1.6,1.06,3.15,2.19,4.64,3.4,.67,.54,1.56,1.06,1.59,2.01s-.54,2.17-.81,3.09c-1.25,4.28-2.84,8.45-4.67,12.51-.35,.78,.13,1.46,.95,1.52,.89,.07,1.89-.61,2.25-1.4,1.75-3.9,3.27-7.89,4.51-11.98,.49-1.61,1.57-3.82,1.16-5.53-.38-1.58-2.19-2.66-3.39-3.58-5.84-4.5-12.54-7.98-19.61-10.1-7.28-2.18-14.98-2.87-22.51-1.75-8.1,1.2-15.75,4.33-23.21,7.59-7.09,3.1-15.23,6.33-19.43,13.26-.34,.55-.54,1.19,.03,1.67,4.92,4.2,9.84,8.4,14.76,12.6,.97,.83,2.5-.35,2.95-1.18,4.28-7.83,12.6-12.81,21.15-14.65,9.57-2.06,19.65-.18,28.23,4.38,4.87,2.59,9.35,6.01,13.09,10.07,1.17,1.27,4.29-.78,3.18-1.98h0Z"></path></g><g><path class="cls-4" d="M174.48,134.96c-1.81,6.24-3.62,12.49-5.43,18.73-12.87-11.46-31.83-15.58-49.7-14.63-14.62,.78-29.67,5-39.81,14.73-2.49,2.39-4.63,5.05-6.77,7.71-.44,.54-.92,1.11-1.62,1.32-1.05,.3-2.11-.33-2.99-.94-5.51-3.77-11.01-7.53-16.52-11.3,4.34-6.33,12.86-13.09,20.06-16.56,9.53-4.6,14.81-8.94,24.95-12.24,9.5-3.09,22.73-2.58,32.8-2.4,11.45,.2,22.47,3.88,32.99,8.05,4.31,1.71,8.71,3.59,11.87,6.78"></path><path class="cls-4" d="M172.73,134.65c-1.81,6.24-3.62,12.49-5.43,18.73l3.14-.8c-12.5-11.03-29.75-15.15-46.09-15.13-16.29,.02-34.37,3.93-46.37,15.69-1.94,1.9-3.72,3.96-5.43,6.07-.41,.51-1.4,2.15-1.92,2.16-.47,.01-1.34-.77-1.68-1.01-.6-.41-1.21-.83-1.81-1.24-4.7-3.22-9.4-6.43-14.1-9.65,.05,.59,.1,1.18,.15,1.77,4.56-6.57,11.44-11.97,18.53-15.59,3.78-1.93,7.51-3.91,11.21-5.98s7.27-3.94,11.13-5.44c7.91-3.07,16.35-3.51,24.75-3.53,4.12,0,8.26,0,12.37,.21,4.75,.24,9.48,1.13,14.07,2.33,5.07,1.32,10.01,3.1,14.89,5,4.55,1.78,9.25,3.58,12.8,7.07,1.3,1.28,4.35-.67,2.78-2.22-3.19-3.14-7.34-5.03-11.44-6.68-4.54-1.82-9.13-3.53-13.82-4.94-4.78-1.44-9.65-2.59-14.61-3.16-4.46-.51-8.97-.49-13.45-.54-8.59-.1-17.63-.09-25.9,2.55s-15.84,7.55-23.73,11.55c-8.62,4.37-17.03,9.98-22.64,18.05-.37,.53-.46,1.35,.15,1.77,4.16,2.85,8.33,5.7,12.49,8.54,1.88,1.28,3.85,3.07,6.01,3.84,2.23,.79,4.13-.19,5.55-1.91,2.93-3.54,5.77-7.09,9.4-9.96,3.18-2.52,6.7-4.54,10.41-6.16,7.64-3.34,16-4.95,24.29-5.46s16.78,.07,24.92,2.04c8.92,2.15,17.43,6.09,24.34,12.18,.84,.74,2.81,.34,3.14-.8,1.81-6.24,3.62-12.49,5.43-18.73,.61-2.11-2.99-2.37-3.5-.62h0Z"></path></g></g><g><path class="cls-1" d="M123.01,179.41c7.17-3.33,16.77-.3,20.88,6.05,4.11,6.35,2.8,15.06-2.47,20.64-1.2,1.28-2.6,2.42-4.2,3.24-3.38,1.74-7.53,1.97-11.29,1.1-3.76-.87-7.17-2.75-10.18-5.01-2.1-1.58-4.14-3.51-4.65-5.96-.28-1.33-.08-2.71,.12-4.05,.4-2.69,.81-5.44,2.1-7.89,1.29-2.45,3.62-4.59,6.53-5.04"></path><path class="cls-4" d="M124.08,179.84c4.78-2.15,10.81-.49,14.77,2.62,4.49,3.53,6.4,9.3,5.34,14.87-1.12,5.9-5.58,12.08-11.95,12.68-3.47,.33-6.93-.67-10.01-2.2-2.78-1.38-5.67-3.24-7.69-5.64-2.67-3.16-1.67-7.52-.76-11.21,.79-3.21,2.63-7.06,6.22-7.73,.44-.08,1.81-.51,1.65-1.17s-1.6-.4-2-.33c-3.66,.67-6.74,3.05-8.36,6.39-.91,1.89-1.34,3.95-1.67,6.01-.32,1.97-.81,4.15-.27,6.12,.97,3.53,4.63,5.95,7.57,7.74,3.49,2.13,7.33,3.52,11.43,3.76,7.98,.46,15.37-3.96,18.43-11.39,2.58-6.29,1.46-13.86-3.73-18.48-5.69-5.06-14.26-6-21.11-2.92-.55,.25-1.05,.76-.42,1.18s1.96-.04,2.56-.31h0Z"></path></g><g><path class="cls-1" d="M162.59,178.28c-8.35-9.15-20.69-15.51-33.67-15.77-12.97-.26-26.24,6.19-32,16.9-4.92-4.2-9.84-8.4-14.76-12.6,3.35-5.67,10.07-8.79,16.4-11.57,8.47-3.72,17.14-7.5,26.46-8.52,14.81-1.62,29.85,4.09,40.92,13.3,.54,.45,1.11,.95,1.28,1.61,.14,.53,0,1.09-.14,1.62-1.38,5.17-3.19,10.24-5.42,15.16"></path><path class="cls-4" d="M164.24,178.14c-14.22-15.45-38.99-21.9-57.68-10.66-4.71,2.83-8.76,6.69-11.4,11.54l3.42,.25c-4.92-4.2-9.84-8.4-14.76-12.6l.12,.55c3.42-5.64,9.66-8.54,15.47-11.11,6.82-3.02,13.7-6.07,21-7.73,13.71-3.13,27.8,.51,39.3,8.35,1.58,1.08,3.13,2.22,4.58,3.46,.84,.72,1.24,1.31,1.03,2.45-.19,1.05-.57,2.11-.87,3.13-1.27,4.24-2.83,8.39-4.65,12.43-.29,.64,3.24,1.52,3.72,.45,1.75-3.89,3.27-7.89,4.51-11.98,.45-1.48,1.61-3.79,.88-5.31-.68-1.42-2.52-2.47-3.74-3.38-5.9-4.42-12.6-7.83-19.68-9.89-7.34-2.14-15.12-2.95-22.72-1.89-8.06,1.12-15.65,4.1-23.07,7.32-6.96,3.03-15.18,6.08-19.32,12.89-.14,.22-.08,.37,.12,.55,4.92,4.2,9.84,8.4,14.76,12.6,.52,.44,2.97,1.08,3.42,.25,4.39-8.04,12.59-13.37,21.36-15.53,9.47-2.33,19.29-.55,27.83,4,4.89,2.61,9.3,6.07,13.05,10.15,.52,.57,1.81,.63,2.52,.55,.51-.06,1.32-.26,.78-.85h0Z"></path></g><g><path class="cls-1" d="M176.71,127.84c-1.81,6.24-3.62,12.49-5.43,18.73-12.87-11.46-31.83-15.58-49.7-14.63-14.62,.78-29.67,5-39.81,14.73-2.49,2.39-4.63,5.05-6.77,7.71-.44,.54-.92,1.11-1.62,1.32-1.05,.3-2.11-.33-2.99-.94-5.51-3.77-11.01-7.53-16.52-11.3,4.34-6.33,12.86-13.09,20.06-16.56,9.53-4.6,14.81-8.94,24.95-12.24,9.5-3.09,22.73-2.58,32.8-2.4,11.45,.2,22.47,3.88,32.99,8.05,4.31,1.71,8.71,3.59,11.87,6.78"></path><path class="cls-4" d="M174.93,127.35c-1.81,6.24-3.62,12.49-5.43,18.73l2.87-.53c-12.52-11.05-29.8-15.32-46.19-15.3s-34.2,3.82-46.17,15.57c-1.95,1.91-3.7,4-5.41,6.11-.43,.53-1.39,2.26-2.18,2.28-.45,.01-1.22-.67-1.54-.89-.6-.41-1.21-.83-1.81-1.24-4.7-3.22-9.4-6.43-14.1-9.65l.58,1.88c4.57-6.58,11.58-12,18.67-15.62,3.78-1.93,7.51-3.91,11.21-5.98,3.61-2.02,7.27-3.94,11.13-5.44,7.96-3.09,16.42-3.6,24.88-3.62,4.12,0,8.26,0,12.37,.21,4.77,.24,9.47,1.08,14.08,2.28,5.06,1.32,10.01,3.06,14.88,4.96,4.51,1.75,9.19,3.54,12.7,6.99,.61,.6,1.87,.77,2.52,.15,.73-.69,.24-1.63-.34-2.2-3.22-3.16-7.37-5.08-11.51-6.74-4.55-1.83-9.15-3.56-13.84-4.99-4.78-1.46-9.67-2.59-14.64-3.19-4.45-.54-8.96-.51-13.44-.57-8.58-.1-17.59-.11-25.85,2.5-8.48,2.68-15.79,7.52-23.66,11.51-8.62,4.37-16.9,9.96-22.49,18.02-.39,.57,.08,1.54,.58,1.88,4.16,2.85,8.33,5.7,12.49,8.54,1.93,1.32,3.92,3.08,6.12,3.93,2.25,.87,3.91,0,5.33-1.76,2.88-3.56,5.82-7.05,9.42-9.91,3.19-2.53,6.75-4.56,10.48-6.19,7.69-3.36,16.1-5.03,24.45-5.56,8.32-.53,16.78,.04,24.89,1.99,8.88,2.14,17.34,5.98,24.23,12.06,.91,.81,2.5,.75,2.87-.53,1.81-6.24,3.62-12.49,5.43-18.73,.51-1.76-2.99-2.96-3.57-.97h0Z"></path></g><g><path class="cls-1" d="M125.95,96.84c-2.45,40.79-4.47,81.59-6.06,122.42,3.89-1.07,7.91-1.73,11.95-1.97,1.85-40.31,3.69-80.63,5.54-120.94-3.74-.12-7.47-.24-11.21-.36"></path><path class="cls-4" d="M124.29,95.96c-1.91,31.83-3.57,63.68-4.95,95.54-.39,8.96-.76,17.92-1.11,26.88-.02,.62,2.66,1.96,3.21,1.81,3.91-1.06,7.91-1.71,11.95-1.97l.1-.04c1.44-31.52,2.89-63.04,4.33-94.56,.4-8.79,.81-17.59,1.21-26.38,.03-.73-2.61-1.79-3.21-1.81-3.74-.12-7.47-.24-11.21-.36-.39-.01,.92,.92,.97,.95,.6,.36,1.41,.88,2.13,.9,3.74,.12,7.47,.24,11.21,.36-1.07-.6-2.14-1.21-3.21-1.81-.79,17.34-1.59,34.67-2.38,52.01s-1.59,34.67-2.38,52.01c-.22,4.81-.44,9.62-.66,14.43-.02,.53,.11,1.49-.09,1.99-.26,.65-.98,.53-1.56,.58-1.16,.1-2.33,.24-3.48,.41-2.31,.34-4.59,.83-6.84,1.44,1.07,.6,2.14,1.21,3.21,1.81,1.24-31.86,2.74-63.72,4.51-95.55,.5-8.96,1.01-17.91,1.55-26.86,.05-.87-3.31-1.73-3.3-1.77h0Z"></path></g></g></svg>