<svg transform="scale(1)" id="_0971_Page_Not_Found_5" xmlns="http://www.w3.org/2000/svg" viewBox="0 0 500 500" class="show_show__wrapper__graphic__5Waiy "><title>React</title><defs><style>.cls-1{fill:#fff;}.cls-2{fill:#0a0a0a;}.cls-3{opacity:.22;}.cls-4{opacity:.11;}.cls-5{fill:#a0a09c;}</style></defs><g id="ufo"><path class="cls-5" d="M251.79,71.8c.35-11.26,.7-22.52,1.06-33.78,.08-2.56-4.55-4.12-4.64-1.14-.35,11.26-.7,22.52-1.06,33.78-.08,2.56,4.55,4.12,4.64,1.14h0Z"></path><g><path class="cls-2" d="M172.34,130.7c2.88-25.77,20.9-48.83,44.45-59.69,23.55-10.86,51.76-9.96,75.5,.5,5.78,2.55,11.39,5.67,16.04,9.96,11.15,10.28,15.49,25.8,19.33,40.47"></path><path class="cls-2" d="M174.23,131.73c1.47-12.85,6.74-25.05,14.64-35.25,8.03-10.37,18.57-18.69,30.6-23.93,13.72-5.98,29.09-8,43.93-6.44,7.53,.79,14.96,2.47,22.1,4.97,7.02,2.46,14.1,5.67,19.92,10.36,10.94,8.8,15.53,22.57,19.1,35.65,.45,1.66,.89,3.33,1.33,5,.27,1.03,1.27,2.33,2.46,2.21,1.23-.12,1.37-1.58,1.13-2.52-3.67-14.02-7.79-28.79-17.91-39.67-5.36-5.76-12.18-9.79-19.34-12.91-7.23-3.15-14.82-5.46-22.59-6.82-15.39-2.69-31.4-1.77-46.22,3.3-13.21,4.52-25.11,12.55-34.33,23.03-8.95,10.19-15.36,22.65-17.88,36.01-.31,1.64-.55,3.28-.74,4.93-.14,1.2,.49,2.58,1.58,3.16,.97,.52,2.06,.05,2.2-1.1h0Z"></path></g><g><path class="cls-2" d="M251.07,24.48c-4.19,1.35-8.24,3.7-10.65,7.39-2.41,3.69-2.82,8.88-.17,12.4,2.4,3.2,6.91,4.42,10.79,3.44,3.88-.98,7.1-3.87,9.08-7.35,.92-1.61,1.61-3.43,1.42-5.27-.29-2.68-2.37-4.78-4.41-6.55-1.72-1.49-3.65-2.99-5.93-3.15-2.27-.16-4.8,1.7-4.45,3.95"></path><path class="cls-2" d="M249.23,22.78c-5.31,1.75-10.67,5.18-12.21,10.89-.7,2.57-.58,5.46,.67,7.85,1.41,2.7,4.15,5.18,6.76,6.69,4.8,2.79,10.57,1.47,14.46-2.24,2.06-1.97,4.02-4.73,4.42-7.61,.43-3.07-1.48-5.53-3.49-7.6-1.37-1.42-2.84-2.74-4.37-3.98-1.36-1.1-2.84-2.24-4.54-2.78-2.54-.81-6.34,.44-6.03,3.66,.06,.66,1.2,1.48,1.65,1.9s.87,.8,1.35,1.14c.06,.04,.67,.41,.67,.36-.2-2.12,1.7-3.69,3.67-3.93s4.25,1.03,5.63,2.48c3.8,3.96,.85,9.5-2.38,12.72-3.17,3.16-7.72,4.89-12.13,3.55-.53-.16-1.05-.36-1.54-.61-.22-.11-.42-.24-.64-.35-1.1-.59,1.02,1.36,.64,.59-.55-1.08-1.09-1.99-1.35-3.21-.47-2.23-.14-4.61,.73-6.71,2.01-4.88,6.89-7.81,11.7-9.39,.12-.04-1.51-1.77-1.65-1.9-.31-.29-1.51-1.67-2.02-1.5h0Z"></path></g><g class="cls-3"><path class="cls-5" d="M172.34,130.7c2.88-25.77,20.9-48.83,44.45-59.69,23.55-10.86,51.76-9.96,75.5,.5,5.78,2.55,11.39,5.67,16.04,9.96,11.15,10.28,15.49,25.8,19.33,40.47"></path><path class="cls-5" d="M174.03,132.16c1.48-12.94,6.83-25.21,14.72-35.52,7.97-10.4,18.62-18.8,30.61-24.09,13.78-6.09,29.16-8.13,44.11-6.69,7.55,.73,15.01,2.38,22.18,4.86,7.06,2.44,14.2,5.59,20.1,10.24,11,8.67,15.49,22.45,19.04,35.47,.45,1.66,.89,3.33,1.33,5,.25,.95,1.24,2.37,2.26,2.6,1.12,.25,.99-.89,.8-1.62-3.68-14.05-7.85-28.83-17.95-39.77-5.37-5.81-12.1-9.89-19.28-13.09s-14.74-5.51-22.46-6.9c-15.31-2.75-31.19-1.93-45.97,3.04-13.24,4.46-25.13,12.39-34.36,22.89-8.91,10.14-15.26,22.4-17.77,35.7-.31,1.64-.55,3.28-.74,4.93-.13,1.1,.78,2.39,1.57,3.06,.56,.48,1.67,.99,1.8-.14h0Z"></path></g><g class="cls-3"><path class="cls-5" d="M251.07,24.48c-4.19,1.35-8.24,3.7-10.65,7.39-2.41,3.69-2.82,8.88-.17,12.4,2.4,3.2,6.91,4.42,10.79,3.44,3.88-.98,7.1-3.87,9.08-7.35,.92-1.61,1.61-3.43,1.42-5.27-.29-2.68-2.37-4.78-4.41-6.55-1.72-1.49-3.65-2.99-5.93-3.15-2.27-.16-4.8,1.7-4.45,3.95"></path><path class="cls-5" d="M249.1,23.08c-5.3,1.75-10.73,5.2-12.35,10.87-.77,2.7-.68,5.58,.54,8.13,1.32,2.77,3.99,4.81,6.73,6.04,5.43,2.46,11.27,1.35,15.48-2.85,2.02-2.01,3.84-4.72,4.2-7.6,.4-3.17-1.6-5.77-3.75-7.87-2.62-2.55-5.89-5.21-9.61-5.78-2.69-.41-6.1,1.14-5.79,4.29,.09,.93,1.63,1.71,2.36,2.05,.33,.15,2.11,.88,2.03-.01-.2-2.04,1.97-3.69,3.91-3.52,.78,.07,1.34,.47,1.94,.94,.94,.74,1.86,1.55,2.66,2.45,1.72,1.92,2.36,4.21,1.51,6.7-.75,2.18-2.17,4.21-3.79,5.83-2.77,2.77-7.6,5.05-11.5,3.3-1.53-.69-2.42-2.58-2.79-4.17-.5-2.2-.25-4.51,.57-6.59,1.95-4.92,6.76-7.82,11.58-9.41,.87-.29-.76-1.6-.99-1.77-.7-.5-2.02-1.35-2.95-1.04h0Z"></path></g><g><ellipse class="cls-2" cx="250" cy="139.52" rx="176.57" ry="39.87"></ellipse><path class="cls-2" d="M424.29,139.95c0,.52-.04,1.04-.13,1.55-.04,.26-.1,.51-.16,.77-.11,.46,.05-.03-.18,.57-.2,.52-.43,1.02-.69,1.51s.07-.07-.19,.34c-.18,.28-.36,.55-.56,.82-1.52,2.08-3.71,3.88-5.89,5.34-7.17,4.81-15.54,7.8-23.89,10.39-11.91,3.7-24.18,6.24-36.46,8.32-15.34,2.6-30.81,4.38-46.31,5.63-35.63,2.88-71.57,3.05-107.25,.77-29.18-1.87-58.72-5.12-87-12.8-9.23-2.51-18.59-5.45-27.01-10.06-2.95-1.61-5.83-3.45-8.3-5.74-.94-.87-1.67-1.65-2.45-2.75-.34-.48-.66-.98-.94-1.5-.13-.25-.26-.5-.38-.75-.16-.35-.24-.56-.26-.64-.16-.47-.29-.96-.37-1.46-.05-.26-.08-.51-.1-.77-.01-.13-.04-.93-.04-.54,0-.52,.06-1.04,.16-1.55,.16-.86,.09-.64,.37-1.34,.57-1.39,.68-1.57,1.5-2.66,.97-1.29,1.29-1.6,2.6-2.76,2.27-2.01,5.07-3.75,8.17-5.38,3.58-1.89,7.89-3.65,11.92-5.11,10.87-3.93,22.18-6.62,33.51-8.84,14.61-2.87,29.39-4.87,44.21-6.35,35.55-3.56,71.46-4.21,107.13-2.53,30.44,1.43,61.15,4.37,90.87,11.38,10.22,2.41,20.45,5.29,30.07,9.58,5.8,2.58,12.45,5.99,16.09,11.22,1.31,1.89,1.97,3.48,1.99,5.82,.01,1.22,1.83,1.1,2.57,.83,1.12-.42,2.01-1.4,2-2.61-.05-5.62-4.69-10.02-8.96-13.01-7.27-5.09-15.92-8.3-24.32-10.97-12.19-3.88-24.75-6.56-37.34-8.73-15.64-2.69-31.42-4.54-47.23-5.84-36.65-3-73.62-3.19-110.32-.74-29.58,1.98-59.59,5.3-88.21,13.36-9.48,2.67-19,5.82-27.59,10.72-5.21,2.97-11.11,7.13-13.12,13.09-1.79,5.32,.72,10.16,4.55,13.83,5.65,5.41,13.38,8.71,20.59,11.44,11.08,4.19,22.67,7.03,34.27,9.36,14.94,3.01,30.06,5.1,45.21,6.65,36.34,3.71,73.05,4.41,109.53,2.66,31.1-1.49,62.51-4.51,92.83-11.84,10.39-2.51,20.84-5.5,30.56-10.03,6.25-2.92,13.23-6.64,17.14-12.56,1.36-2.06,2.37-4.42,2.4-6.93,.02-2.75-4.54-1.25-4.56,.84Z"></path></g><g><ellipse class="cls-5" cx="250" cy="146.27" rx="61.66" ry="16.56"></ellipse><path class="cls-5" d="M309.18,145.94c0,.44-.07,.86-.18,1.28-.08,.32,0-.02,.02-.07-.05,.13-.1,.26-.16,.38-.1,.21-.21,.42-.33,.62-.13,.21-.27,.42-.41,.62-.3,.41,.26-.29-.09,.1-.07,.08-.14,.16-.22,.24-.42,.44-.87,.86-1.34,1.24-.95,.76-1.95,1.37-3.27,2.05-1.47,.76-3.07,1.45-4.55,1.99-8.96,3.28-18.6,4.75-28.06,5.67-12.22,1.19-24.59,1.33-36.84,.42-10.02-.74-20.2-2.05-29.82-5.07-3.4-1.07-6.21-2.11-9.13-3.93-.29-.18-.58-.37-.86-.56-.36-.24-.09-.06-.01,0-.15-.11-.3-.23-.45-.35-.46-.37-.89-.76-1.3-1.18-.1-.1-.19-.2-.28-.3-.21-.24,.29,.39-.01-.02-.15-.2-.3-.4-.43-.61-.13-.2-.24-.41-.35-.62-.05-.09-.12-.33,.03,.07-.05-.12-.1-.25-.14-.38-.06-.21-.11-.42-.15-.64-.02-.11-.03-.21-.04-.32-.03-.27,0,.45,0,.02s.07-.86,.18-1.28-.16,.36,.02-.06c.04-.08,.07-.17,.11-.25,.11-.21,.21-.42,.33-.62s.27-.42,.41-.62c.21-.28,.03-.03-.02,.02,.12-.14,.25-.28,.37-.42,.85-.91,1.85-1.65,2.63-2.14,1.35-.85,2.79-1.56,4.26-2.2,8.07-3.51,17.31-5.05,26.07-6.11,12.1-1.46,24.38-1.8,36.55-1.16,10.49,.55,21.13,1.71,31.29,4.48,3.54,.97,7.24,2.19,10.21,3.72,.66,.34,1.31,.7,1.94,1.1,.26,.16,.52,.33,.78,.51,.09,.06,.45,.32,.1,.06,.15,.11,.3,.23,.45,.35,.46,.37,.89,.76,1.3,1.18,.08,.08,.15,.16,.22,.24,.35,.39-.18-.23,.02,.02,.17,.22,.33,.44,.48,.67,.13,.2,.24,.41,.35,.62,.2,.41-.1-.28,0,0,.04,.1,.08,.21,.11,.32,.06,.21,.11,.42,.15,.64,.02,.08,.02,.17,.04,.26,.07,.44,0-.4,0,.04,.02,1.22,1.13,1.92,2.25,2.06,.84,.11,2.72-.2,2.71-1.41-.09-6.08-7.5-9.35-12.26-11.23-9.48-3.74-19.89-5.33-29.97-6.35-13.02-1.31-26.21-1.44-39.26-.45-10.68,.82-21.59,2.25-31.78,5.66-3.39,1.13-6.81,2.47-9.79,4.47-2.18,1.47-4.33,3.32-5.04,5.96-1.49,5.55,5.23,9.46,9.34,11.34,8.85,4.04,18.73,5.82,28.32,7.02,12.88,1.62,25.98,1.95,38.94,1.25,11.16-.6,22.49-1.9,33.26-4.97,3.8-1.08,7.63-2.39,11.1-4.3,2.39-1.31,4.89-3,6.27-5.42,.51-.9,.85-1.95,.87-2.99,.02-1.22-1.15-1.92-2.25-2.06-.87-.11-2.69,.2-2.71,1.41Z"></path></g><path class="cls-5" d="M88.89,145.28c-1.55-.44-2.06-2.76-2.19-4.12-.19-1.81,.08-3.79,.97-5.4,2.52-4.57,8.72-5.17,13.27-6.21,11.71-2.69,23.49-5.08,35.33-7.17,23.71-4.19,47.64-7.13,71.65-8.84,23.99-1.7,48.08-2.13,72.12-1.28,23.79,.84,47.55,2.9,71.11,6.27,11.07,1.58,22.12,3.51,32.87,6.62,5.58,1.61,11.07,3.52,16.41,5.82,2.63,1.13,5.22,2.36,7.76,3.68,2.07,1.08,4.24,2.36,4.98,4.74,.29,.95,.26,2,0,2.96-.11,.39-.25,.79-.45,1.14-.35,.62-1.29,1.01-.15,1.06l2.41,.38-.31-.08c-1.11-.3-2.37-.53-3.52-.35-.77,.12-1.03,.49-.08,.75,1.78,.49,4.7,1.13,6.11-.5,1.39-1.61,1.47-4.03,.55-5.87-1.01-2.02-2.98-3.18-4.91-4.2-2.72-1.42-5.5-2.73-8.32-3.94-11.07-4.75-22.75-7.92-34.56-10.22-24.83-4.84-50.3-7.23-75.53-8.7-25.64-1.49-51.36-1.55-77-.19-25.82,1.37-51.56,4.15-77.07,8.36-12.72,2.1-25.39,4.53-37.97,7.32-3.15,.7-6.3,1.41-9.44,2.15-2.25,.53-4.56,1.06-6.6,2.21-3.78,2.15-5.63,6.68-4.2,10.86,.54,1.59,1.55,2.68,3.18,3.15,1.1,.31,2.37,.53,3.52,.35,.78-.12,1.02-.48,.08-.75h0Z"></path><path class="cls-1" d="M246.12,29.61c-4.78,.42-7.54,6.1-5.23,10.22,.55,.99,1.66,1.96,2.82,2.14,.37,.05,.84,.1,1.1-.24,.24-.32,.11-.82-.06-1.13-.08-.14-.16-.48-.28-.58,.11,.09,.13,.37,.02,.04-.03-.08-.05-.17-.07-.25-.05-.19-.09-.37-.11-.56-.01-.1-.02-.21-.04-.31,.05,.39,0,.05,0-.04,0-.82,.16-1.62,.46-2.38l-.12,.31c.46-1.13,1.18-2.12,2.15-2.86l-.27,.2c.38-.28,.79-.52,1.22-.7,.21-.09,.43-.15,.65-.21,.31-.09-.26,.03,.04,0,.14-.02,.28-.04,.43-.05,1.1-.1,.77-1.25,.29-1.87-.39-.5-.89-.96-1.46-1.26-.46-.24-1-.5-1.53-.46h0Z"></path><path class="cls-1" d="M239.42,70.47c-9.85-1.46-20,1.99-26.61,9.51-.24,.27,2.04,1.17,2.22,1.23,.44,.15,2.09,.88,2.5,.41,6.12-6.96,15.8-10.78,25.03-9.42,.85,.13,.93-.15,.2-.58-.97-.57-2.22-.99-3.34-1.16h0Z"></path><path class="cls-1" d="M206.52,83.72l-4.02,4.02c-.26,.26-.18,.68-.1,.99,.15,.55,.49,1.14,.84,1.58s.77,.95,1.29,1.25c.23,.13,.73,.43,.98,.18,1.34-1.34,2.68-2.68,4.02-4.02,.26-.26,.18-.68,.1-.99-.15-.55-.49-1.14-.84-1.58s-.77-.95-1.29-1.25c-.23-.13-.73-.43-.98-.18h0Z"></path></g><g id="light"><path class="cls-1" d="M193.72,141.78c-19.24,35.87-37.73,72.14-55.42,108.79-17.6,36.45-34.42,73.27-50.44,110.43-3.82,8.86-7.82,17.78-9.77,27.27-1.81,8.81-1.57,17.7,1.48,26.21,5.78,16.08,19.13,28.07,33.91,35.88,8.09,4.27,16.68,7.49,25.38,10.29,9.28,2.99,18.71,5.55,28.22,7.72,19.15,4.38,38.67,7.11,58.28,8.25,19.67,1.15,39.45,.65,59.03-1.49s38.66-5.68,57.3-11.38c17.94-5.48,35.68-12.76,51.48-22.98,13.12-8.48,26.2-20.17,30.54-35.74,2.39-8.59,1.43-17.13-1.44-25.48-2.33-6.76-5.37-13.28-8.13-19.87-2.73-6.52-5.64-12.96-8.56-19.4-9.2-20.29-18.69-40.44-28.2-60.58-11.02-23.35-22.12-46.67-33.23-69.99-8.9-18.69-17.83-37.36-26.68-56.08-1.41-2.99-2.82-5.97-4.22-8.96-.94-2-9.32,.98-8.69,2.33,7.61,16.23,15.35,32.4,23.06,48.58,10.76,22.57,21.51,45.14,32.22,67.73,10.19,21.5,20.34,43.01,30.32,64.6,7.45,16.14,14.84,32.34,21.49,48.84,3.39,8.41,5.93,17.32,4.3,26.44-1.37,7.6-5.13,14.6-9.94,20.56-10.38,12.85-25.52,21.41-40.32,28.16-16.37,7.46-33.75,12.54-51.39,15.95-18.73,3.62-37.8,5.55-56.88,5.87-38.41,.65-77.15-4.98-113.63-17.11-16.55-5.5-33.14-13.24-44.83-26.59-5.34-6.09-9.54-13.34-11.73-21.16-2.45-8.73-1.91-17.74,.44-26.43,2.55-9.41,6.71-18.33,10.58-27.25,4-9.23,8.05-18.45,12.15-27.64,8.11-18.18,16.4-36.28,24.89-54.29,17.07-36.22,34.9-72.09,53.48-107.56,4.47-8.53,8.98-17.04,13.53-25.52,.72-1.34-3.05-.8-3.45-.73-1.44,.26-4.32,.83-5.11,2.31h0Z"></path><path class="cls-2" d="M196.57,141.26c-19.24,35.87-37.73,72.14-55.42,108.79-17.6,36.45-34.42,73.27-50.44,110.43-3.82,8.86-7.81,17.78-9.77,27.27-1.8,8.71-1.49,17.55,1.52,25.95,5.75,16.02,19.02,27.9,33.75,35.68,8.1,4.28,16.71,7.5,25.42,10.29,9.16,2.93,18.45,5.45,27.82,7.6,18.99,4.34,38.34,7.07,57.78,8.2,38.21,2.23,77.53-1.36,114.22-12.57,17.26-5.27,34.3-12.36,49.5-22.18,12.91-8.35,25.63-19.85,29.9-35.16,2.37-8.5,1.35-16.97-1.49-25.22-2.33-6.76-5.37-13.28-8.13-19.87-2.73-6.52-5.64-12.96-8.56-19.4-9.2-20.29-18.69-40.44-28.2-60.58-11.02-23.35-22.12-46.67-33.23-69.99-8.9-18.69-17.83-37.36-26.68-56.08-1.41-2.99-2.82-5.97-4.22-8.96-.3-.64-3.09,.37-2.9,.78,7.61,16.23,15.35,32.4,23.06,48.58,10.76,22.57,21.51,45.14,32.22,67.73,10.19,21.5,20.34,43.01,30.32,64.6,7.45,16.14,14.84,32.34,21.49,48.84,3.39,8.4,5.87,17.21,4.32,26.32-1.32,7.75-5.1,14.87-10.01,20.94-10.7,13.25-26.25,22.07-41.52,29.03-17.08,7.79-35.2,13.08-53.6,16.64-19.17,3.71-38.69,5.66-58.21,5.99-38.68,.66-77.81-4.99-114.52-17.3-16.65-5.58-33.38-13.35-45.06-26.91-5.26-6.11-9.44-13.25-11.62-21.04-2.47-8.81-1.89-17.92,.48-26.69,2.55-9.41,6.71-18.33,10.58-27.25,4-9.23,8.05-18.45,12.15-27.64,8.11-18.18,16.4-36.28,24.89-54.29,17.07-36.22,34.9-72.09,53.48-107.56,4.47-8.53,8.98-17.04,13.53-25.52,.15-.28-2.47-.17-2.85,.54h0Z"></path><path class="cls-2" d="M118.64,334.23c4.29-13.4,9.77-26.39,16.39-38.81,.24-.46-1.02-.28-1.15-.26-.48,.08-1.44,.28-1.7,.78-6.61,12.42-12.1,25.41-16.39,38.81-.17,.52,2.62,.21,2.86-.52h0Z"></path><path class="cls-2" d="M181.01,194.66c-4.14,7.37-7.93,14.93-11.37,22.66-.32,.72,2.5,.43,2.88-.42,3.44-7.72,7.23-15.28,11.37-22.66,.31-.55-1.01-.51-1.21-.48-.61,.08-1.35,.34-1.67,.9h0Z"></path><path class="cls-2" d="M345.94,255.73c8.59,14.83,15.85,30.39,21.71,46.5,.48,1.32,3.37,.51,2.9-.78-5.92-16.28-13.28-32.01-21.96-47-.66-1.13-3.42-.04-2.65,1.28h0Z"></path><path class="cls-2" d="M325.93,215.05c4.21,6.9,8.41,13.8,12.62,20.7,.64,1.06,3.42,0,2.66-1.25-4.21-6.9-8.41-13.8-12.62-20.7-.64-1.06-3.42,0-2.66,1.25h0Z"></path></g><g id="cropped-paper"><g><path class="cls-1" d="M287.36,219.81c-7.11,.56-14.03-2.32-20.29-5.74-6.26-3.42-12.25-7.48-19.05-9.65-2.03-.65-4.11-1.12-6.14-1.77-1.29-.41-4.53-2.57-5.67-2.48-4.05,.31,.13,7.71,2.11,7.68-3.33,.05-6.65,.95-9.56,2.58,1.28,2.38,2.55,4.75,3.83,7.13-2.05,.62-4.1,1.23-6.15,1.85,1.67,2.01,2.77,4.5,3.13,7.09-1.65,.71-3.48,1-5.27,.83-.22,2.29,.68,4.67,2.36,6.25-2.39,1.51-5.22,2.3-8.04,2.25,1.36,2.74,2.72,5.47,4.09,8.21-2.71,.48-5.42,.95-8.13,1.43,1.67,1.84,2.93,4.06,3.63,6.45-2.52,.99-5.21,1.54-7.92,1.62,1.67,2.3,2.85,4.94,3.45,7.71-2.21,.16-4.42,.31-6.64,.47,2.91,1.97,4.85,5.3,5.13,8.8-2.43-.76-5.03-1-7.56-.71,18.42,17.91,43.65,28.63,69.32,29.47,5.82-26.44,13.99-52.37,24.37-77.37-2.15-.17-4.31-.35-6.46-.52"></path><path class="cls-5" d="M288,219.28c-11.86,.81-21.82-7.56-31.84-12.54-2.45-1.22-4.97-2.27-7.59-3.05-2.41-.72-4.87-1.18-7.1-2.36-1.4-.74-2.96-1.81-4.61-1.68-1.29,.1-3.27,.59-3.69,2s.39,3.1,1.12,4.28,1.66,2.38,3.09,2.46c.64-.36,1.27-.72,1.91-1.09-4.07,.11-8.04,1.17-11.61,3.13-.04,.02-.43,.25-.35,.38,1.28,2.38,2.55,4.75,3.83,7.13,.45-.26,.9-.51,1.35-.77-2.05,.62-4.1,1.23-6.15,1.85-.1,.03-1.56,.5-1.35,.77,1.67,2.07,2.73,4.46,3.13,7.09l.63-.52c-1.04,.42-2.14,.51-3.25,.43-.53-.04-2.6,.16-2.65,.91-.17,2.42,.72,4.63,2.44,6.33l.27-.47c-1.88,1.15-3.79,1.71-5.99,1.7-.28,0-2.64,.44-2.4,.93,1.36,2.74,2.72,5.47,4.09,8.21,.58-.29,1.16-.57,1.74-.86-2.71,.48-5.42,.95-8.13,1.43-.04,0-2,.57-1.74,.86,1.67,1.88,2.89,4.04,3.63,6.45l.97-.65c-2.1,.8-4.24,1.26-6.49,1.34-.24,0-2.69,.53-2.4,.93,1.66,2.34,2.81,4.92,3.45,7.71l2.09-.91c-2.21,.16-4.42,.31-6.64,.47-.26,.02-2.49,.67-2.01,1,2.9,2.03,4.71,5.19,5.05,8.71,.88-.3,1.77-.61,2.65-.91-2.65-.79-5.37-.99-8.12-.7-.28,.03-2.47,.56-2.01,1,14.49,14.03,33.05,23.64,52.82,27.59,5.58,1.11,11.23,1.75,16.91,1.95,.45,.02,2.25-.24,2.38-.82,4.54-20.57,10.48-40.82,17.78-60.57,2.09-5.64,4.29-11.24,6.59-16.8,.07-.16-.07-.24-.22-.25-2.15-.17-4.31-.35-6.46-.52-.68-.05-1.4,.11-2.02,.4-.17,.08-1.04,.61-.38,.66,2.15,.17,4.31,.35,6.46,.52l-.22-.25c-8.06,19.46-14.81,39.45-20.14,59.83-1.52,5.82-2.93,11.67-4.23,17.55l2.38-.82c-19.95-.69-39.57-7.36-55.95-18.74-4.6-3.2-8.93-6.77-12.96-10.66l-2.01,1c2.38-.25,4.71,.03,7,.71,.44,.13,2.71-.26,2.65-.91-.35-3.6-2.25-6.81-5.21-8.89-.67,.33-1.34,.67-2.01,1,2.21-.16,4.42-.31,6.64-.47,.3-.02,2.22-.37,2.09-.91-.64-2.79-1.79-5.38-3.45-7.71-.8,.31-1.6,.62-2.4,.93,3.21-.13,6.36-.76,9.36-1.9,.16-.06,1.06-.34,.97-.65-.75-2.4-1.96-4.56-3.63-6.45l-1.74,.86c2.71-.48,5.42-.95,8.13-1.43,.11-.02,1.93-.46,1.74-.86-1.36-2.74-2.72-5.47-4.09-8.21l-2.4,.93c3.54,.01,7.07-.95,10.09-2.8,.16-.1,.48-.27,.27-.47-1.65-1.63-2.44-3.85-2.28-6.16l-2.65,.91c2.53,.18,4.94-.28,7.29-1.22,.16-.06,.67-.27,.63-.52-.41-2.63-1.47-5.02-3.13-7.09-.45,.26-.9,.51-1.35,.77,2.05-.62,4.1-1.23,6.15-1.85,.14-.04,1.52-.44,1.35-.77-1.28-2.38-2.55-4.75-3.83-7.13l-.35,.38c2.34-1.28,4.84-1.96,7.51-2.03,.65-.02,1.52-.15,2.05-.55,.41-.31,.45-.5-.14-.54-.76-.04-1.82-1.68-2.22-2.36-.6-1.02-1.26-2.38-1.09-3.6,.04-.26,.18-.45,.23-.7,.07-.29,.78-.4-.33-.08-.98,.29-.5,.08-.21,.24,.69,.4,1.52,.66,2.24,1.04,1.64,.86,3.18,1.48,4.97,1.98,5.06,1.4,9.69,3.3,14.29,5.85,4.49,2.5,8.85,5.27,13.55,7.38,5.07,2.27,10.42,3.66,16,3.28,.49-.03,1.66-.21,1.95-.67s-.26-.41-.66-.38h0Z"></path></g><path class="cls-5" d="M244.42,238.19c-3.35,1.82-6.81,3.42-10.37,4.8-.36,.14-.94,.43-.9,.9,.14,1.52,2.42,1.86,3.55,2.19,1.87,.56,3.73,1.11,5.6,1.67,.67,.2,1.45,.04,2.04-.3,.3-.17,.96-.81,.29-1.01-1.73-.51-3.46-1.03-5.19-1.54-.77-.23-1.58-.42-2.33-.71-.52-.2-1-.46-1.06-1.07l-.9,.9c3.78-1.47,7.46-3.19,11.02-5.12,.36-.2,.89-.75,.29-1.01s-1.5,0-2.04,.3h0Z"></path><path class="cls-5" d="M246.7,241.45c-1.73,2.55-3.52,5.05-5.39,7.49-.91,1.19-1.83,2.36-2.76,3.52-.5,.62-1,1.23-1.51,1.84-.24,.29-.48,.57-.72,.86-.12,.14-.24,.28-.36,.43-.23,.27-.64,.47,.05,.25,.56-.08,1.13-.16,1.69-.25l-.15-.04,.25,.16c-.09-.08-.18-.04-.25,.12l-2.05,.55h.06c-.17-.06-.34-.12-.5-.18l.03,.07c.24,.65,3.1-.25,2.9-.78l-.03-.07c-.06-.17-.38-.18-.5-.18-.56,0-2.51,.23-2.59,1.05-.09,.9,2.24,.14,2.62-.04,.87-.4,1.45-1.33,2.05-2.05,.72-.86,1.43-1.72,2.13-2.59,2.77-3.45,5.4-7.02,7.89-10.69,.28-.42-1.05-.26-1.15-.24-.53,.1-1.37,.28-1.7,.77h0Z"></path><path class="cls-5" d="M256.2,243.16c-2.97,.83-5.55,2.67-7.3,5.21-.78,1.13-1.36,2.42-1.7,3.75-.35,1.35-.66,3.24,.4,4.37,1.11,1.18,2.96,1.18,4.43,.89,1.38-.28,2.74-.91,3.87-1.75,2.26-1.67,3.89-4.22,4.28-7.03,.2-1.44,.14-3.2-.6-4.49-.96-1.67-4.04-1.62-4.86,.2-.63,1.39,2.28,1.19,2.73,.19l.06-.13c-.22,.24-.47,.37-.77,.39,.14-.11-.22,.05-.22,.03,0,.03,.31,.39,.36,.48,.24,.49,.34,1.08,.41,1.62,.13,.97,.04,1.96-.19,2.91-.44,1.83-1.52,3.62-3.05,4.75-.76,.57-1.46,.93-2.3,1.1,.17-.03-.43,.04-.42,.04-.1,0-.32-.02-.46-.06-.42-.11-.73-.4-.89-.81-.38-.98-.06-2.27,.22-3.25s.76-1.98,1.35-2.86,1.35-1.72,2.21-2.37c.92-.69,1.92-1.2,2.91-1.48,.5-.14,1.38-.58,1.22-1.24s-1.22-.59-1.68-.46h0Z"></path><path class="cls-5" d="M271.58,246.19c-3.32,2.33-6.65,4.67-9.97,7-.2,.14-.47,.53-.2,.75,1.94,1.54,4.1,2.8,6.4,3.71,.64,.25,1.48,.04,2.05-.29,.35-.2,.92-.79,.28-1.05-2.17-.86-4.2-2.02-6.02-3.47l-.2,.75c3.32-2.33,6.65-4.67,9.97-7,.5-.35,.28-.84-.25-.94-.71-.13-1.48,.15-2.05,.55h0Z"></path><path class="cls-5" d="M273.05,251.94c-2.54,2.19-4.86,4.63-6.91,7.28-1.01,1.31-1.96,2.66-2.84,4.06-.15,.24-.44,.59-.36,.91,.1,.39,.66,.4,.96,.38,.59-.04,2.31-.36,2.24-1.21l-.09-.12-.06-.03c-.58-.25-1.3-.08-1.87,.14-.12,.04-1.34,.66-.85,.87v-.2c.41-.19,.8-.38,1.2-.58l-.07,.02,1.49-.02c-.17-.08,1.67-2.75,1.87-3.03,.76-1.07,1.57-2.1,2.42-3.1,1.69-1.99,3.53-3.85,5.51-5.55,.51-.44-.45-.54-.7-.53-.67,.04-1.42,.26-1.94,.71h0Z"></path><g class="cls-4"><path class="cls-5" d="M267.17,225.77c-10.1,12.07-18.15,25.87-23.68,40.61-.87,2.3-1.68,4.79-1.11,7.18s3.11,4.47,5.43,3.65c.89-.32,1.6-.99,2.26-1.67,11.64-11.93,16-28.9,22.26-44.35,.54-1.34,1.11-2.71,1.13-4.15s-.65-3-1.96-3.58-3.19,.28-3.23,1.73"></path><g><path class="cls-5" d="M269.92,225.24s.02,0,.02,0c-.05,0-.02,0-.02,0Z"></path><path class="cls-5" d="M270.56,224.77v.17c.03-.14,.1-.28,.19-.41-.07,.08-.14,.15-.19,.24Z"></path><path class="cls-5" d="M271.58,225.51c.27-.25,.13-.41-.05-.48-.19-.08-.4-.07-.44-.24l.04-.17c-.13,.15-.25,.3-.36,.46,.12,0,.3-.02,.49,.05,.18,.06,.33,.21,.31,.37Z"></path><path class="cls-5" d="M270.39,226.71c.27-.08,.26,.08,.06-.14-.03,.02-.04,.03-.06,.04,.01,.02,.01,.05,0,.1Z"></path><path class="cls-5" d="M270.39,226.61c-.05-.09-.21,.12,0,0h0Z"></path><path class="cls-5" d="M270.59,227.15c-.08-.07-.16-.15-.24-.19-.16,.01-.21,.18-.32,.11,.12,.19,.29,.18,.57,.07Z"></path><path class="cls-5" d="M271.08,227.42s-.06-.1-.09-.14c-.07,.02-.1,.04,.09,.14Z"></path><path class="cls-5" d="M270.79,227.02c.07,.08,.14,.17,.21,.26,.12-.02,.35-.02-.07-.13,.21,.03,0-.03-.14-.14Z"></path><path class="cls-5" d="M270.89,226.9c.15-.1,.24-.28,.5-.08-.15-.43-.63-.23-.5,.08Z"></path><path class="cls-5" d="M272.28,225.24c.02-.1,.04-.21,.05-.32-.11-.02-.21-.04-.32-.04,.17,.01,.08,.48,.26,.36Z"></path><path class="cls-5" d="M269.84,228.68c.14,.07,.42,.03,.61,.07l-.09-.28c-.13,.08-.3,.27-.52,.21Z"></path><path class="cls-5" d="M270.45,228.75c.04,.15,.08,.29,.11,.45,.15-.32,.05-.41-.11-.45Z"></path><path class="cls-5" d="M271.86,227.57c-.15-.21-.33-.4-.51-.55,.18,.19,.35,.41,.5,.66v-.11Z"></path><polygon class="cls-5" points="269.25 230.13 269.02 229.77 269.34 230.39 269.25 230.13"></polygon><path class="cls-5" d="M268.89,231.22c-.2-.28-.55,.06-.65-.19-.07,.31,.07,.65,.19,.96-.02-.28,.11-.52,.46-.76Z"></path><path class="cls-5" d="M268.58,232.48c-.02-.14-.09-.31-.16-.49,.01,.15,.05,.31,.16,.49Z"></path><path class="cls-5" d="M270.24,229.83c-.1,0-.34-.04-.53,.16h.46s.04-.1,.07-.16Z"></path><path class="cls-5" d="M270.19,229.98h-.01c-.08,.17-.14,.29-.16,.34,.02-.04,.08-.15,.18-.34Z"></path><path class="cls-5" d="M270.26,229.79l-.02,.04s.06,0,.02-.04Z"></path><path class="cls-5" d="M271.3,228.39c.18,.26,.26,.82,.76,.48-.23-.24-.5-.06-.76-.48Z"></path><path class="cls-5" d="M270.83,229.79l.25-.38c-.11-.03-.29-.02-.36-.17l.11,.55Z"></path><polygon class="cls-5" points="270.88 230.05 270.83 229.79 270.74 229.93 270.88 230.05"></polygon><path class="cls-5" d="M269.26,231.86c.1,.26,.03,.48-.04,.73,.18-.22,.33-.47,.42-.72-.11-.08-.29-.28-.39,0Z"></path><path class="cls-5" d="M269.75,230.96v.05s.07-.03,0-.05Z"></path><path class="cls-5" d="M268.31,234.93s.06,0,.09,0l-.07-.04-.02,.04Z"></path><path class="cls-5" d="M269.74,231.85c.15-.16,.1-.31,.02-.47-.02,.16-.05,.32-.11,.49,.05,.04,.09,.06,.09-.01Z"></path><path class="cls-5" d="M268.51,233.21c.12-.07,.24-.15,.35-.25-.17,.05-.44,.17-.35,.25Z"></path><path class="cls-5" d="M269.62,231.03s0-.02,0-.04c-.11,.03-.07,.04,0,.04Z"></path><path class="cls-5" d="M269.62,231.03c.02,.12,.08,.24,.14,.35,.02-.13,.02-.25,0-.37-.04,.01-.09,.02-.14,.02Z"></path><path class="cls-5" d="M270.61,236.61c-.36-.17-.51-.8,.05-1.08-.12-.53-1.44-.72-2.26-.61,.16,.07,.31,.13,.36,.65,.26-.08,.84-.79,1.04-.3-.03,.65-.31,.43-.62,.63,.55-.06,.39,.99,1.12,1.12l-.04-.6c.11,.03,.21,.28,.36,.17Z"></path><path class="cls-5" d="M268.76,234.09l.02-.2c-.14,.18-.35,.27-.74,.43,.07,.37,.18,.49,.29,.55l.39-.87,.03,.08Z"></path><path class="cls-5" d="M269.09,233.08c.34,.3,.35,.8,.89,.7,.18-.54-.19-.5-.24-.89-.24,.89-.13-.33-.6,.2,0-.19,.04-.35,.08-.5-.11,.14-.23,.26-.36,.37h.03s0-.01,0-.01h0c.06-.01,.1-.01,.05,.02,0,0,0,.02,0,.02,.05,.03,.1,.06,.14,.1-.18,.22-.12,0-.14-.1-.02-.01-.03-.02-.06-.03h0s-.11,.95-.11,.95c.13-.16,.2-.39,.31-.81Z"></path><path class="cls-5" d="M272.78,229.6s-.07,0-.1,0c.03,.07,.06,.11,.1,0Z"></path><path class="cls-5" d="M272.41,229.86c-.03-.08-.18-.19-.06-.37,.18-.13,.19,.07,.33,.11-.07-.16-.15-.51-.47-.21l.04,.08c-.26,.29-.92,.51-.96,.43,.4,.05,.69,.06,1.13-.03Z"></path><path class="cls-5" d="M270.85,231.52l-.09,.79,.49-.22-.22-.06c.24-.37-.05-.39-.19-.5Z"></path><polygon class="cls-5" points="268.08 234.93 267.69 234.67 268.14 235.32 268.08 234.93"></polygon><polygon class="cls-5" points="267.78 235.88 267.42 235.71 267.55 236.04 267.78 235.88"></polygon><path class="cls-5" d="M239.81,271.93l-.11-.29c.03,.14,.07,.23,.11,.29Z"></path><path class="cls-5" d="M240.03,274.07h.2c-.13-.07-.21-.09-.2,0Z"></path><path class="cls-5" d="M258.84,258.2c-.47,.12-1.14,.18-.72,.35l.43,.11c.03-.23,.14-.36,.29-.45Z"></path><path class="cls-5" d="M252.22,273.33c.05,0,.11,0,.16,.01-.06-.16-.12-.3-.18-.44,0,.13,.01,.28,.02,.43Z"></path><path class="cls-5" d="M253.42,274.68l-.51,.14c.14,0,.31-.05,.51-.14Z"></path><path class="cls-5" d="M241.98,262.42l-.31-.41c-.16,.39,.12,.3,.31,.41Z"></path><path class="cls-5" d="M264.38,245.42c-.26,.2-.4,.38-.49,.56,.35-.22,.8-.34,.49-.56Z"></path><path class="cls-5" d="M244.44,272.36c-.08-.09-.18-.13-.27-.12,.08,.1,.17,.15,.27,.12Z"></path><path class="cls-5" d="M263.6,246.73c.06-.03,.1-.07,.15-.1,0-.22,.02-.43,.14-.65-.26,.17-.47,.39-.29,.75Z"></path><path class="cls-5" d="M257.81,233.92s.05-.03,.08-.03c-.04-.04-.06-.01-.08,.03Z"></path><path class="cls-5" d="M266.93,229.07c-.04,.09-.13,.2-.21,.32,.06-.04,.13-.13,.21-.32Z"></path><path class="cls-5" d="M266.2,239.55c.05-.21-.03-.05,0,0h0Z"></path><path class="cls-5" d="M268.17,239.2c.03,.06,.08,.11,.17,.15-.09-.05-.14-.1-.17-.15Z"></path><path class="cls-5" d="M265.36,249.64v.02c.09-.03,.07-.02,0-.02Z"></path><path class="cls-5" d="M266.5,239.33c-.08,.06-.15,.12-.21,.21,.05-.03,.11-.09,.21-.21Z"></path><path class="cls-5" d="M266.29,239.3c.04-.06,.07-.11,.1-.16-.06-.05-.11-.04-.1,.16Z"></path><path class="cls-5" d="M266.12,239.84c.04-.11,.09-.21,.16-.3-.04,.03-.07,.04-.08,.02-.02,.06-.04,.14-.08,.28Z"></path><path class="cls-5" d="M249.72,249.37s.03-.02,.06-.02c-.06-.27-.08-.18-.06,.02Z"></path><path class="cls-5" d="M260.27,265.12s0-.02,0-.03l-.03,.02h.04Z"></path><path class="cls-5" d="M260.16,265.95c-.3-.56-.15-.69,.08-.85l-1.21-.41,1.14,1.25Z"></path><path class="cls-5" d="M240.49,267.36l-.55,.46c-.41-.89-.02-1.32-.72-.95,.63,.25,.49,.81,.36,1.41-.12,.6-.21,1.24,.45,1.4-.12,.12-.24,.24-.35,.37,.03-.12-.04-.15,0-.27-.77,.75,.86,.75,.61,1.77-.12,.37-.3,.65-.47,.38,.11,.29,.24,.58,.38,.86,0,.25-.25,.22-.24-.04,.07,.45,.19,.89,.32,1.33h-.04c.27,.16,.7,.51,.92,.65-.05,.39-.2-.11-.32,.03,.2,.2,.39,.4,.61,.56-.17,.44-.79,.03-.93-.54-.49,.59-.34,.77-.07,.95,.28,.2,.62,.42,.8,1.32-.21-.17-.41-.36-.6-.57-.37,.88,.25,1.27,.62,2.32-.01-.17-.14-.75-.11-1.2,.03-.45,.21-.77,.61-.53,.08,.25,.27,.55,.8,.66-.32,.36,.09,.59,.65,.94l-.4,.51c.76,.28,.87-.07,1.36-.14,.68,.37,.72,.88,.82,1.34,.7,.22,.48-.04,.32-.31-.16-.28-.24-.54,.5-.45,.95,.38,1.78,.1,2.69-.57,.05-.04,.1-.08,.15-.12,.72-.07,.03,.42,.32,.49,.14-.24,.27-.5,.37-.75,.14-.06,.17,.1,.18,.18,.35-.45-.25-.57,.26-1.15-.12-.35,.3-.35,.75-.44,.46-.09,.95-.25,.88-.78,.25,0,.23,.33,.44,.47,.27-1.07,.28-.87,.28-1.92l.76-.21c-.69,.04-.69-.8-.69-1.49-.29-.03-.54-.06-.68-.05,.11-.28,.2-.56,.28-.85,.14-.01,.26,.2,.38,.48,0-.08,0-.15-.02-.22,.37-.08,.56,.28,.69,.68-.16,0-.33-.01-.49-.02,.16,.41,.35,.84,.66,1.05-.02-.09,0-.21,.06-.32,.04,.11,.09,.2,.16,.22,.07,.02,.02-.14-.01-.35l.67,.31-.19-.22,1.06-.6c-.04-1.1-.42-2.26,.06-3.47,.24,.56,.65,.56,1.14,.94-.74-.11-.34,.99-.88,1.42,.27-.23,.46,0,.49,.14,.1-.43,.17-.88,.24-1.32,.39,.32,.45,.02,.81-.11-.95-.4-.02-1.11,0-1.68,.29,.17,.51,.46,.1,.89,1-.11-.46-1.34,.41-1.52-.07,.12-.16,.16-.04,.3-.07-.45,.57-1,.71-.68l-.07,.12c.62-.73,1.58-2.45,.89-3.01,.1,.05,.82,.63,.94,.77-.53-.98-1.08-1.95-1.63-2.89,.56,.49,2.36,.85,2.32,1.74,.2-.15,.45-.33,.47-.87-.17,.08-1.11-.18-1.07-.4,1-.1,.58-.13,1.52-.43-.25,.13-1.13-.64-.93-.94,.12,.13,1.01,.51,1.05,.68l-.57-1.33c.07,.29,.82,.48,1.2,.44-.24-.02,.39-.69,.4-.96l-.41,.22c.63-.84-.97-1.62-.47-2.48,.16,.21,1.15,.9,1.51,.49-.42-.47-2.03-2.12-2.09-3.1l.37-.02-.07-.77c.62,.73,1.8,2.58,2.14,3.48,.4-.23,.4,.07,.62-.46,.37-.05,.29,.48,.23,.64,.26-.38,.51-.76,.75-1.14-.64-.23-.19-1.22-.73-1.4l.04,1.61c-.63-.23-1.39-1.56-.9-2.36,.34-.11,1.02,.65,1.23,.72-.16-.21-.04-1,.15-1.01l.16,.51c.45-.38-.46-1.14,.37-1.47,.12-.18,1.05-.26,.7-.45-.85,.03-3.05-.84-3.49-1.28,.08-.05,1.11-.75,1.56-.83,.69-.1,1.12,1.04,1.71,.96-.16-.08-.3-.35-.33-.45,.23-.15,.49,.3,.6-.18-.6-.33,.43-.91-.45-.44,0-.52,.32-.42,.5-.96-.48,0-1.2-1.03-1.21-1.55,.15,.09,.4,.07,.52,.06,.43-.89,.9-1.27,1.23-2.13,.18-.02,.53-.36,.74-.08-.06-.17-.24-.36-.15-.63,.75-.3-.14,.62,.67,.49-.36-.18-.25-.88-.34-1.35-.61-.1-.44,.83-.36,1.3-.79-.3-1.36-1.27-1.39-2.3,.07-.79,.63-.12,.56-.28,.64-1.29-.95-1.65,.03-2.55,.67-.25,1.01,.35,1.41,.39-.02,.65-.65,.77-.78,1.17l.42-.4c.1,.25,.08,.68-.15,.84,.59-.2,.93-2.23,1.73-3.11-.1-.25-.16-.63-.42-.55l-.05,.35c-.52,.15-.33-.83-.68-.48-.12-.54-.39-1.21,.07-1.74l.62,.1c-.17-.05-.49,.28-.38,.52-.16-.35,1.13-.66,.49-1.22l-.56,.29c-.12-.55-.53-1.32-.14-1.81-.66,.04,.02,.15-.79,.29,.95-.03-.56,1.39,.51,1.17-.92,.11-.59,.57-1.44,.85,.2,.05,.43-.05,.17,.38,.05,.04,.1,.12,.13,.16l-.03,.03,.03-.02s.03,.03,.01,0c.12-.08,.26-.13,.38-.13,.35,.39,.06,1.12,.2,1.45-.19,.24-.18-.19-.43-.12l.2,.49c-.43-.12-.97,.46-.98-.27l-.23,.57c-.36,.25-.63,.69-.56,1.04-.19,.24,.21,.86-.03,.5l-.08,1-.11-.03c-.38,.87,0,2.1-1.14,2.82,0,.34,0,.7-.31,1.15l-.4-.04c-.02,.43-.81,.99-.5,1.31-1.14,.02-.94,1.75-1.39,2.33l.46,.22c-.22,.44-.27,.93-.32,1.57l.43,.14c.14,.64-.83,1.12-1.13,1.89-.13-.12,0-.3,.15-.39-1.33,.48-.18,2.22-1.25,2.71,.05,.27-.07,.39-.24,.48,0-.02,0-.04,0-.06-.01,.02-.03,.05-.04,.08-.11,.06-.24,.11-.35,.17,.14-.04,.26-.08,.33-.13-.07,.16-.13,.42-.14,.7l-.48-.12s-.01,.04-.01,.06c-.27,.15,.12,.28,.5,.32,.01,.15,.05,.3,.11,.44-.78-.17-.08,.72-.95,.58,.28,.34-.33,1.28,.35,1.8-.1-.04-.18,0-.12-.13-.22,.21-.44,.42-.35,.76l-.6-.19,.4,.94c-.52,.15-.78,.17-1-.39,.17,1.14-.13,.77,.1,1.81l-.32-.24c-.13,.24,.11,.91-.27,.87-.97,.11-1.72,2.54-3.25,3.38,1.12,.44-.85,.28-.16,.87-.27-.09-.52,0-.57-.36-.26,.81-1.08,.66-.83,1.56-.27-.1-.21-.39-.39-.43,0,.09,.03,.35-.15,.31-.18-.04-.11-.24-.12-.41-.46,.65,.13,1.26,.71,1.82-.55,.08-.64,.28-.45,.84-.3-.06-.66-.07-.39-.5-.23,.19-1.46,1.03-1.01,1.49-.18-.04-.31,.26-.3,.37-.46,.45-.55,.46-.92,.9l.19-.03c.37,.72-.27,.49-.5,.77l-.03-.07c-.69,0-.5,.17-.7,.26-.07,.02-.23,.01-.48-.14l.12,.48c.05,.51-.23,.43-.49,.17-.28-.24-.48-.61-.75-.48,.03,.11,.07,.21,.11,.32-.19,.14-.31-.29-.29-.73,0-.46,.15-.92,.13-1.01,.02-.09,.12-.09,.18-.13,.04-.33-.05-.22-.21-.02-.16,.2-.34,.49-.57,.4,.17-.31,.63-.59,.5-.81,.05-.14-.26-.06-.59-.12-.33-.04-.64-.25-.41-.55-.21,.17-.4,.39-.67,.25-.25-.34,.71-1.09-.13-1.36,.07-.06,.13-.08,.2-.08-.24-.28-.35-1.01-.76-1.28,.84-.07,.71-.58,.62-1.14-.09-.55-.17-1.1,.56-.87,.08-.36,.18-.74,.28-1.12l.14,.08c.35-.67,.11-1.06-.14-1.44,.16-.13,.25,.04,.32,.08,.7-.95,.68-1.08,.32-2.25l.5,.09c-.17-.35,1.35-1.23,1.23-2.48,.05,.03,.13,.09,.16,.2-.04-1.39,2.45-2.19,.99-3.35l-.06-.94c-.58,.92-.64-.47-1.1-.19,.08-.43,.96-.77,.82-.26l-.12,.04c.77,.57,.87-1.08,1.43-.78,.86-1.93,2.25-3.54,3.2-5.26l-.75-.14,.36-.59c.24-.08,.62,.06,.36,.47,.49-.03,.09-.89-.05-.98,.72-.71,.57,.73,.73,.48l.14-.38-.12,.04c-.11-.43-.37-.6-.06-1.11,.31-.26,.49,.05,.58-.07,.04,.03,.09,0,.13-.19l.48-.73-.68,.02c-.06-.47,.43-.7-.34-.67,1.16-.02,1.93-2.64,2.4-2.79-.08-.68,.19-1.14,.58-1.68-.19,.08-.8-.18-.42-.62,1.03,.88,1.05-.58,2.11-.46-.76,0,.73-1.45-.38-1.4,.35-.34,.44,.25,.9,.12,.19-1.23,1.64-1.9,2.29-3.14-.13-.12-.49-.08-.53-.47l1.14-.11c.08-.27-.69-.79,.1-.85-.16-.03-.41-.07-.35-.25,2.27-1.72,2.74-4.97,5.74-6.14-.5,.08-.37-.13-.2-.37-.18,.1-.34-.27-.55-.39l1.25-.49c-.38-.58,.75-.99,.34-1.49l-.15,.36c-.26-.86-1.72-.52-2.42-1.18,.31,.97-1.92,.35-1.54,1.84-.28,.04-.14-.33-.38-.38,.18,.44,.07,.71-.4,1.01l-.04-.11c-.83,1.21-1.51,1.48-2.73,2.64l.45,.18c-.26,.25-.43,.22-.62,.28,.34,.75,.63-.78,1.04,0-1.07-.2-1.47,2.02-2.55,1.64-.32,.44,.54,.19,.22,.63l-.33-.05,.23,.33c-.25,.26-.66,.2-.87,.06,.07-.05,.08-.24,.12-.33-.55,.19-.65,1.15-.83,1.22l.45-.33c-.63,1.38-1.95,2.7-2.23,4.23l.25,.03c-.24,1.15-.68,.61-1.16,1.74l-.02-.07c.06,.32-.01,.65-.21,.92-.06-.4-.74,.22-.77-.27-.23,1.26,0,.69,.3,1.79l-.41-.03c.15,.4,.29,.51,.07,1.07-.02-.58-.68,.04-.76-.65-1.35,.68-.23,2.04-1.55,1.95,.61,1.01,1.04-.67,1.07-.28,.42-.07,.43,.8,.15,1.09-.21,.34-1.49-.06-1.96,.85,.05-.09-.01-.13,.04-.22-.41,.21-.04,.83-.64,1.03,.42,.52-.32,.52,.34,.96l.28-.9c-.07,.57,.51,1.43-.29,1.98-.11-.14-.18-.46-.19-.67-.33,.11-.09,.5-.43,.63-.67-.44,.38-1.08,.12-1.86-.43,.08,0,1.21-.63,.56,.76,.87-.59,.83-.17,1.83l-.4-.26c.02,.13,.11,.44,0,.61l-.38-.6c.21,.74-.9,.75-.9,1.36,.5-1.01,.63,.03,1.15-.23-.07,1.51-1.47,.15-1.95,1.65,.03-.22,.6-.58,.66-.19-.22,.22-.55,.49-.86,.55-.36,.97,.51,.07,.58,.59-.67,.06-.01,.55-.03,1.04l-.44-.2c-.77,.93,.78,.71,0,1.5l-.42-.68-.07,.57-.45-.33c.12,.71-.05,.84-.44,1.31,.37,.02,.77,.43,.57,.91-.4,.21-.34-.37-.57,.33-.21-.27-.48-.59,.05-.71-.13-.09-.21-.27-.34-.37-.45,.22-.45,.85-.56,1.1,.06-.09,.13-.19,.22-.22l.19,1.24c-.23,.08-.31-.1-.39-.27-.04,.22,.1,.44,.02,.75-.33-.23-.71-.37-.7-.86v1.11c-.18,0-.63,.3-.72,.12-.43,.44,.17,1.57-.39,2.15,.06,.06,.09,.16,.09,.33-.34,.62-1.01,1.03-.81,2l-.83,.19c-.09,.67,1.06-.29,.92,.83-.06,.81-.66,.07-.94,.27,.2,.51,.65,1.38-.11,1.96-.06-.29,.1-.45,.12-.69Zm1.27,9.69c-.21-.1-.73-.27-.58-.57,.59-.1,.48,.18,.58,.57Zm11.92-4.04c.05,.19-.12,.28-.39,.32,.06-.14,.18-.26,.39-.32Zm12.09-31.17l.02,.02c-.3,.25-.18,.17-.02-.02Zm.44-.59c-.04-.09-.1-.11-.18-.1,.1,.09,.05,.24-.05,.4,.14,0,.25-.06,.22-.29Zm-12.57,7.69l-.18,.06c.02-.34,.09-.2,.18-.06Z"></path><path class="cls-5" d="M253.29,274.52c-.09-.02-.17-.07-.24-.12,.02,.1,.09,.16,.24,.12Z"></path><path class="cls-5" d="M242.04,262.49s0-.01,.01-.02c-.02-.02-.05-.04-.07-.05l.06,.08Z"></path><path class="cls-5" d="M266.06,253c-.12,.11-.24,.15-.34,.17,.11,.05,.22,.03,.34-.17Z"></path><path class="cls-5" d="M266.76,237.44l-.04,.47c.06-.22,.18-.25,.29-.33-.11-.03-.29,0-.25-.14Z"></path><path class="cls-5" d="M270.95,234.8c-.03-.08,.04-.13,.01-.22l-.22-.06c-.09,.27,.01,.52,.2,.28Z"></path><path class="cls-5" d="M268.41,237.61c.39,.11,.36-.21,.4-.53,0,.02,0,.04-.02,.05-.5-.29-.44,.1-.39,.48Z"></path><path class="cls-5" d="M268.83,237c.02-.1,.04-.2,.09-.28-.2-.12-.09,.1-.09,.28Z"></path><path class="cls-5" d="M266.27,240.32c.15-.1-.45-.27-.27-.29-.43-.34,.24,1.16,.27,.29Z"></path><polygon class="cls-5" points="269.75 237.84 269.24 237.77 269.56 238.07 269.75 237.84"></polygon><path class="cls-5" d="M268.52,240.06l.31-.43c-.08-.02-.1-.1-.11-.19-.13,.29-.34,.58-.2,.62Z"></path><path class="cls-5" d="M268.72,239.45c.07-.15,.11-.3,.07-.41-.03,.08-.08,.27-.07,.41Z"></path><polygon class="cls-5" points="269.65 238.54 269.5 238.64 269.34 238.97 269.65 238.54"></polygon><path class="cls-5" d="M266.52,245.15l-.06,.57c.14,.11,.29,0,.3-.21-.06-.17-.06-.38-.24-.36Z"></path><path class="cls-5" d="M268.4,244.06c-.15,.1-.26,.07-.44,.1l.58,.23-.13-.33Z"></path><path class="cls-5" d="M267.96,245.63c.14,.11,.18,.93,.39,.26-.14-.11-.08-.69-.39-.26Z"></path><polygon class="cls-5" points="264.15 253.14 264.2 253 263.25 252.63 264.15 253.14"></polygon><path class="cls-5" d="M263.28,260.95c.51-.5-.49-.42,.05-.84-.15-.25-.44,.34-.56,.1,.05,.48-.17,.61,.51,.74Z"></path><path class="cls-5" d="M262.77,260.21c0-.08-.02-.16-.05-.25,0,.13,.03,.2,.05,.25Z"></path><polygon class="cls-5" points="268.32 228.23 268.75 228.04 268.31 228.03 268.32 228.23"></polygon><path class="cls-5" d="M268.24,227.13l.56,.34-.29-.57c-.04,.09-.11,.27-.27,.23Z"></path><path class="cls-5" d="M242.14,279.23l.14-.09c.02-.21-.11-.31-.33-.54,.05,.21,.12,.41,.19,.62Z"></path><polygon class="cls-5" points="239.19 271.21 239.18 271.35 239.77 271.14 239.19 271.21"></polygon><path class="cls-5" d="M239.82,265.43c-.1,.19-.06,.47-.15,.67,.06-.48,.86-.47,.15-.67Z"></path></g></g></g><g id="book"><ellipse class="cls-2" cx="249.88" cy="396.83" rx="163.3" ry="70.15"></ellipse><g><path class="cls-5" d="M179.05,353.58c-32.82,29.04-64.54,59.33-95.08,90.77,18.66-3.82,37.54-7.14,56.58-7.21s38.4,3.27,55.25,12.14c1.67,.88,3.39,1.83,5.28,1.91,2.17,.09,4.19-.97,6.14-1.93,20.43-10.04,44.5-10.56,66.78-5.89,22.28,4.67,43.21,14.18,63.93,23.62,25.08-28.82,50.17-57.64,75.25-86.46-15.59-21.57-42.93-32.4-69.54-33.35-26.6-.95-52.75,6.79-77.63,16.24-1.42,.54-2.88,1.09-4.4,1.15-2.3,.08-4.46-.98-6.54-1.98-24.42-11.71-53.04-17.27-78.78-8.85"></path><path class="cls-5" d="M177.89,353.37c-25.56,22.62-50.46,45.99-74.65,70.08-6.87,6.84-13.68,13.74-20.43,20.69-.94,.96,.7,1.01,1.34,.89,34.01-6.95,70.86-12.36,103.86,1.77,1.89,.81,3.76,1.68,5.59,2.61s3.51,1.98,5.47,2.39c3.72,.77,7.02-1.22,10.26-2.73,7.36-3.41,15.23-5.62,23.26-6.76,16.55-2.36,33.42-.36,49.48,3.96,18.96,5.09,36.89,13.28,54.7,21.4,.78,.35,1.97-.06,2.5-.67,19.57-22.48,39.13-44.96,58.7-67.44,5.52-6.34,11.04-12.68,16.56-19.02,.16-.18,.13-.39,0-.56-18.03-24.75-50.01-34.65-79.57-33.56-18.22,.67-36.1,4.96-53.34,10.69-4.25,1.41-8.48,2.91-12.68,4.47-2.07,.77-4.33,2-6.55,2.21-2.35,.22-4.62-1.13-6.67-2.1-7.6-3.6-15.5-6.57-23.62-8.76-18.26-4.93-37.85-5.71-55.98,.16-.39,.13-1.43,.47-1.27,1.07,.15,.56,1.27,.41,1.63,.29,16.17-5.23,33.46-4.86,49.89-1,8.2,1.93,16.19,4.72,23.88,8.15,3.51,1.57,7.16,4.01,11.15,3.76,1.8-.11,3.5-.72,5.17-1.35,2.22-.84,4.45-1.67,6.68-2.48,31.51-11.41,66.48-19.31,99.23-8.21,15.49,5.25,29.65,14.48,39.35,27.8v-.56c-19.56,22.48-39.12,44.96-58.69,67.44-5.52,6.34-11.04,12.68-16.56,19.02,.83-.22,1.67-.45,2.5-.67-31.07-14.16-63.72-28.7-98.68-26.29-8.11,.56-16.16,2.05-23.87,4.64-3.74,1.26-7.31,2.82-10.86,4.53-2.37,1.14-4.17,1.56-6.68,.44-1.94-.87-3.79-1.96-5.72-2.86-15.15-7.11-31.97-10.06-48.61-10.38-20.52-.39-40.85,3.19-60.88,7.28,.45,.3,.89,.59,1.34,.89,23.79-24.48,48.28-48.27,73.46-71.32,7.15-6.54,14.36-13.03,21.61-19.45,1.23-1.09-1.63-1.01-2.31-.41h0Z"></path></g><path class="cls-1" d="M97.99,437.9c33.4-13.34,72.83-10.58,104.05,7.27,42.98-15.83,92.7-12.3,133.01,9.45,23.45-29.93,48.29-58.79,74.39-86.44-20.98-15.7-47.76-22.67-73.96-21.95-26.19,.72-51.83,8.79-75.15,20.73-11.9-10.59-28.41-13.94-44.13-16.52-14.39-2.36-29.44-4.36-43.32,.11-11.3,3.64-20.83,11.28-29.76,19.1-12.03,10.54-23.51,21.71-34.38,33.45-4.38,4.73-11.64,10.49-14.24,16.48-2.68,6.18,1.24,12.45,3.47,18.31Z"></path><g class="cls-4"><path class="cls-5" d="M97.99,437.9c33.4-13.34,72.83-10.58,104.05,7.27,42.98-15.83,92.7-12.3,133.01,9.45,23.45-29.93,48.29-58.79,74.39-86.44-20.98-15.7-47.76-22.67-73.96-21.95-26.19,.72-51.83,8.79-75.15,20.73-11.9-10.59-28.41-13.94-44.13-16.52-14.39-2.36-29.44-4.36-43.32,.11-11.3,3.64-20.83,11.28-29.76,19.1-12.03,10.54-23.51,21.71-34.38,33.45-4.38,4.73-11.64,10.49-14.24,16.48-2.68,6.18,1.24,12.45,3.47,18.31Z"></path></g><g><path class="cls-1" d="M264.43,363.14c-7.79-11.35-21.2-17.51-34.48-21.14-17.38-4.76-36.4-6-53.09,.81-13.68,5.58-24.69,16.05-35.35,26.29-19.04,18.29-38.08,36.58-56.36,55.63,12.26-3.93,24.6-7.88,37.37-9.52,28.05-3.61,57.44,4.62,79.54,22.27,14.32-16.61,28.64-33.23,42.96-49.84,17.16-19.91,35.36-40.56,59.92-49.91,13.26-5.04,27.67-6.45,41.85-5.91,21.22,.81,43.82,6.87,57.18,23.38-24.04,28.68-48.08,57.37-72.11,86.05-40.36-20.66-89.92-22.41-131.64-4.66"></path><path class="cls-1" d="M265.88,362.75c-7.39-10.62-19.31-16.63-31.38-20.34-13.49-4.15-27.94-6.13-41.99-4.19-13.97,1.93-26.19,8.28-37.03,17.11-5.5,4.48-10.62,9.4-15.73,14.31-5.77,5.54-11.54,11.09-17.29,16.66-13.07,12.65-26.02,25.42-38.62,38.54-.71,.74,1.62,.28,1.81,.22,16.21-5.2,32.57-10.21,49.76-10.09,15.12,.11,30.21,3.52,43.94,9.86,7.61,3.52,14.78,7.93,21.34,13.14,.54,.43,2.27-.13,2.68-.6,12.12-14.06,24.23-28.12,36.35-42.18,10.43-12.1,20.68-24.49,32.44-35.35,11.5-10.62,24.68-19.7,39.9-23.98,15.71-4.42,33.02-4.66,49.06-1.91,15.68,2.7,31.2,9.15,41.48,21.72l.05-.38c-18.74,22.36-37.48,44.73-56.22,67.09-5.3,6.32-10.59,12.64-15.89,18.96l2.68-.6c-16.1-8.2-33.62-13.49-51.56-15.7-17.73-2.18-35.81-1.46-53.29,2.24-9.93,2.1-19.64,5.15-28.99,9.11-.46,.2-.76,.43-.36,.75s1.65-.21,2.03-.37c32.08-13.58,68.73-15.28,102.16-5.75,9.42,2.68,18.55,6.27,27.28,10.72,.64,.33,2.21-.05,2.68-.6,18.74-22.36,37.48-44.73,56.22-67.09,5.3-6.32,10.59-12.64,15.89-18.96,.13-.16,.19-.22,.05-.38-9.38-11.48-23.25-17.93-37.5-21.02-15.72-3.41-32.68-3.59-48.45-.5-15.94,3.13-30.21,10.51-42.75,20.72-12.4,10.09-22.92,22.24-33.33,34.32-14.18,16.45-28.36,32.91-42.55,49.36l2.68-.6c-24.95-19.82-57.97-27.2-89.09-20.9-10.09,2.04-19.9,5.18-29.68,8.32,.6,.07,1.21,.14,1.81,.22,10.65-11.1,21.56-21.94,32.58-32.68,10.54-10.27,21.01-20.67,31.88-30.59,10.05-9.18,21.13-17.56,34.58-20.85,13.83-3.38,28.55-1.83,42.17,1.77,13.38,3.53,27.16,9.54,35.31,21.26,.49,.7,3.12-.45,2.9-.78h0Z"></path></g><g><path class="cls-1" d="M304.94,337.72c13.26-5.04,27.67-6.45,41.85-5.91,21.22,.81,43.82,6.87,57.18,23.38-24.04,28.68-48.08,57.37-72.11,86.05"></path><path class="cls-2" d="M305.46,338.15c14.13-5.33,29.61-6.52,44.58-5.45,12.58,.9,25.38,3.65,36.51,9.79,6.12,3.38,11.62,7.79,16.05,13.22l.03-.47c-18.75,22.37-37.5,44.75-56.25,67.12-5.29,6.31-10.58,12.62-15.86,18.93-.43,.51,.37,.63,.72,.62,.61,0,1.52-.24,1.93-.73,18.75-22.37,37.5-44.75,56.25-67.12,5.29-6.31,10.58-12.62,15.86-18.93,.14-.17,.17-.3,.03-.47-8.25-10.12-20.1-16.4-32.54-19.82-13.63-3.75-28.24-4.59-42.29-3.33-8.91,.8-17.7,2.61-26.08,5.77-.37,.14-1.12,.48-.83,.96,.27,.43,1.58,.03,1.89-.09h0Z"></path></g><g><path class="cls-1" d="M264.43,363.14c-7.79-11.35-21.2-17.51-34.48-21.14-17.38-4.76-36.4-6-53.09,.81-13.68,5.58-24.69,16.05-35.35,26.29"></path><path class="cls-2" d="M265.79,362.6c-10.15-14.63-29.01-20.82-45.79-23.75-9.6-1.68-19.51-2.1-29.15-.54-9.46,1.52-18.33,5.06-26.36,10.27-8.94,5.8-16.66,13.2-24.32,20.55-.51,.49,.43,.69,.74,.69,.69,0,1.43-.27,1.92-.75,13.04-12.53,26.83-25.32,45.17-28.96,9.21-1.83,18.72-1.63,27.97-.21,8.68,1.33,17.36,3.61,25.43,7.11,8.48,3.67,16.34,9,21.67,16.67,.47,.68,3.28-.24,2.71-1.07h0Z"></path></g><path class="cls-2" d="M258.81,369.14c-14.52,16.58-29.28,32.95-44.3,49.08-4.27,4.58-8.55,9.15-12.86,13.7-.48,.51,.41,.74,.76,.75,.69,.02,1.45-.27,1.92-.76,15.16-16,30.07-32.23,44.73-48.69,4.17-4.68,8.31-9.37,12.43-14.08,.46-.52-.39-.74-.76-.75-.66-.02-1.47,.25-1.92,.76h0Z"></path><g><path class="cls-1" d="M199.48,427.27c-1.67-9.37-2.82-18.83-3.45-28.32,2.09,1,4.18,1.99,6.27,2.99,.63-4.63,1.26-9.25,1.88-13.88,1.71,1.19,3.42,2.39,5.13,3.58,1.07-3.34,1.85-6.77,2.33-10.25,1.77,.8,3.54,1.59,5.31,2.39,.93-3.37,1.87-6.74,2.8-10.11,1.29,1.01,2.76,1.77,4.33,2.25,1.33-3.86,2.67-7.72,4-11.59,1.06,2.97,5.6,3.13,7.93,1.01,2.33-2.12,3-5.46,3.56-8.57,1.11,1.1,2.51,1.9,4.02,2.3,.81-3.37,1.62-6.73,2.43-10.1,1.63,1.46,3.26,2.92,4.89,4.39,1-4.44,2.01-8.88,3.01-13.32,1.66,8.18,3.32,16.36,4.99,24.54"></path><path class="cls-2" d="M200.93,426.88c-1.66-9.37-2.81-18.82-3.45-28.32l-2.81,.89c2.09,1,4.18,1.99,6.27,2.99,.52,.25,2.69,.01,2.79-.75,.63-4.63,1.26-9.25,1.88-13.88-.93,.25-1.86,.5-2.79,.75,1.71,1.19,3.42,2.39,5.13,3.58,.55,.38,2.58-.06,2.79-.75,1.06-3.35,1.84-6.77,2.33-10.25-.93,.25-1.86,.5-2.79,.75,1.77,.8,3.54,1.59,5.31,2.39,.59,.27,2.58,.02,2.79-.75,.93-3.37,1.87-6.74,2.8-10.11-.93,.25-1.86,.5-2.79,.75,1.37,1.04,2.87,1.8,4.51,2.32,.59,.19,2.38-.12,2.62-.82,1.33-3.86,2.67-7.72,4-11.59l-2.88,.64c1.35,3.34,5.86,3.02,8.6,1.84,4.02-1.73,5.07-6.11,5.77-10.03-.93,.25-1.86,.5-2.79,.75,1.21,1.14,2.61,1.92,4.2,2.38,.54,.16,2.45-.11,2.62-.82,.81-3.37,1.62-6.73,2.43-10.1-.93,.25-1.86,.5-2.79,.75,1.63,1.46,3.26,2.92,4.89,4.39,.47,.42,2.65-.1,2.79-.75,1-4.44,2.01-8.88,3.01-13.32l-2.88,.64c1.66,8.18,3.32,16.36,4.99,24.54,.13,.65,3.05-.04,2.9-.78-1.66-8.18-3.32-16.36-4.99-24.54-.14-.67-2.75,.06-2.88,.64-1,4.44-2.01,8.88-3.01,13.32,.93-.25,1.86-.5,2.79-.75-1.63-1.46-3.26-2.92-4.89-4.39-.47-.42-2.64,.11-2.79,.75-.81,3.37-1.62,6.73-2.43,10.1l2.62-.82c-1.48-.43-2.73-1.17-3.85-2.23-.45-.42-2.68,.11-2.79,.75-.51,2.87-1.08,6.19-3.3,8.28-1.7,1.6-4.46,.73-5.3-1.36-.28-.7-2.68,.07-2.88,.64-1.33,3.86-2.67,7.72-4,11.59l2.62-.82c-1.52-.49-2.88-1.21-4.15-2.17-.52-.39-2.61,.08-2.79,.75-.93,3.37-1.87,6.74-2.8,10.11,.93-.25,1.86-.5,2.79-.75-1.77-.8-3.54-1.59-5.31-2.39-.53-.24-2.69-.02-2.79,.75-.49,3.48-1.27,6.9-2.33,10.25,.93-.25,1.86-.5,2.79-.75-1.71-1.19-3.42-2.39-5.13-3.58-.48-.34-2.7,.05-2.79,.75-.63,4.63-1.26,9.25-1.88,13.88,.93-.25,1.86-.5,2.79-.75-2.09-1-4.18-1.99-6.27-2.99-.53-.25-2.87,.03-2.81,.89,.64,9.5,1.8,18.95,3.45,28.32,.11,.63,3.03-.02,2.9-.78h0Z"></path></g><g class="cls-4"><path class="cls-5" d="M218.91,407.79c-.47,.34-.04,.53-.06,.64,.68-.69-.03-.71,.06-.64Z"></path><polygon class="cls-5" points="225.55 400.95 225.54 401.19 226.32 399.96 225.55 400.95"></polygon><path class="cls-5" d="M232.21,395.11c-1.1,.02-2.31,2.23-3.67,3.08l-.3,.05-.16,.9c1.39-1.33,2.99-3.27,4.13-4.03Z"></path><path class="cls-5" d="M236.75,393.06c-.4,0,.59-.87-.87,.68,.1-.05,.13-.06,.19-.08,.14-.13,.33-.31,.68-.6Z"></path><path class="cls-5" d="M236.07,393.66c-.68,.65,.61-.24,0,0h0Z"></path><path class="cls-5" d="M239.13,390.61l-.73,1.02c.3-.06,1.13-.78,.91-.41,.83-.96,.53-.9-.18-.61Z"></path><path class="cls-5" d="M239.63,389.43l-.39,.51c.13-.03,.27-.12,.39-.51Z"></path><path class="cls-5" d="M238.4,391.03l.84-1.09c-.21,.04-.38-.12-.4,.48-.06-.23-.12,.1-.44,.6Z"></path><path class="cls-5" d="M237.76,391.47c-.61,.36-1.34,.89-.59-.13-1.67,1.67-1.07,1.8,.59,.13Z"></path><path class="cls-5" d="M232.05,394.25l-.82,.46-.43,.71c.22-.35,1.45-1.04,1.26-1.17Z"></path><path class="cls-5" d="M244.95,385.58c-.05-.16-.58,0-.78-.08l-.54,.76c.41-.25,1.12-.8,1.32-.68Z"></path><path class="cls-5" d="M244.17,385.5l.79-1.14c-.89,.83-.97,1.07-.79,1.14Z"></path><polygon class="cls-5" points="239.25 388.7 237.99 390.63 239.55 388.4 239.25 388.7"></polygon><polygon class="cls-5" points="248.68 381.94 248.38 382.74 248.98 381.39 248.68 381.94"></polygon><path class="cls-5" d="M251.08,379.45c-.2,.61,.9-.21,.6,.34,.63-.7,1-1.46,1.35-2.13-.45,.63-1.04,1.2-1.95,1.78Z"></path><path class="cls-5" d="M253.64,376.58c-.22,.32-.41,.69-.61,1.09,.24-.34,.45-.69,.61-1.09Z"></path><path class="cls-5" d="M246.68,382.8c.14,0,.45,.02,1.07-.45l-.68,.07c-.12,.11-.25,.24-.38,.37Z"></path><path class="cls-5" d="M247.04,382.43h.02c.42-.4,.71-.68,.84-.8-.11,.1-.37,.34-.86,.8Z"></path><path class="cls-5" d="M246.58,382.89s.06-.06,.1-.09c-.07,0-.1,.02-.1,.09Z"></path><path class="cls-5" d="M242.1,386.53c.41-.73,1.43-2.06,.02-1.21-.21,.61,.6,.12-.02,1.21Z"></path><path class="cls-5" d="M245.73,382.97l-1.1,.94c.1,.06,.4,0,.2,.36l.9-1.3Z"></path><polygon class="cls-5" points="246.14 382.38 245.73 382.97 246.14 382.63 246.14 382.38"></polygon><path class="cls-5" d="M251.62,378.07c.3-.58,.77-1.08,1.29-1.65-.64,.53-1.27,1.11-1.84,1.69,.02,.18-.06,.6,.55-.04Z"></path><path class="cls-5" d="M249.38,380.17s.06-.08,.08-.12c-.09,.04-.14,.08-.08,.12Z"></path><path class="cls-5" d="M258.15,369.62c-.04,.06-.09,.1-.13,.15,.02,.02,.04,.04,.06,.06,.03-.07,.05-.14,.08-.21Z"></path><path class="cls-5" d="M250.92,378.16c-.5,.38-.68,.72-.84,1.06,.3-.36,.63-.73,.99-1.11,0-.08-.03-.11-.15,.04Z"></path><path class="cls-5" d="M254.97,374.91c-.29,.17-.6,.38-.92,.61,.32-.13,.92-.45,.92-.61Z"></path><path class="cls-5" d="M249.69,379.99s-.03,.05-.05,.08c.21-.08,.16-.09,.05-.08Z"></path><path class="cls-5" d="M249.69,379.99c.18-.27,.28-.52,.4-.77-.24,.29-.46,.57-.63,.83,.08-.03,.16-.06,.23-.07Z"></path><path class="cls-5" d="M256.04,367.05s-.02-.06,0-.1l-.45-.11c.2,.04,.55,.41,.61,1.02,.07,.6-.18,1.34-.65,1.83-.19,.67,.04,1,.56,1.05,.5,.05,1.28-.23,1.93-.96-.07-.06-.14-.09-.15-.38-.03-.28,.08-.82-.1-1.94-.03,.2-.08,.61-.2,1.03-.12,.42-.31,.86-.51,1.17-.41,.63-.75,.89-.61,.2,.35-1.04,.38-1.53,.49-1.86,.09-.34,.24-.54,.2-1.2-.1,.44-.29,.09-.61-.33l-.76-1.01-.41,.73c-.36,.65-1.06,1.61-.57,1.78l1.04-1.24,.02-.02,.02,.03,.02,.04s-.05,0-.09-.02l.08,.02c-.02,.16-.16,.46,.17,.28Z"></path><path class="cls-5" d="M256.2,372.77l-.4,.54c.55-.54,1.04-.83,1.93-1.67,.52-1.26,.42-1.69,.35-1.81-.51,1.36-1.25,2.31-1.98,3.15l.1-.22Z"></path><path class="cls-5" d="M253.93,375.28c0-.63,.85-1.77-.08-1.47-1.17,1.26-.58,1.12-1.16,1.99,1.85-2.07-.38,.74,1.19-.53-.33,.44-.65,.82-.96,1.16,.39-.32,.77-.63,1.14-.9-.02,.01-.04,.02-.06,.03h0s0,0,0,0c-.12,.05-.17,.05-.06-.02,0-.01,.02-.04,.03-.05-.03-.06-.03-.13-.03-.2,.62-.52,.17-.01,.03,.2,0,.02,0,.05,.02,.07h.01s1.81-2.24,1.81-2.24c-.51,.48-1,.98-1.87,1.97Z"></path><path class="cls-5" d="M242.54,383.63c.09-.03,.11,0,.13,.01,.09-.16,.12-.24-.13-.01Z"></path><path class="cls-5" d="M243.54,383.02c-.1,.18-.1,.43-.6,.85-.5,.3-.14-.15-.26-.23-.21,.36-.78,1.18,.26,.47l.1-.18c.9-.67,2.31-1.29,2.21-1.12-.51-.05-.9-.04-1.7,.2Z"></path><path class="cls-5" d="M248.74,379.06l1.48-1.79-1.09,.58,.2,.12c-.99,.87-.59,.86-.59,1.1Z"></path><path class="cls-5" d="M258.47,369.27c.1,.2,.21,.41,.3,.62,.03-.78-.05-1.62-.32-2.41,.11,.62,.09,1.23,.02,1.79Z"></path><polygon class="cls-5" points="253.4 365.5 253.22 365.13 252.78 365.83 253.4 365.5"></polygon><path class="cls-5" d="M251.71,371.27l-.44,.53c.22-.24,.35-.4,.44-.53Z"></path><path class="cls-5" d="M255.44,368.11l-.03-.23c-.1,.23-.12,.35,.03,.23Z"></path><path class="cls-5" d="M201.16,418.18c-.82,.71-1.89,1.45-1.44,1.55l.54-.07c.28-.66,.59-1.12,.9-1.48Z"></path><path class="cls-5" d="M231.71,391.98c-.1,.04-.2,.08-.29,.12-.06,.28-.11,.53-.16,.77,.14-.27,.29-.57,.46-.89Z"></path><path class="cls-5" d="M230.9,390.23l1.1-.75c-.27,.14-.63,.38-1.1,.75Z"></path><path class="cls-5" d="M232.47,389.71l-.25,.87c.87-.87,.33-.64,.25-.87Z"></path><path class="cls-5" d="M230.36,385.86c-.75,.44-1.31,.84-1.77,1.22,.94-.5,1.81-.77,1.77-1.22Z"></path><path class="cls-5" d="M250.17,366.52c-.27,.33-.34,.51-.27,.58,.28-.34,.41-.56,.27-.58Z"></path><path class="cls-5" d="M226.74,388.72c.14-.07,.27-.15,.41-.23,.42-.47,.85-.94,1.44-1.42-.7,.36-1.42,.86-1.85,1.65Z"></path><path class="cls-5" d="M231.85,392.4c.06-.04,.13-.1,.19-.13-.03-.06-.1,.01-.19,.13Z"></path><path class="cls-5" d="M253.97,374.15c-.16,.23-.46,.57-.74,.9,.16-.14,.39-.41,.74-.9Z"></path><path class="cls-5" d="M244.18,373.31c.46-.44,.04-.1,0,0h0Z"></path><path class="cls-5" d="M247.64,372.56c-.07,.13-.11,.24-.05,.33-.03-.11,0-.22,.05-.33Z"></path><path class="cls-5" d="M223.86,395.01s-.02,.02-.04,.04c.2-.07,.16-.06,.04-.04Z"></path><path class="cls-5" d="M245.03,372.82c-.22,.12-.45,.26-.7,.44,.12-.06,.33-.19,.7-.44Z"></path><path class="cls-5" d="M244.8,372.75c.18-.13,.31-.24,.45-.33,.01-.11-.07-.09-.45,.33Z"></path><path class="cls-5" d="M243.53,373.91c.27-.24,.54-.45,.81-.64-.11,.06-.17,.08-.15,.04-.14,.13-.33,.31-.65,.6Z"></path><path class="cls-5" d="M202.48,422.43s-.06,.07-.09,.1c-.05,.63,.02,.37,.09-.1Z"></path><path class="cls-5" d="M206.84,415.11s-.02,.04-.04,.07c.02-.02,.05-.04,.08-.06h-.04Z"></path><path class="cls-5" d="M208.19,413.23c-.28,1.08-.72,1.43-1.31,1.88l1.43,.32-.12-2.2Z"></path><path class="cls-5" d="M243.07,379.14l1.44-.79c-.99,1.77-2.16,2.54-.69,1.94-.76-1.16,4.48-4.26,3.75-5.41l.97-.49c-.23,.19-.22,.28-.45,.47,1.96-.87,.49-1.74,2.6-3.34,.76-.53,1.38-.79,1.01-.26l1.33-1.59c.47-.37,.51-.09,.05,.27l2.31-2.11v.05c.21-.45,.77-1.35,1.06-1.78,.73-.36-.21,.37,.05,.37l.7-.86-2.67-1.08c.05,.11,.09,.23,.12,.36-.26,.24-.42-.06-.56-.31l3.38,1.38c-.25,.3-.58,.62-.93,.89,.75,0,1.07-.15,1.33-.41l-4.4-1.79c.03,.07,.2,.15,.23,.38,.02,.22-.1,.63-.81,1.16,.2-.36,.33-.69,.38-.95-.88,.1-1.04,.83-2.68,1.82,.26-.09,1.07-.49,1.62-.66,.55-.17,1-.22,.64,.5-.37,.28-.82,.69-1.35,1.63-.35-.33-.96,.47-1.8,1.39l-.4-.5c-.8,1.1-.49,1.25-.83,2.02-1.08,1.04-1.66,.92-2.2,.88-1.74,1.66,1.72-.65-.16,1.49-1.56,1.27-2.34,2.46-3.72,4.45-1.13,.86-.11-.45-.59-.21l-.49,1.25c-.22,.21-.26,.03-.29-.06-.58,.89,.4,.5-.61,1.81,.2,.81-3.08,1.72-3.91,3.73-.48,.24-.12-.45-.4-.51-1.55,2.37-1.38,1.99-2.45,4.13l-1.65,1.11c1.34-.7,.48,1.01-.29,2.49,.52-.21,.97-.38,1.24-.52l-1.52,2.08c-.29,.15-.27-.19-.17-.68-.08,.16-.16,.32-.21,.44-.8,.5-.74-.1-.55-.82,.31-.13,.62-.26,.92-.39,.16-.72,.26-1.45-.1-1.61-.06,.17-.24,.45-.46,.72,.04-.19,.04-.33-.06-.32-.11,.02-.19,.31-.36,.72l-.92-.07,.11,.3-2.64,2.1c-1.14,2.22-1.82,4.46-4.24,7.4,.28-1.04-.48-.74-.89-1.2,1.19-.29,1.84-2.32,3.3-3.64-.76,.69-.82,.33-.71,.07l-2,2.95c-.31-.41-.79,.27-1.58,.79,1.2,.19-1.33,2.35-2.1,3.59-.3-.17-.31-.65,.95-1.86-1.88,.87-.87,2.61-2.64,3.53,.29-.31,.48-.44,.48-.68-.47,.92-2.33,2.51-2.14,1.9l.29-.31c-2.04,1.96-5.96,6.2-5.64,7.09-.1-.06-.48-.98-.49-1.22l-1.43,5.62c-.22-.83-2.66-.8-1.33-2.78-.54,.41-1.21,.93-2,2.13,.39-.26,1.55-.09,1.17,.41-1.78,.68-1.14,.56-3.11,1.61,.59-.39,.89,.96,.11,1.72,0-.24-.88-.72-.69-1.09l-1.06,2.73c.32-.63-.6-.75-1.25-.53,.17-.02-.21,.37-.7,.85l3.27,2.24c.33-.62,.74-1.36,.85-1.7l-.73,.88c1.46-2.58-.06-3.36,1.49-5.97,0,.43,.76,1.48,1.68,.28-.06-.44-.25-1.46-.27-2.7,.01-1.22,.19-2.67,.8-3.91l.58-.23,.94-1.9c-.04,.79-.25,2.18-.47,3.61-.19,1.46-.47,2.91-.66,3.93,.81-.8,.48-.06,1.39-1.45,.59-.31-.12,1.01-.38,1.42,.78-1.02,1.53-2.06,2.35-3.05-.65-.25,1.21-2.78,.7-3-.67,1.27-1.34,2.53-1.94,3.82-.66-.24-.16-3.13,1.7-5.26,.65-.39,.61,1.16,.82,1.25,.05-.42,1.28-2.34,1.6-2.42-.17,.37-.32,.75-.47,1.14,1.16-1.03,.93-2.51,2.64-3.49,.46-.45,1.92-.84,1.7-1.19-1.26,.25-3.17-1.17-3.12-2.09,.18-.16,2.89-2.03,3.68-2.3,1.17-.36-.07,2.16,.93,1.86-.11-.16,.14-.74,.25-.97,.59-.38,.21,.59,1.19-.51-.31-.65,2.16-2.09,.08-.9,.88-1.17,1.18-.99,2.38-2.19-.69,.07,.05-2.15,1-3.29,.06,.19,.45,.13,.64,.09,2.22-1.99,3.62-2.83,5.7-4.68,.3-.05,1.44-.79,1.2-.19,.22-.35,.34-.77,.97-1.35,1.63-.66-1.37,1.33,.04,1.03-.18-.37,1.3-1.88,2.06-2.87-.69-.21-2.2,1.77-2.95,2.77-.56-.63,.45-2.71,2.38-4.91,1.6-1.68,1.11-.25,1.34-.6,3.37-2.75,1.82-3.54,4.93-5.46,1.43-.54,.75,.76,1.25,.85-1.28,1.39-2.4,1.65-3.35,2.5l1.35-.84c-.33,.53-1.19,1.46-1.81,1.79,1.22-.43,5.58-4.76,8.4-6.63,.33-.53,.98-1.34,.47-1.19l-.75,.75c-1.02,.31,1.11-1.76-.04-1.03,.87-1.17,1.76-2.58,3.42-3.71l.69,.21c-.15-.11-1.23,.59-1.53,1.1,.45-.75,2.86-1.4,3.02-2.6l-1.34,.6c.87-1.17,1.77-2.82,3.24-3.85-1.01,.08-.26,.32-1.68,.62,1.4-.06-3.44,2.96-1.51,2.5-1.52,.23-1.92,1.21-3.65,1.8,.17,.12,.71-.1-.48,.8-.01,.09-.08,.25-.13,.35-.04,.02-.05,.03-.09,.05,.03-.01,.05-.02,.08-.04-.03,.07-.03,.07,.03-.01,.33-.17,.61-.28,.77-.27-.25,.84-2.04,2.38-2.49,3.09-.73,.51,.13-.42-.38-.26l-.66,1.06c-.38-.26-2.26,.98-.86-.58l-1.42,1.22c-1,.54-2.21,1.46-2.79,2.22-.73,.51-1.35,1.84-1.01,1.07l-2.03,2.14-.09-.07c-2.22,1.87-4.01,4.49-7.03,6.1-.66,.74-1.32,1.51-2.62,2.53l-.5-.07c-.85,.94-3.06,2.31-3.18,2.97-1.72,.18-4.61,4.13-6.27,5.65l.31,.41c-1.1,1.09-1.99,2.3-3.12,3.86l.42,.21c-.81,1.48-3.01,3.01-4.6,5.12-.02-.24,.43-.74,.8-1.04-1.4,.9-2.22,2.38-3.01,3.81-.74,1.48-1.44,2.9-2.49,3.93-.24,.69-.56,1.1-.92,1.47,.03-.06,.06-.11,.07-.16-.04,.06-.1,.15-.16,.25-.23,.23-.46,.47-.7,.75,.24-.21,.46-.41,.62-.61-.26,.49-.62,1.25-.93,2.01l-.59,.07c-.03,.06-.05,.11-.08,.17-.55,.62-.11,.67,.41,.47-.14,.39-.21,.78-.24,1.09-.83,.19-.77,1.51-1.42,2.17l3.19,2.19c.15-.08,.32-.13,.5-.14,.08-.67,2.55-3.09,2.23-3.99,.1,.06,.3-.08,0,.24,.68-.57,1.37-1.14,1.75-1.88l.7,.15,.75-1.97c1.08-.59,1.58-.79,1.11,.38,1.43-2.54,1.39-1.84,2.53-4.07l.2,.36c.58-.63,1.15-1.98,1.74-2.13,1.87-.86,6.65-6.77,10.56-9.83-1.5-.12,1.96-1.29,1.45-2.05,.4-.02,.98-.4,.61,.34,1.54-2,2.93-2.42,3.58-4.2,.4-.02-.08,.67,.21,.6,.1-.19,.38-.74,.68-.82,.3-.07-.09,.43-.28,.8,1.74-1.88,1.31-2.66,.86-3.34,1.17-.68,1.58-1.18,1.86-2.22,.5-.15,1.22-.5,.18,.71,.65-.62,4.07-3.69,3.67-4.2,.31-.09,.9-.87,1.01-1.09,1.42-1.42,1.59-1.51,2.91-2.98l-.45,.32c-.02-1.1,1.01-1.3,2.05-2.52l.03,.09c2.93-2.25,.9-1.32,3.85-3.48l-.48-.19c-.51-.96,2.65-1.88,3.81-3.66l-.72,.35c.54-1.07,3.22-1.33,4.11-2.07,.24-.12-.17,.38-.36,.68,2.52-1.74-.18-.72,1.26-2.43,.53-.06,.25,.98,1.34-.06,.32-.16,.93-1.07,1.63-2.37,.34-.66,.69-1.42,.95-2.28,.26-.86,.39-1.81,.4-2.67l.03-3.53-3.67,2.05c-.11,.06-.23,.12-.34,.17,.17-.03,.33-.06,.44-.04l3.71,.48-.34,.89c-.09,.25-.2,.3-.31,.03l-1.79-4.23-1.07,3.06c-.03,.1-.13,.24-.29,.44-1.16,1.1-3.95,2.03-4.51,3.61-.2,.08-.3,.08-.35,.03-.8,.95-2.77,2.88-3.03,3.69-1.96-.51-5.12,5.66-6.12,4.52l-2.71,2.61-.03-.18c-1.83,1.56-2.19,2.42-2.55,3.27-.47,.31-.28-.08-.3-.17-2.76,2.19-2.96,2.51-4.54,5.1l-.56-.14c-.37,.76-4.16,3.02-6.16,5.9-.02-.06-.04-.18,.1-.43-2.3,3.16-7.42,5.78-7.07,8.06l-1.4,2.18c2.33-2.35,.25,.89,1.38,.09-.79,1.03-2.66,2.11-1.66,.87l.24-.12c-.31-1.07-3.01,2.82-3.42,2.33-2.15,2.45-4.36,4.75-6.51,7.15-2.14,2.4-4.19,4.97-5.66,7.93l.99-.34c-.36,.65-.68,1.32-.99,2.01-.36,.49-.86,.52-.16-.97-.78,.61-.69,2.7-.54,2.77-.6,1.48-.7,1.15-.72,.51-.01-.63,.15-1.52-.02-1.04-.13,.44-.25,.88-.34,1.33l.16-.28c0,.92,.19,1.2,.05,2.29l-.18,1.4,1.14,.39c.32,.11,.78,.27,1.37,.33,.91,.13,1.14,.13,1.25,.23,.11,.08,.09,.18,.44,.11,0,.04,.28,.04,.99-.31,1.16-.5,2.04-1.16,2.82-1.83-.43,.14-.88,.25-1.32,.35,.92-1.06,2.06-1.85,.68-1.39,2.08-.62,7.23-6.91,8.24-7.51,.84-1.49,1.98-2.67,3.42-4.1-.43,.28-1.11,.05,.15-1.16,.53,1.39,2.63-1.92,4.3-2.29-1.33,.48,3.3-3.73,1.27-2.91,1.08-.99,.43,.28,1.41-.32,1.99-2.89,5.47-5.37,8.25-8.66-.08-.17-.77,.18-.34-.68l2.18-1.08c.51-.69-.22-1.26,1.27-2-.26,.06-.64,.15-.3-.3,6.31-5.65,10.98-13.25,17.81-18.62-1.02,.65-.54,.05,.04-.63-.44,.38-.32-.3-.57-.37l2.85-2.27c-.07-.92,2.47-2.94,2.24-3.63l-.65,.93c.42-1.63-2.63,.51-3.21-.28-.47,1.83-3.85,2.53-4.76,5.4-.55,.33,.11-.59-.27-.5-.15,.8-.64,1.49-1.82,2.55l.04-.2c-2.84,3.37-4.39,4.51-7.89,8.02l.6,.04c-.76,.75-1.02,.82-1.44,1.11-.28,1.39,2.02-2.19,1.87-.84-1.65,.41-5.02,5.56-6.48,5.53-1.1,1.2,.73,.01-.38,1.22l-.51,.12v.56c-.76,.75-1.4,.9-1.61,.76,.2-.17,.45-.59,.62-.81-1.19,.79-2.55,2.97-2.96,3.24l1.2-1.03c-2.81,3.48-6.79,7.2-9.3,10.76l.39-.09c-1.96,2.68-1.98,1.76-4.33,4.51l.05-.13c-.34,.68-.92,1.46-1.62,2.16,.44-.84-1.55,.89-.94-.17-2.14,2.89-.97,1.52-2,3.8l-.64,.14c-.31,.81-.23,.98-1.42,2.35,.8-1.29-1.21,.44-.36-1.05-3.21,2.16-3.32,4.61-5.38,5.03-.48,1.96,2.69-1.95,2.17-1.1,.81-.35-.45,1.56-1.35,2.35-.43,.43-1.01,.57-1.73,.77-.69,.17-1.62,.5-2.32,.67,.14-.04,.12-.1,.28-.16-.48-.02-.58,.19-.87,.13l1.13,2.09c.06-.33,.16-.68,.37-1.03-.44-.84,.48-1.55-.19-2-.22,.85-.42,1.69-.5,2.55,.04-.73-.07-1.5,.02-2.37,.07-.88,.34-1.86,1.1-2.9,.04,.24-.07,1.01-.17,1.52,.5-.56,.44-1.33,1-1.89,.31,.29-.04,1-.4,1.88-.36,.88-.74,1.93-.63,2.74,.24-.31,.33-1.02,.44-1.55,.12-.53,.24-.86,.5-.34-.31-.71,0-1.35,.43-2.02,.41-.68,.94-1.39,1.1-2.44l.33,.36c.1-.3,.26-.96,.6-1.42-.03,.4-.04,.8-.06,1.19,.42-1.61,2.1-2.21,2.83-3.58-1.96,2.54-.9,.21-2,1.09,.95-1.79,1.59-2.05,2.27-2.31,.69-.27,1.44-.53,2.86-2.33-.37,.51-1.74,1.57-1.27,.7,.64-.6,1.55-1.35,2.09-1.59,1.93-2.36-.68,.03-.04-1.14,1.12-.4,.81-1.28,1.57-2.41l.37,.31c2.55-2.38-.14-1.37,2.25-3.44l-.4,1.43,.97-1.32,.18,.62c.9-1.58,1.34-1.93,2.64-3.1-.52,.06-.49-.76,.55-1.9,.93-.57-.07,.74,1.38-.9-.12,.56-.21,1.22-1.19,1.61,.05,.18-.11,.56-.06,.74,1.01-.61,1.99-2.02,2.54-2.6-.22,.21-.49,.45-.67,.54l1.7-2.76c.48-.23,.31,.15,.14,.53,.4-.5,.56-.97,1.18-1.68,.11,.45,.44,.69-.35,1.77l1.78-2.47c.26-.03,1.41-.78,1.24-.4,1.34-1.02,2.33-3.45,4.13-4.79,.03-.14,.14-.35,.44-.72,1.55-1.4,3.2-2.34,4.62-4.43l1.5-.45c1.29-1.45-1.98,.66,.17-1.75,1.52-1.72,1.03-.14,1.75-.54,.58-1.03,1.54-2.91,3.48-3.89-.42,.57-.89,.85-1.34,1.33Zm9.82-12.28c.2-.38,.32-1.1,.65-1.13,.3,.58-.11,.74-.65,1.13Zm-24.3,27.02c.12-.36,.55-.69,1.1-1-.27,.34-.63,.69-1.1,1Zm10.59-15.69s-.02,.03-.02,.05c-.9,.54-.58,.35,.02-.05Zm1.76-1.26c.12-.19,.06-.23-.05-.22-.03,.19-.39,.52-.83,.85,.2,0,.47-.12,.88-.63Zm-38.29,51.32c-.22,.02-.41,.04-.64,.03,.68-.22,.87-.33,.91-.31,.03,.02-.1,.15-.27,.27Z"></path><path class="cls-5" d="M230.99,390.44c.15-.04,.24,0,.33,.04,.07-.19,0-.26-.33-.04Z"></path><path class="cls-5" d="M232.51,389.55l-.06,.05s0,.08,0,.11l.05-.16Z"></path><path class="cls-5" d="M219.08,402.33c-.35,.27-.58,.38-.76,.44,.07,.1,.28,.02,.76-.44Z"></path><path class="cls-5" d="M249,368.81l-.96,1c.49-.46,.74-.53,1.04-.7-.1-.06-.4-.01-.08-.3Z"></path><path class="cls-5" d="M254.17,371.61c-.09,.19-.28,.32-.37,.51l.2,.11c.58-.65,.81-1.24,.17-.62Z"></path><path class="cls-5" d="M251.01,369.17c.35,.23,.91-.44,1.59-1.13-.04,.04-.08,.08-.13,.11-.16-.61-.81,.2-1.46,1.02Z"></path><path class="cls-5" d="M252.76,367.88c.21-.21,.43-.42,.67-.6-.06-.25-.3,.2-.67,.6Z"></path><path class="cls-5" d="M242.83,374.93c.41-.22-.12-.58,.18-.63,.05-.73-1.89,2.48-.18,.63Z"></path><polygon class="cls-5" points="252.48 369.67 251.89 369.52 251.75 370.18 252.48 369.67"></polygon><path class="cls-5" d="M246.5,374.41l1.25-.91c-.07-.05,.04-.21,.2-.4-.73,.61-1.58,1.22-1.45,1.31Z"></path><path class="cls-5" d="M247.95,373.1c.38-.32,.73-.64,.88-.88-.2,.18-.62,.57-.88,.88Z"></path><polygon class="cls-5" points="250.99 371.17 250.58 371.39 249.74 372.08 250.99 371.17"></polygon><path class="cls-5" d="M233.94,385.26l-1.17,1.22c-.02,.24,.4,.02,.83-.45,.22-.36,.65-.82,.35-.77Z"></path><path class="cls-5" d="M238.68,382.94c-.41,.22-.51,.16-.81,.2l.37,.5,.44-.7Z"></path><path class="cls-5" d="M235.08,386.28c-.01,.24-1.51,1.98,.07,.55,.02-.24,1.19-1.46-.07-.55Z"></path><polygon class="cls-5" points="216.07 403.03 216.36 402.71 215.58 402.06 216.07 403.03"></polygon><path class="cls-5" d="M204.94,422.05c1.15-1.55-.32-.71,.79-2.07,.01-.52-.91,1.12-.87,.61-.35,1.15-.78,1.61,.07,1.46Z"></path><path class="cls-5" d="M204.87,420.59c.06-.18,.11-.38,.16-.6-.11,.33-.15,.49-.16,.6Z"></path><polygon class="cls-5" points="257.47 370.95 258.47 370.11 257.67 370.52 257.47 370.95"></polygon><path class="cls-5" d="M258.51,368.59l.69,.19,.06-.97c-.17,.24-.49,.7-.75,.77Z"></path><path class="cls-5" d="M249.61,368.44l.04,.18c.26-.03,.48-.23,.91-.65l-.96,.47Z"></path><polygon class="cls-5" points="250.92 372.8 251.15 372.62 250.34 372.54 250.92 372.8"></polygon><path class="cls-5" d="M240.68,383.08c.45-.39,.87-.95,1.32-1.34-.87,.96-1.94,.92-1.32,1.34Z"></path></g></g></svg>