<svg transform="scale(1)" id="_0969_Page_Not_Found_3" xmlns="http://www.w3.org/2000/svg" viewBox="0 0 500 500" class="show_show__wrapper__graphic__5Waiy "><title>React</title><defs><style>.cls-1{fill:#fff;}.cls-2{fill:#9e9e9e;}.cls-3{opacity:.11;}.cls-4{fill:#0a0a0a;}</style></defs><g id="character"><g><path class="cls-4" d="M93.91,400.95c-11.74,7.46-21.45,18.07-27.85,30.42,27.02-4.66,52.9-14.26,78.6-23.82,.51-.19,1.06-.41,1.35-.87,.51-.81-.03-1.86-.56-2.66-3.24-4.86-6.48-9.73-9.72-14.59"></path><path class="cls-4" d="M93.01,400.54c-11.92,7.61-21.76,18.26-28.3,30.81-.39,.74,.61,.89,1.14,.79,14.02-2.44,27.78-6.15,41.32-10.52,6.77-2.19,13.49-4.52,20.18-6.93,3.28-1.18,6.56-2.39,9.84-3.59,1.64-.6,3.27-1.21,4.91-1.82,1.43-.53,3.06-.92,4.34-1.74,1.42-.91,1.43-2.23,.64-3.6-.91-1.56-2-3.03-3-4.54-2.34-3.51-4.68-7.03-7.02-10.54-.52-.78-3.33,.16-2.69,1.12,1.89,2.84,3.78,5.68,5.67,8.51,.9,1.35,1.8,2.7,2.7,4.05,.6,.9,2.82,3.28,1.65,4.31-.42,.37-1.57,.59-2.09,.78-.74,.28-1.49,.55-2.23,.83-1.64,.61-3.27,1.21-4.91,1.82-3.13,1.15-6.26,2.3-9.39,3.43-12.4,4.46-24.91,8.66-37.66,12.04-7.22,1.91-14.5,3.56-21.85,4.84,.38,.26,.76,.53,1.14,.79,6.35-12.19,15.81-22.63,27.4-30.03,.44-.28,.81-.73,.26-1.09-.51-.34-1.59-.01-2.05,.28h0Z"></path></g><g><path class="cls-4" d="M213.33,445.4c-4.85,6.23-9.7,12.46-14.55,18.69,10.75,6.25,22.2,11.3,34.07,15.03,1.6,.5,3.28,.99,4.92,.67,.92-.18,1.78-.6,2.62-1.01,9.66-4.78,19.32-9.56,28.98-14.34-5.13-6.99-9.22-14.75-12.11-22.93"></path><path class="cls-4" d="M211.91,445.67c-4.85,6.23-9.7,12.46-14.55,18.69-.05,.09-.03,.16,.06,.22,8.91,5.16,18.26,9.51,27.95,12.97,4.29,1.53,9.09,3.87,13.67,2.32,2.37-.8,4.62-2.15,6.86-3.26,2.45-1.21,4.9-2.43,7.36-3.64,5.65-2.79,11.3-5.59,16.94-8.38,.07-.03,.77-.35,.62-.54-5.12-7.02-9.2-14.74-12.11-22.93-.22-.63-3.08,.25-2.9,.78,2.91,8.19,6.98,15.91,12.11,22.93l.62-.54c-5.94,2.94-11.89,5.88-17.83,8.82-2.97,1.47-5.94,2.94-8.92,4.41-1.15,.57-2.48,1.52-3.74,1.78-1.66,.34-3.77-.63-5.32-1.13-5.78-1.87-11.47-4.07-17.01-6.56-2.8-1.26-5.57-2.59-8.3-4-1.36-.7-2.72-1.43-4.06-2.17-.6-.33-1.21-.67-1.81-1.01-.19-.11-.93-.39-1-.57-.18-.47,.31-.85,.57-1.18,4.55-5.84,9.09-11.68,13.64-17.52,.31-.39-1.07-.24-1.15-.23-.56,.1-1.34,.29-1.71,.76h0Z"></path></g><g><path class="cls-4" d="M95.48,258.29c-23.36,12.04-34.98,39.98-35.02,66.26-.04,26.28,9.42,51.53,18.75,76.1,.71,1.86,1.64,3.94,3.53,4.54,1.1,.35,2.28,.11,3.41-.13,20.84-4.48,41.68-8.96,62.51-13.44-7.66-17.67-12.53-36.54-14.37-55.71-1.02-10.67,.18-23.73,9.76-28.54,1.63-.82,3.48-1.33,5.28-1.05,4.13,.64,6.52,4.93,8.21,8.75,10.4,23.41,18.49,47.84,24.12,72.83,1.07,4.75,17.12,62.04,18.61,61.67,22.07-2.94,44.38-4.12,66.65-3.52-15.26-56.21-30.53-112.42-45.79-168.62"></path><path class="cls-4" d="M94.61,257.96c-11.32,5.88-20.11,15.51-26.01,26.73-6,11.43-9.08,24.32-9.53,37.18-.59,16.48,2.94,32.87,7.8,48.53,2.49,8.04,5.36,15.95,8.32,23.82,.74,1.98,1.49,3.96,2.25,5.94,.57,1.5,1.11,3.09,2.17,4.32,2.54,2.97,7.22,1.08,10.38,.4,17.42-3.74,34.84-7.49,52.26-11.23,2.2-.47,4.4-.94,6.59-1.42,.28-.06,1.5-.51,1.29-1-5.55-12.83-9.65-26.28-12.18-40.03-1.17-6.37-2.18-12.87-2.44-19.35-.2-5.07,.15-10.32,1.93-15.11,.81-2.19,1.94-4.25,3.5-5.99,1.66-1.85,4.24-3.83,6.83-3.79,2.84,.04,4.99,2.42,6.38,4.66,1.58,2.54,2.68,5.4,3.85,8.15,5.59,12.99,10.46,26.29,14.61,39.81,2.07,6.76,3.96,13.58,5.67,20.44,.84,3.39,1.56,6.81,2.44,10.19,1.37,5.2,2.83,10.38,4.29,15.56,3.76,13.33,7.39,26.78,11.94,39.86,.46,1.32,.87,2.79,1.59,4,.47,.78,1.12,.66,2.01,.55,3.57-.47,7.15-.9,10.73-1.28,14.7-1.56,29.48-2.32,44.26-2.3,3.6,0,7.2,.06,10.81,.15,.44,.01,2.24-.36,2.04-1.11-5.95-21.92-11.91-43.84-17.86-65.76-5.95-21.92-11.91-43.84-17.86-65.76-3.36-12.37-6.72-24.73-10.07-37.1-.23-.86-3.13-.09-2.9,.78,5.95,21.92,11.91,43.84,17.86,65.76,5.95,21.92,11.91,43.84,17.86,65.76,3.36,12.37,6.72,24.73,10.07,37.1,.68-.37,1.36-.74,2.04-1.11-15.06-.4-30.14,0-45.16,1.22-3.71,.3-7.42,.65-11.12,1.04-1.71,.18-3.42,.38-5.13,.58-.5,.06-5.55,.87-5.6,.71,.04,.11,.99,.02,.99,.08s-.11-.32-.03-.02c-.06-.2-.22-.41-.31-.61-.31-.67-.57-1.38-.83-2.08-2.02-5.52-3.67-11.19-5.36-16.82-2.25-7.5-4.42-15.03-6.55-22.57-1.58-5.58-3.15-11.16-4.64-16.77-.75-2.83-1.36-5.7-2.05-8.55-1.66-6.87-3.51-13.7-5.55-20.47-4.16-13.85-9.08-27.47-14.74-40.77-1.24-2.91-2.4-5.91-3.95-8.67-1.22-2.16-2.77-4.24-5.06-5.35-4.95-2.4-11.12,.99-14.38,4.77-6.87,7.97-5.88,20.2-4.7,29.89,1.73,14.18,5.11,28.16,10.05,41.57,1.18,3.21,2.46,6.38,3.81,9.51l1.29-1c-16.85,3.62-33.7,7.24-50.55,10.86-2.12,.45-4.23,.91-6.35,1.36s-4.19,1.03-6.29,1.33c-3.85,.55-4.97-5.16-5.98-7.83-2.89-7.65-5.74-15.31-8.28-23.09-5-15.32-8.84-31.2-9.13-47.39-.22-12.69,2.11-25.49,7.21-37.14,4.94-11.26,12.69-21.58,23.18-28.21,1.31-.83,2.66-1.59,4.04-2.31,.43-.22,.82-.65,.3-.97s-1.57,.07-2.04,.31h0Z"></path></g><g class="cls-3"><path class="cls-1" d="M100.48,271.13c6.45,7.85,15.8,12.73,25.17,16.67,26.74,11.26,55.93,16.64,84.92,15.68,4.71-.16,10.65-1.49,11.5-6.13,.98-5.29-5.56-8.5-10.79-9.77-34.84-8.43-70.23-14.57-105.87-18.35"></path><g><path class="cls-1" d="M105.46,271.68c-.37-.08-.28,.35-.34,.42,.63-.02,.34-.53,.34-.42Z"></path><polygon class="cls-1" points="111.72 271.42 111.6 271.57 112.55 271.26 111.72 271.42"></polygon><path class="cls-1" d="M117.49,272.1c-.46-.77-2.1-.13-3.1-.51l-.15-.18-.53,.52c1.26,.06,2.92-.13,3.78,.17Z"></path><path class="cls-1" d="M120.37,274.02c-.15-.3,.69-.15-.7-.18,.07,.04,.08,.06,.12,.09,.12,.01,.29,.03,.58,.09Z"></path><path class="cls-1" d="M119.78,273.93c-.61-.06,.37,.28,0,0h0Z"></path><path class="cls-1" d="M122.6,274.12l-.83,.14c.15,.18,.85,.31,.57,.4,.83-.03,.69-.21,.26-.54Z"></path><path class="cls-1" d="M123.42,273.7l-.43,.05c.06,.08,.17,.11,.43-.05Z"></path><path class="cls-1" d="M122.09,273.86l.9-.11c-.1-.13-.08-.36-.41,.03,.1-.2-.1-.02-.49,.08Z"></path><path class="cls-1" d="M121.61,273.69c-.43-.21-.99-.38-.16-.52-1.54-.1-1.38,.43,.16,.52Z"></path><path class="cls-1" d="M117.87,271.41l-.58-.28-.55,.18c.27-.09,1.13,.33,1.12,.1Z"></path><path class="cls-1" d="M127.51,275.14c.07-.14-.21-.44-.25-.64l-.61,.09c.29,.14,.85,.32,.86,.54Z"></path><path class="cls-1" d="M127.26,274.5l.92-.14c-.78-.14-.94-.03-.92,.14Z"></path><polygon class="cls-1" points="123.66 272.93 122.14 273.29 123.94 272.96 123.66 272.93"></polygon><polygon class="cls-1" points="130.87 275.61 130.32 275.9 131.28 275.49 130.87 275.61"></polygon><path class="cls-1" d="M133.1,275.87c-.41,.24,.44,.56,.02,.68,.61,.04,1.16-.14,1.66-.29-.51,.05-1.03-.05-1.68-.39Z"></path><path class="cls-1" d="M135.61,276.04c-.26,.03-.53,.12-.83,.21,.27-.03,.54-.09,.83-.21Z"></path><path class="cls-1" d="M129.67,274.64c.06,.1,.15,.36,.63,.52l-.29-.47c-.11-.02-.22-.03-.35-.05Z"></path><path class="cls-1" d="M130,274.68v.02c.38,.06,.64,.11,.76,.12-.1-.02-.32-.06-.76-.14Z"></path><path class="cls-1" d="M129.58,274.63s.06,0,.09,.01c-.03-.05-.05-.06-.09-.01Z"></path><path class="cls-1" d="M125.93,273.62c.55-.17,1.66-.27,.67-.78-.41,.24,.16,.53-.67,.78Z"></path><path class="cls-1" d="M129.22,274.04l-.92-.22c0,.11,.15,.3-.12,.38l1.04-.16Z"></path><polygon class="cls-1" points="129.7 273.97 129.22 274.04 129.57 274.12 129.7 273.97"></polygon><path class="cls-1" d="M134.07,275.42c.43-.13,.87-.08,1.38-.04-.52-.16-1.07-.28-1.59-.36-.09,.12-.36,.33,.22,.39Z"></path><path class="cls-1" d="M132.1,275.01s.06,0,.09-.01c-.05-.04-.09-.06-.09,.01Z"></path><polygon class="cls-1" points="140.35 276.11 140.29 276.02 140.26 276.09 140.35 276.11"></polygon><path class="cls-1" d="M133.77,274.93c-.39-.14-.65-.07-.89,.03,.31,0,.63,.02,.97,.06,.04-.06,.05-.09-.08-.09Z"></path><path class="cls-1" d="M137.01,276.04c-.2-.12-.42-.23-.66-.33,.19,.16,.57,.43,.66,.33Z"></path><path class="cls-1" d="M132.31,275.14h-.06c.12,.12,.11,.07,.06,0Z"></path><path class="cls-1" d="M132.31,275.14c.22-.03,.39-.11,.57-.18-.25,0-.48,.01-.69,.04,.05,.04,.09,.09,.12,.14Z"></path><path class="cls-1" d="M142.25,273.62c-.13,.38-1.24,.58-2.09,.02-.94,.16-.55,1.54,.13,2.37,.05-.17,.08-.32,1.04-.42-.29-.26-1.97-.81-1.14-1.05,1.25-.02,.98,.29,1.55,.59-.43-.56,1.67-.47,1.51-1.23l-1.11,.09c0-.11,.41-.23,.13-.38Z"></path><path class="cls-1" d="M138.53,275.71h-.39c.42,.12,.71,.33,1.23,.72,.66-.1,.81-.22,.88-.34l-1.86-.34,.14-.04Z"></path><path class="cls-1" d="M136.44,275.46c.36-.38,1.3-.43,.81-.98-1.12-.13-.83,.24-1.53,.33,1.82,.15-.55,.16,.71,.59-.36,.02-.69,0-.99-.03,.32,.1,.62,.21,.9,.33-.01-.01-.02-.02-.04-.03h0c-.07-.07-.09-.11,0-.06,0,0,.03,0,.04,0,.02-.06,.06-.1,.1-.15,.51,.16,.07,.12-.1,.15,0,.02-.03,.04-.03,.06h0s1.84,.03,1.84,.03c-.37-.11-.85-.17-1.71-.24Z"></path><path class="cls-1" d="M127.68,272.05c.05,.05,.04,.08,.04,.11,.12-.04,.17-.07-.04-.11Z"></path><path class="cls-1" d="M128.39,272.41c-.14,.04-.27,.2-.69,.1-.35-.18,.03-.2,.03-.35-.27,.08-.94,.18-.16,.5l.14-.04c.71,.25,1.57,.9,1.44,.95-.16-.41-.31-.71-.74-1.15Z"></path><path class="cls-1" d="M132.49,273.82h1.53s-.71-.47-.71-.47v.23c-.84-.21-.69,.09-.82,.25Z"></path><polygon class="cls-1" points="140.49 276.34 140.23 276.76 141.19 276.26 140.49 276.34"></polygon><polygon class="cls-1" points="142.45 276.59 142.32 276.97 142.87 276.81 142.45 276.59"></polygon><path class="cls-1" d="M198.83,305.89l-.45,.1c.21-.03,.35-.06,.45-.1Z"></path><path class="cls-1" d="M202.11,305.96l.08-.19c-.15,.11-.22,.19-.08,.19Z"></path><path class="cls-1" d="M190.04,285.28c.56,.5,1.14,1.21,1.16,.76l-.1-.47c-.46-.02-.79-.14-1.06-.29Z"></path><path class="cls-1" d="M221.46,293.44c0-.08,0-.16,.01-.23-.21-.06-.4-.11-.58-.14,.18,.1,.36,.23,.57,.38Z"></path><path class="cls-1" d="M223.29,293.06c.06,.39,.14,.76,.16,1.14,.03-.27-.04-.63-.16-1.14Z"></path><path class="cls-1" d="M180.96,305.11l-.58,.38c.82,.09,.49-.17,.58-.38Z"></path><path class="cls-1" d="M162.38,279.73c.52,.26,.95,.41,1.33,.5-.62-.36-1.09-.83-1.33-.5Z"></path><path class="cls-1" d="M200.21,301.32c-.27,.08-.39,.16-.38,.26,.28-.07,.44-.15,.38-.26Z"></path><path class="cls-1" d="M165.3,280.52c-.09-.06-.18-.1-.27-.15-.42,0-.83-.02-1.32-.13,.46,.27,1,.48,1.59,.29Z"></path><path class="cls-1" d="M118.74,287.42s-.08-.07-.11-.11c-.04,.05,.02,.08,.11,.11Z"></path><path class="cls-1" d="M105.5,273.67c.14,.1,.36,.29,.57,.47-.08-.11-.26-.24-.57-.47Z"></path><path class="cls-1" d="M150.25,278.01c-.42-.04-.07,.04,0,0h0Z"></path><path class="cls-1" d="M148.51,275.99c.1-.03,.17-.08,.2-.18-.05,.1-.12,.15-.2,.18Z"></path><path class="cls-1" d="M169.89,278.62s.02,0,.04,0c-.11-.11-.09-.09-.04,0Z"></path><path class="cls-1" d="M149.66,277.71c.15,.08,.32,.15,.51,.21-.08-.05-.23-.11-.51-.21Z"></path><path class="cls-1" d="M149.71,277.93c-.14-.04-.25-.07-.35-.1-.06,.06-.02,.12,.35,.1Z"></path><path class="cls-1" d="M150.82,278.08c-.24-.03-.45-.09-.66-.15,.08,.04,.11,.07,.08,.08,.12,.01,.29,.03,.58,.07Z"></path><path class="cls-1" d="M151.73,298.07s-.05-.04-.08-.06c-.46,.07-.27,.09,.08,.06Z"></path><path class="cls-1" d="M201.66,283.25s-.03,0-.05,0c.02,0,.04,.02,.06,.03v-.04Z"></path><path class="cls-1" d="M203.2,283.27c-.75,.38-1.09,.24-1.54,.02l.21,1.33,1.33-1.35Z"></path><path class="cls-1" d="M191,305.66l1.05,.46c-1.33,.56-2.26,.28-1.28,.89,.24-1.35,4.18,.13,4.4-1.25l.69,.31c-.2-.02-.24,.06-.44,.04,1.35,.7,1.06-.95,2.81-.69,.61,.13,1.04,.34,.61,.48,.46-.1,.92-.19,1.38-.3,.4,.03,.3,.26-.1,.24l2.09-.09-.02,.04c.3-.21,.98-.54,1.31-.67,.53,.2-.27,.14-.13,.31l1.15-.32c.47,.36-.48,.69-1.29,.63,1.08,1.35,.96-.3,3.3,.44l-1.09,.19c.71,.76,1.57,.46,2.82,.92-.3-.25-2.51-1.16-1.25-1.52,.36,.1,.82,.14,1.5-.15,.02,.48,.68,.35,1.51,.31l-.04,.64c.89-.2,.83-.53,1.37-.85,1.07,0,1.34,.46,1.64,.84,1.77-.11-1.29-.64,.75-1.01,1.46,.02,2.47-.42,4.03-1.38,1.07-.18-.04,.43,.38,.47,.24-.28,.47-.54,.69-.84,.22-.09,.22,.08,.21,.17,.65-.54-.2-.57,.8-1.35-.04-.38,.62-.49,1.41-.87,.8-.33,1.69-1.15,1.75-2.11,.34-.32,.26,.37,.54,.37,.33-1.29,.28-1.82,.29-2.3-.03-.24-.07-.46-.14-.75-.06-.28-.15-.62-.38-1.08,.13-.54,.13-1.09,.12-1.67-.08,.67-.36,.61-.7,.33-.17-.15-.38-.32-.6-.52-.22-.2-.44-.41-.69-.57,0,.4-.11,.75-.12,.94-.15-.22-.3-.43-.5-.61-.19-.19-.35-.38-.57-.53-.03-.21,.23-.23,.62-.18-.11-.06-.22-.11-.31-.14-.18-.6,.27-.63,.85-.47,.05,.24,.04,.51,.04,.76,.57,.14,1.15,.38,1.44,.13-.11-.1-.29-.3-.47-.51,.16,.06,.29,.08,.31,0,.02-.09-.22-.21-.52-.4,.12-.27,.22-.53,.31-.8l-.3,.08c-.22-.4-.45-.8-.72-1.15-.26-.38-.54-.72-.83-1.04-1.93-.59-3.65-.37-6.08-1.02,.77-.26,.44-.74,.69-1.31,.42,.85,2.01,.53,3.21,1.38-.61-.44-.33-.61-.11-.61-.85-.25-1.7-.43-2.53-.56,.25-.45-.34-.55-.88-.98,.11,1.1-1.95,0-2.99,.09,.02-.33,.35-.64,1.5-.2-1.1-1.12-1.99,.67-3.02-.24,.28,.06,.41,.14,.56,0-.71,.14-2.21-.46-1.78-.66l.27,.06c-1.79-.55-5.52-1.32-5.99-.54,0-.11,.47-.94,.62-1.09l-3.88,2.05c.45-.65-.26-2.59,1.34-2.65-.41-.2-.92-.44-1.89-.4,.27,.17,.5,1.2,.08,1.17-.93-1.04-.67-.61-1.89-1.58,.41,.25-.33,1.26-1.03,1.07,.15-.14,.19-1.12,.47-1.18l-1.99,.71c.48-.1,.28-.91-.04-1.31,.13,.25-1.5-.35-1.99-.35l.68,.42c-1.93-.6-2.28,1.11-4.22,.65,.29-.18,.88-1.27-.08-1.62-.58,.47-2.59,2.28-4.41,2.35l-.26-.39-1.4,.1c1-.69,3.69-1.98,5.11-2.4-.68-.41-.13-.42-1.24-.63-.33-.38,.7-.33,1.03-.28l-2.54-.74c-.02,.68-2.11,.26-2.12,.82l2.94-.1c-.02,.68-2.01,1.52-3.81,1.04-.41-.36,.59-1.1,.59-1.33-.28,.18-1.82,.08-1.96-.11l.85-.19c-.97-.45-1.84,.54-2.93-.34-.41-.13-1.09-1.1-1.24-.72,.54,.89,.21,3.24-.36,3.72-.14-.08-2.07-1.15-2.48-1.62-.58-.73,1.32-1.2,.83-1.83-.06,.18-.49,.32-.66,.36-.41-.24,.29-.52-.69-.63-.29,.64-1.95-.44-.57,.48-.98,0-.98-.33-2.09-.52,.27,.5-1.27,1.28-2.25,1.3,.09-.16-.08-.42-.17-.54-1.92-.42-2.9-.92-4.71-1.26-.14-.19-.97-.54-.55-.77-.28,.07-.56,.26-1.12,.17-.97-.77,1.26,.13,.56-.71-.14,.38-1.54,.28-2.38,.38,.14,.65,1.81,.44,2.65,.34-.15,.83-1.69,1.46-3.64,1.51-1.53-.06-.56-.65-.84-.58-2.79-.64-2.65,1.04-4.88,.04-.84-.69,.14-1.06,0-1.48,1.26,0,1.82,.65,2.65,.77l-.98-.42c.42-.11,1.26-.11,1.68,.12-.7-.61-4.75-.9-6.85-1.7-.42,.12-1.11,.19-.83,.46l.7,.04c.56,.53-1.39,.38-.55,.72-.97,.15-2.08,.46-3.34,0l-.15-.64c0,.18,.79,.5,1.19,.37-.58,.18-1.86-1.14-2.58-.44l.85,.57c-.98,.15-2.22,.62-3.34,.25,.43,.68,.28-.03,.99,.8-.57-.99,2.94,.5,1.94-.59,.71,.95,1.4,.58,2.38,1.45,0-.21-.33-.44,.62-.19,.05-.05,.17-.11,.24-.14,.03,.01,.04,.02,.06,.03l-.05-.03s.05-.03-.02-.01c-.22-.12-.38-.26-.44-.38,.55-.38,2.09-.12,2.65-.27,.56,.19-.28,.19,0,.45l.83-.22c0,.46,1.4,.99,0,1.02l1.21,.22c.67,.37,1.64,.63,2.27,.55,.56,.19,1.53-.25,.97,.02l1.95,.05v.11c1.86,.39,3.99-.05,5.99,1.13,.65,0,1.33,0,2.36,.31l.13,.42c.83,.02,2.36,.83,2.78,.5,.68,1.18,3.88,.98,5.26,1.44l.15-.49c.97,.22,1.94,.25,3.19,.3v-.45c1.13-.15,2.64,.86,4.3,1.15-.15,.15-.56,.02-.83-.15,1.77,1.39,4.31,.14,5.95,1.24,.48-.06,.79,.06,1.08,.23-.04,0-.08,0-.12,0,.04,.01,.11,.03,.18,.04,.18,.12,.36,.25,.57,.36-.16-.15-.32-.27-.47-.35,.35,.06,.88,.12,1.41,.12l.12,.52s.08,0,.12,.01c.46,.28,.45-.13,.26-.55,.27-.02,.53-.06,.74-.14,.24,.85,1.4,.04,1.77,.97,.43-.32,2.63,.27,3.09-.5,0,.11,.13,.2-.15,.14,.55,.22,1.1,.44,1.66,.32l.11,.65,1.42-.52c.67,.54,.93,.82,.08,1.11,1.97-.29,1.53,.07,3.22-.28l-.16,.37c.55,.11,1.55-.2,1.81,.2,.53,.51,2.04,.9,3.79,1.33,1.79,.44,3.68,.89,4.94,1.78-.11-1.3,1.09,.99,1.53,.23,.05,.32,.34,.63-.19,.65,1.47,.41,1.65,1.39,2.85,1.34-.06,.31-.47,.14-.46,.35,.11,.02,.47,.08,.47,.29,0,.21-.3,.06-.52,.03,.98,.75,1.62,.3,2.31-.13,.09,.4,.18,.65,.31,.83,.15,.18,.39,.28,.71,.41-.13,.34-.26,.75-.64,.09,.03,.1,.09,.31,.17,.56,0,.26,.12,.54,.1,.83,0,.14,.03,.28,.04,.41,0,.13,0,.26,.01,.37,.04,.22,.12,.39,.27,.43-.21,.1-.18,.6-.19,.73-.45,.9-.56,.92-1.25,1.69l.29-.12c.21,.85-.56,.78-1.31,1.29l-.02-.08c-1.07,.26-1.27,.36-1.47,.51-.19,.13-.4,.28-1.54,.26l.24,.43c.03,.52-.51,.51-1.19,.4-.68-.1-1.48-.31-2.11-.05l.5,.22c-.34,.22-.89-.09-1.41-.46-.52-.38-1.02-.83-1.41-.9-.17-.09,.25-.15,.48-.22-1.97-.57-.23,.63-1.69,.81-.28-.33,.32-.87-.65-.91-.49-.28-2.83,1.18-4.17,.5,.29,.26,.59,.53-.09,.72-1.05,.09-2.8-1.01-3.75-.19-.13-.07-.18-.14-.18-.21-.8,.19-2.59,.26-3.09,.69-.34-.84-1.58-.67-2.73-.51-1.15,.15-2.22,.31-2.16-.45l-2.45-.07,.08-.15c-1.55-.21-2.13,.08-2.71,.41-.35-.14-.08-.25-.04-.33-2.25-.52-2.48-.44-4.46,.09l-.14-.52c-.55,.21-3.19-1.11-5.48-.88,.03-.05,.09-.14,.27-.19-1.29,.11-2.73-.44-3.99-.82-1.26-.41-2.34-.63-2.95,.18l-1.72,.16c2.1,.5-.46,.72,.37,1.16-.86-.03-2.07-.92-1.03-.82l.15,.12c.54-.84-2.57-.84-2.39-1.46-1.04-.2-2.07-.42-3.09-.67-1.01-.29-2.01-.57-3-.85-1.98-.56-3.9-1.21-5.81-1.72l.26,.82-1.33-.38c-.31-.25-.32-.67,.62-.4-.4-.52-1.69-.08-1.76,.06-1.78-.81,.95-.62,.38-.8l-.79-.17,.15,.13c-.71,.11-.85,.4-1.98,.04-.68-.35-.25-.54-.52-.65,.02-.05-.07-.1-.43-.14-.55-.18-1.11-.35-1.65-.54l.5,.75c-.82,.06-1.56-.51-.98,.36-.84-1.31-6.11-2.29-6.69-2.87-1.16,.04-2.18-.3-3.41-.8,.27,.23,.23,.91-.81,.43,.85-1.11-1.77-1.28-2.29-2.5,.27,.44-.5,.2-1.23,0-.73-.2-1.41-.37-.97,.29-.85-.46,.13-.49-.42-1.05-2.3-.37-4.51-2.17-7.1-3.16-.11,.14,.2,.58-.45,.57l-.97-1.41c-.53-.15-.89,.7-1.53-.28,.06,.19,.16,.49-.2,.38-2.26-1.58-4.78-2.72-7.17-4.13-2.38-1.4-4.66-3.08-6.13-5.45,.32,.73-.06,.44-.49,.08,.22,.3-.3,.32-.4,.54-.44-.66-.81-1.36-1.2-2.03-.76,.17-1.7-1.71-2.31-1.48l.56,.47c-1.21-.23-.29,2.12-1.05,2.69,.69,.13,1.01,.86,1.44,1.64,.43,.78,1.01,1.57,2.12,1.71,.2,.41-.47,.02-.44,.32,.64-.02,1.12,.29,1.85,1.08h-.16c2.45,1.72,3.28,2.77,6.03,4.73l.03-.54c.59,.42,.65,.62,.88,.89,1.07-.21-1.73-1.04-.68-1.35,.32,1.34,4.38,2.46,4.47,3.69,.98,.5-.04-.63,.94-.14l.13,.39,.42-.22c.62,.37,.79,.86,.71,1.1-.15-.1-.48-.15-.66-.22,.7,.73,2.44,1.01,2.69,1.24l-.89-.6c2.83,1.02,6.05,2.72,8.94,3.23l-.12-.29c2.18,.42,1.55,.85,3.86,1.53l-.1,.02c.53-.04,1.17,.08,1.77,.33-.66,.04,.9,.87,.05,.87,2.39,.36,1.23,.06,2.98-.22l.22,.47c.61-.14,.71-.3,1.87,0-1.03-.02,.55,.78-.63,.83,2.14,1.58,3.81,.35,4.56,1.84,1.4-.64-1.91-1.2-1.23-1.21-.41-.48,1.14-.45,1.86-.11,.75,.26,.92,1.67,2.88,2.2-.19-.06-.23,.01-.42-.05,.66,.46,1.53,.06,2.31,.73,.67-.46,1.15,.36,1.5-.36l-1.83-.33c1.07,.09,2.25-.53,3.81,.32-.17,.12-.72,.2-1.09,.22,.43,.35,.98,.09,1.43,.45-.34,.72-2.23-.37-3.47-.12,.44,.48,2.21,.01,1.44,.69,1.07-.85,1.91,.63,3.44,.16l-.2,.44c.23-.02,.72-.12,1.1-.01l-.85,.42c1.2-.22,1.98,.96,3.09,.92-2.19-.48-.36-.67-1.2-1.21,2.82-.01,1.26,1.56,4.33,2.02-.42-.03-1.47-.63-.79-.7,.55,.22,1.27,.58,1.57,.89,2.03,.3-.21-.54,.71-.65,.57,.7,1.03-.04,1.94-.04l-.09,.47c2.22,.76,.8-.87,2.78-.09l-.99,.49,1.1,.04-.32,.5c1.25-.2,1.59-.03,2.71,.31-.21-.38,.3-.84,1.31-.68,.65,.4-.46,.39,.99,.56-.37,.24-.79,.56-1.35,0-.09,.14-.37,.24-.46,.39,.69,.45,1.87,.4,2.39,.48-.2-.04-.44-.12-.55-.2,.73-.1,1.47-.23,2.2-.35,.3,.23,.02,.33-.26,.44,.43,0,.76-.17,1.39-.12-.22,.37-.23,.77-1.15,.83l2.07-.14c.11,.19,.97,.61,.69,.72,1.08,.4,2.83-.42,4.27,.06,.09-.07,.25-.12,.57-.14,1.38,.26,2.57,.84,4.27,.45l.88,.78c1.31-.04-1.19-1,.98-1.07,1.54-.09,.52,.65,1.04,.89,.79-.31,2.15-.94,3.52-.29-.47,.1-.83-.02-1.27,0Zm15.98,.08c-.31,.11-.92,.43-1.15,.15,.35-.56,.62-.3,1.15-.15Zm13.62-14.79c.28,.07,.53,.38,.68,.85-.23-.23-.48-.47-.68-.85Zm-65.77-12.58s.02,0,.04-.02c.64,.3,.41,.19-.04,.02Zm-1.36-.44c-.15,.04-.15,.11-.1,.19,.12-.1,.43-.06,.78,.03-.08-.14-.24-.26-.68-.22Zm-5.17,15.81l.23,.2c-.63-.04-.43-.11-.23-.2Z"></path><path class="cls-1" d="M223.08,293.08c-.03,.14-.1,.21-.17,.27,.13,.1,.22,.07,.17-.27Z"></path><path class="cls-1" d="M181.06,305.04h-.05s-.05,.04-.06,.07l.11-.07Z"></path><path class="cls-1" d="M175.81,277.82c.27,.12,.42,.24,.51,.35,.04-.11-.07-.24-.51-.35Z"></path><path class="cls-1" d="M145.94,277.54l.91,.02c-.44-.05-.57-.17-.78-.29,0,.11,.15,.3-.13,.27Z"></path><path class="cls-1" d="M138.62,273.4c-.14,.04-.28-.03-.42,0v.23c.56,.06,.98-.05,.42-.23Z"></path><path class="cls-1" d="M145.36,275.82c0-.41-.59-.36-1.23-.38,.04,0,.07,0,.11,.02-.27,.53,.43,.45,1.12,.37Z"></path><path class="cls-1" d="M143.99,275.43c-.2-.01-.4-.03-.58-.08-.11,.21,.23,.08,.58,.08Z"></path><path class="cls-1" d="M151.66,277.9c-.28-.15-.27,.48-.41,.29-.41,.45,2.08-.29,.41-.29Z"></path><polygon class="cls-1" points="145.06 274.42 145.21 274.95 145.62 274.61 145.06 274.42"></polygon><path class="cls-1" d="M149.96,275.58l-.98-.3c0,.09-.13,.11-.3,.13,.62,.12,1.28,.32,1.28,.17Z"></path><path class="cls-1" d="M148.69,275.41c-.32-.06-.63-.1-.82-.05,.17,.02,.55,.07,.82,.05Z"></path><polygon class="cls-1" points="146.46 274.49 146.74 274.64 147.44 274.79 146.46 274.49"></polygon><path class="cls-1" d="M160.72,277.5l1.12,.05c.14-.15-.14-.31-.56-.31-.28,.07-.7,.06-.56,.26Z"></path><path class="cls-1" d="M157.65,275.57c.28,.15,.28,.27,.42,.46l.14-.61-.56,.15Z"></path><path class="cls-1" d="M160.86,275.98c.14-.15,1.67-.21,.28-.41-.14,.15-1.26,.09-.28,.41Z"></path><polygon class="cls-1" points="177.17 279.82 176.89 279.77 176.73 280.78 177.17 279.82"></polygon><path class="cls-1" d="M192.12,280.42c-1.24-.51-.44,.55-1.54,0-.35,.17,.9,.44,.55,.58,.83-.08,1.21,.14,.99-.59Z"></path><path class="cls-1" d="M191.12,281c-.13,.01-.28,.03-.43,.07,.24-.01,.35-.04,.43-.07Z"></path><path class="cls-1" d="M103.82,271.21c-.13-.24-.26-.48-.37-.73,.03,.2,.05,.41,.08,.61l.29,.12Z"></path><path class="cls-1" d="M102.23,270.56l.37-.56h-.77c.14,.13,.42,.36,.39,.56Z"></path><path class="cls-1" d="M209.39,307l.06-.16c-.14-.17-.34-.17-.74-.19l.68,.35Z"></path><polygon class="cls-1" points="197.74 306.49 197.94 306.51 197.58 305.91 197.74 306.49"></polygon><path class="cls-1" d="M187.93,306.71c.4,.06,.88-.03,1.27,.01-.88,.06-1.32-.76-1.27-.01Z"></path></g></g><g class="cls-3"><path class="cls-1" d="M150.83,324.2c-1.51,32.71,3.09,65.69,13.5,96.74,2.39,7.13,5.24,14.41,10.61,19.68,4.4-5.43,2.11-13.42-.19-20.02-7.86-22.6-13.36-46.02-16.38-69.76"></path><g><path class="cls-1" d="M156,351.39c0-.32-.41-.15-.49-.19,.16,.52,.59,.16,.49,.19Z"></path><polygon class="cls-1" points="157.65 356.45 157.46 356.39 157.99 357.09 157.65 356.45"></polygon><path class="cls-1" d="M158.37,361.29c.63-.57-.39-1.73-.26-2.63l.14-.17-.62-.3c.24,1.04,.82,2.34,.75,3.1Z"></path><path class="cls-1" d="M157.25,364.11c.25-.21,.33,.52-.01-.62-.02,.06-.04,.08-.05,.12,.02,.1,.04,.25,.06,.5Z"></path><path class="cls-1" d="M157.19,363.62c-.1-.51-.18,.37,0,0h0Z"></path><path class="cls-1" d="M157.74,365.94l-.36-.63c-.14,.17-.07,.77-.23,.57,.25,.67,.39,.5,.59,.06Z"></path><path class="cls-1" d="M158.37,366.49l-.16-.33c-.06,.07-.06,.17,.16,.33Z"></path><path class="cls-1" d="M157.86,365.46l.35,.7c.1-.12,.32-.17-.14-.32,.22,.02,0-.09-.21-.37Z"></path><path class="cls-1" d="M157.89,365.03c.09-.4,.1-.9,.46-.27-.31-1.27-.77-1-.46,.27Z"></path><path class="cls-1" d="M159.13,361.42l.13-.53-.31-.4c.15,.2-.04,1,.18,.93Z"></path><path class="cls-1" d="M158.12,370.18c.16,.01,.36-.3,.54-.38l-.26-.46c-.06,.27-.06,.77-.27,.85Z"></path><path class="cls-1" d="M158.66,369.8l.4,.69c-.09-.67-.24-.76-.4-.69Z"></path><polygon class="cls-1" points="159.17 366.47 158.42 365.35 159.22 366.71 159.17 366.47"></polygon><polygon class="cls-1" points="158.63 373.01 158.21 372.66 158.87 373.31 158.63 373.01"></polygon><path class="cls-1" d="M159.06,374.88c-.35-.25-.4,.52-.64,.23,.15,.5,.49,.88,.78,1.23-.21-.39-.26-.84-.14-1.46Z"></path><path class="cls-1" d="M159.66,376.92c-.11-.19-.28-.38-.45-.59,.11,.21,.25,.4,.45,.59Z"></path><path class="cls-1" d="M159.21,371.76c-.08,.07-.29,.23-.32,.66l.37-.37c-.01-.09-.03-.19-.05-.29Z"></path><path class="cls-1" d="M159.27,372.04h-.01c.05,.33,.08,.55,.09,.64-.01-.08-.04-.28-.08-.64Z"></path><path class="cls-1" d="M159.2,371.69s0,.05,.01,.07c.04-.04,.05-.06-.01-.07Z"></path><path class="cls-1" d="M159.13,368.48c.31,.39,.73,1.25,.93,.31-.34-.26-.46,.28-.93-.31Z"></path><path class="cls-1" d="M159.66,371.23l-.05-.8c-.11,.04-.24,.21-.4,.01l.45,.79Z"></path><polygon class="cls-1" points="159.86 371.59 159.66 371.23 159.68 371.53 159.86 371.59"></polygon><path class="cls-1" d="M159.78,375.5c.25,.3,.34,.67,.45,1.08,0-.46-.06-.94-.15-1.38-.14-.04-.42-.18-.31,.29Z"></path><path class="cls-1" d="M159.56,373.82s.03,.05,.04,.07c.03-.05,.03-.09-.04-.07Z"></path><polygon class="cls-1" points="161.09 380.69 161.15 380.6 161.08 380.6 161.09 380.69"></polygon><path class="cls-1" d="M160.15,375.12c.01-.35-.13-.53-.3-.7,.09,.24,.17,.5,.23,.79,.06,.02,.11,.01,.06-.09Z"></path><path class="cls-1" d="M160.08,378.03c.05-.19,.09-.41,.11-.63-.1,.2-.24,.59-.11,.63Z"></path><path class="cls-1" d="M159.51,374.02s-.02-.03-.03-.05c-.07,.13-.03,.11,.03,.05Z"></path><path class="cls-1" d="M159.51,374.02c.1,.16,.23,.28,.35,.4-.07-.2-.16-.38-.25-.53-.02,.05-.06,.1-.09,.14Z"></path><path class="cls-1" d="M164.04,381.34c-.4,.03-.94-.77-.69-1.62-.45-.68-1.62,.08-2.19,.88,.17-.01,.33-.05,.72,.67,.15-.32,.13-1.81,.62-1.24,.42,.97,.04,.86-.06,1.4,.39-.52,.98,1.14,1.65,.76l-.45-.83c.11-.04,.35,.24,.4-.03Z"></path><path class="cls-1" d="M160.88,379.13l-.12-.31c0,.38-.09,.67-.29,1.21,.3,.49,.47,.57,.61,.58l-.28-1.57,.08,.1Z"></path><path class="cls-1" d="M160.46,377.39c.47,.16,.81,.88,1.17,.32-.22-.92-.48-.58-.78-1.1,.41,1.48-.32-.38-.34,.75-.13-.28-.21-.54-.27-.79,0,.28,0,.56-.04,.82,0-.02,.01-.03,.02-.04h0s0,0,0,0c.04-.08,.07-.1,.05-.02,0,0,.01,.02,.01,.03,.06,0,.12,.02,.17,.04,0,.45-.1,.09-.17-.04-.02,0-.04,0-.07,0h0s.55,1.46,.55,1.46c0-.33-.11-.73-.3-1.42Z"></path><path class="cls-1" d="M161.11,369.43c-.03,.05-.06,.06-.09,.07,.07,.09,.11,.12,.09-.07Z"></path><path class="cls-1" d="M160.97,370.09c-.08-.1-.27-.16-.29-.52,.07-.33,.2-.04,.34-.08-.15-.19-.44-.69-.52,.02l.08,.1c-.03,.63-.42,1.51-.49,1.42,.35-.25,.59-.46,.89-.93Z"></path><path class="cls-1" d="M160.81,373.76l.46,1.21,.24-.71-.21,.08c-.06-.73-.3-.52-.48-.58Z"></path><polygon class="cls-1" points="160.91 380.87 160.43 380.8 161.21 381.39 160.91 380.87"></polygon><polygon class="cls-1" points="161.32 382.49 160.92 382.52 161.25 382.89 161.32 382.49"></polygon><path class="cls-1" d="M159.18,412.41l-.22-.33c.08,.16,.15,.26,.22,.33Z"></path><path class="cls-1" d="M159.93,415.04h.21c-.14-.08-.23-.11-.21,0Z"></path><path class="cls-1" d="M172.54,421.81c-.17,.63-.53,1.37-.13,1.16l.36-.29c-.19-.33-.24-.61-.23-.87Z"></path><path class="cls-1" d="M170.35,434.95c0,.07-.01,.15-.02,.22,.19,.03,.36,.04,.52,.04-.15-.06-.32-.15-.5-.26Z"></path><path class="cls-1" d="M168.61,435.55l-.15-.79c0,.19,.05,.45,.15,.79Z"></path><path class="cls-1" d="M154.9,398.1l-.53-.33c.15,.67,.31,.33,.53,.33Z"></path><path class="cls-1" d="M165.57,399.01c-.04,.5-.01,.89,.06,1.21,.08-.62,.33-1.16-.06-1.21Z"></path><path class="cls-1" d="M163.9,412.12c-.14-.2-.25-.26-.34-.23,.14,.2,.25,.31,.34,.23Z"></path><path class="cls-1" d="M166.01,401.54c.02-.09,.02-.18,.03-.27-.16-.31-.32-.63-.4-1.05-.06,.46-.04,.95,.37,1.32Z"></path><path class="cls-1" d="M148.21,344.44s.03-.09,.05-.12c-.06,0-.06,.04-.05,.12Z"></path><path class="cls-1" d="M152.58,328.8c.02,.15,.01,.4,.01,.64,.03-.11,.04-.31-.01-.64Z"></path><path class="cls-1" d="M162.65,389.07c-.11-.34-.06-.04,0,0h0Z"></path><path class="cls-1" d="M163.92,387c.06,.06,.14,.1,.24,.09-.11,0-.18-.04-.24-.09Z"></path><path class="cls-1" d="M169.57,404.17v.03c.06-.12,.05-.1,0-.03Z"></path><path class="cls-1" d="M162.72,388.5c-.02,.14-.03,.3-.02,.47,.02-.08,.02-.22,.02-.47Z"></path><path class="cls-1" d="M162.54,388.62c-.01-.12-.02-.22-.03-.31-.08-.03-.12,.02,.03,.31Z"></path><path class="cls-1" d="M162.79,389.54c-.05-.2-.08-.38-.09-.57-.01,.07-.03,.11-.05,.09,.03,.1,.07,.24,.14,.47Z"></path><path class="cls-1" d="M151.79,373.17s.02-.05,.03-.08c-.22-.33-.18-.18-.03,.08Z"></path><path class="cls-1" d="M179.21,429.53s-.02-.02-.03-.04c0,.02,0,.04,0,.06l.03-.02Z"></path><path class="cls-1" d="M179.69,430.86c-.6-.53-.58-.85-.51-1.31l-1.19,.6c.57,.22,1.13,.45,1.7,.71Z"></path><path class="cls-1" d="M157.28,406.15l-.14,.96c-.9-.87-.89-1.69-1.2-.73,1.34-.23,1.05,3.33,2.39,3.08l-.12,.65c-.04-.17-.12-.17-.15-.33-.31,1.28,1.18,.55,1.42,2.01,.05,.52-.04,.92-.29,.63l.65,1c.07,.33-.18,.32-.25,0l.6,1.64h-.04c.28,.18,.75,.62,.97,.84-.05,.48-.21-.17-.33-.01l.61,.82c-.22,.48-.79-.18-.94-.83-1.02,1.26,.57,.66,.42,2.75l-.44-.82c-.55,.8-.07,1.39-.21,2.53,.16-.31,.52-2.35,1.16-1.45,0,.31,.07,.7,.5,1.15-.46,.16-.17,.65,.06,1.29l-.62,.16c.4,.66,.7,.49,1.11,.82,.21,.81-.2,1.14-.53,1.46,.35,1.31,.44-1.14,1.08,.33,.14,1.14,.66,1.8,1.5,2.92,.09,.81-.42,.01-.48,.34l.73,.46c.05,.16-.11,.17-.2,.17,.41,.47,.6-.19,1.12,.59,.74-.06-.2,2.17,1.04,2.88-.04,.34-.41,.05-.6,.23,1.17,1.21,.95,1.07,2.18,1.88l.18,1.18c.02-.95,1.02-.32,1.89,.19,.04-.38,.1-.67,.1-.86,.36,.36,.63,.61,.93,.84,0,.19-.21,.27-.53,.28,.09,.04,.17,.07,.24,.09,.09,.57-.26,.7-.75,.6-.02-.26-.03-.5,0-.73-.25-.04-.52-.09-.77-.1-.23,0-.44,.05-.58,.18,.1,.03,.27,.19,.44,.39-.15-.04-.27-.06-.29,.03-.02,.09,.2,.19,.5,.34-.1,.27-.19,.56-.27,.86l.27-.11,.62,1.29c.23,.43,.47,.85,.73,1.29,1.46,.7,2.4,.36,3.63,1.13,.08,.03,.16,.09,.25,.15-.12,.22-.1,.58-.02,.95,.07,.38,.2,.76,.26,1.23-.07-.13-.15-.22-.22-.29-.29-.49-.62-.65-.98-.87-.36-.21-.81-.47-1.22-1.02,.49,.65,.37,.94,.22,.93,.66,.4,1.23,.76,1.81,1.06,.02,.37,.13,.62,.3,.88,.07,.03,.16,.04,.26,.04,.1,0,.2,.06,.32-.06-.53-.98,.93-2.39,1.22-3.54,.2,.32,.24,.89-.45,1.82,.51-.11,.65-.84,.71-1.52,.06-.7,.01-1.36,.48-1.59-.12,.25-.22,.33-.17,.6,.03-.22,.1-.46,.2-.68,.08-.23,.17-.46,.27-.64,.19-.36,.41-.56,.45-.25l-.1,.28c.43-.85,.77-2.49,.78-3.93-.03-1.59-.35-2.3-.79-2.43,.11-.03,1.04,.16,1.21,.25-1-.97-2.05-1.8-3.15-2.53,.76,.14,2.32-1.13,2.95,.17,.04-.4,.09-.92-.32-1.69-.04,.28-.92,.85-1.04,.5,.59-1.12,.3-.75,.7-2.09-.06,.42-1.28,.26-1.39-.33,.19,.05,1.08-.33,1.25-.14-.48-.42-.99-.8-1.49-1.19,.3,.31,.94-.19,1.15-.62-.16,.21-.37-1.28-.6-1.64l-.05,.7c-.36-1.7-2.02-1.12-2.51-2.72,.28,.12,1.51,0,1.37-.85-.67-.18-3.17-.73-4.07-1.99l.22-.37-.71-.96c1.03,.41,3.41,1.7,4.43,2.48,.04-.68,.31-.29-.02-1.17,.19-.41,.61,.33,.71,.59l-.51-2.13c-.61,.31-1.16-1.37-1.67-1.12l1.41,2.03c-.6,.31-2.26-.69-2.62-2.21,.13-.46,1.23-.09,1.43-.19-.28-.12-.88-1.26-.76-1.45l.55,.51c-.02-.9-1.29-1.06-.99-2.25-.07-.35,.51-1.28,.11-1.22-.56,.79-2.79,1.61-3.45,1.41,.01-.14,.14-2.03,.38-2.53,.4-.74,1.63,.42,1.98-.21-.18,.03-.5-.21-.61-.32,.04-.41,.59-.02,.27-.77-.7,.07-.42-1.61-.67-.2-.41-.71-.11-.86-.4-1.75-.34,.41-1.68-.38-2.09-1.1,.18,0,.34-.24,.42-.35-.41-1.6-.34-2.53-.75-4.01,.12-.18,.11-.94,.48-.72-.17-.18-.46-.31-.59-.76,.33-1.04,.37,.99,.86,.13-.4,.05-.84-1.03-1.26-1.62-.53,.36,.29,1.53,.71,2.11-.82,.23-1.97-.67-2.77-2.12-.54-1.18,.38-.68,.21-.86-.48-2.35-1.94-1.61-1.85-3.69,.33-.9,1.03-.3,1.36-.56,.45,.96,.06,1.63,.26,2.31l.03-.9c.25,.28,.56,.91,.5,1.32,.31-.76-.93-3.94-.92-5.84-.25-.28-.57-.78-.71-.47l.21,.55c-.29,.63-.84-.93-.86-.16-.48-.69-1.16-1.44-1.17-2.57l.55-.34c-.17,.06-.19,.79,.06,1.05-.38-.39,.42-1.84-.47-2.15l-.24,.85c-.48-.7-1.33-1.51-1.36-2.51-.49,.57,.12,.21-.42,1.04,.72-.79,.52,2.47,1.21,1.31-.64,.89-.06,1.29-.52,2.36,.19-.08,.3-.41,.4,.41,.07,.02,.16,.09,.22,.13,0,.03,0,.04,0,.06v-.05c.05,.03,.06,.03,.02-.02,.04-.21,.11-.39,.2-.48,.55,.29,.84,1.57,1.18,1.94,.02,.5-.27-.14-.42,.17l.5,.56c-.42,.17-.41,1.44-.94,.39l.24,1.01c-.09,.66,.02,1.5,.33,1.96,.03,.5,.79,1.08,.34,.75l.68,1.51-.1,.04c.37,1.57,1.56,3.01,1.29,4.99,.26,.49,.54,.99,.67,1.9l-.33,.28c.31,.63,.21,2.12,.69,2.29-.79,1.02,.74,3.31,.94,4.53l.5-.11c.22,.81,.6,1.54,1.11,2.48l.41-.2c.62,.75,.41,2.3,.9,3.64-.19-.04-.26-.4-.24-.67-.44,1.94,1.84,3.17,1.63,4.87,.28,.31,.32,.59,.3,.89-.01-.03-.03-.06-.05-.08,0,.04,.03,.1,.05,.15-.02,.19-.05,.37-.06,.57,.05-.18,.09-.35,.08-.49,.1,.27,.3,.67,.54,1.04l-.4,.33s.03,.06,.04,.09c-.04,.45,.32,.25,.6-.08,.14,.18,.29,.34,.45,.45-.63,.56,.59,.99-.07,1.68,.48,.16,.87,1.95,1.74,1.97-.1,.04-.12,.17-.19-.05,.03,.48,.03,.96,.35,1.32l-.56,.32c.35,.28,.67,.56,.99,.85-.26,.68-.44,.95-1,.43,.91,1.33,.45,1.11,1.24,2.3l-.4-.04c.02,.22,.18,.5,.26,.76,.09,.19,.14,.38-.02,.45-.38,.29-.45,.99-.7,1.81-.11,.41-.29,.83-.53,1.14-.12,.15-.23,.29-.38,.35-.07,.03-.14,.05-.21,.06-.03,0-.07,0-.1,0h-.05s-.04-.08-.05-.11c.3,1.29,.13,.9-.07,.43-.2-.49-.36-1-.34-.21-.09-.57-.19-.95-.08-1.23-.18,.02-.33-.33-.43-.54-.11-.22-.18-.28-.47-.02,.08-.37,.24-.37,.27-.62-.04,.05-.2,.14-.15-.08,.05-.21,.15-.19,.24-.29-.21-.2-.81,.43-1.39,1.01-.03-.73-.07-.71-.81-.91,.1-.34,.13-.82,.64-.15-.25-.41-1.09-2.7-1.67-2.46,.07-.21-.26-.62-.38-.7-.44-.99-.42-1.1-.91-2.05l.03,.31c-.88-.07-.52-.75-.94-1.51h.08c-.22-2.05-.58-.7-.68-2.76l-.41,.27c-1.04,.19-.03-1.85-.77-2.79l-.12,.48c-.54-.48,.76-2.11,.69-2.74,.04-.16,.2,.16,.32,.32,.07-1.75-.66,0-1.18-1.12,.25-.32,.91,0,.72-.8,.14-.47-1.78-1.93-1.51-3.2-.17,.31-.35,.63-.71,.14-.36-.8,.27-2.55-.75-3.06,.04-.13,.09-.19,.15-.21-.39-.58-.96-1.98-1.5-2.24,1.4-1.04-1.88-3.79-.41-4.18l-.62-1.96h.17c-.25-1.28-.69-1.64-1.17-2,.03-.32,.22-.14,.3-.14-.16-1.94-.27-2.1-1.4-3.49l.44-.28c-.4-.36,.15-2.88-.83-4.58,.06,0,.16,.02,.26,.15-1.06-1.94,.31-5.22-1.61-5.62l-.71-1.29c.22,1.8-.82-.12-.97,.67-.24-.68,.18-1.91,.44-1.07l-.06,.15c.97,.14-.09-2.27,.56-2.34-.32-1.75-.53-3.49-.67-5.22-.13-1.73-.25-3.42-.47-5.07l-.67,.48-.13-1.16c.13-.33,.51-.48,.59,.34,.35-.49-.52-1.33-.68-1.33,.09-1.65,.93,.51,.88,.02l-.14-.66-.07,.16c-.37-.5-.69-.51-.78-1.5,.06-.64,.41-.38,.4-.63,.05,0,.07-.09-.03-.38l-.12-1.46-.5,.65c-.36-.61-.14-1.37-.71-.62,.88-1.1-.21-5.47,.03-6.11-.51-.86-.56-1.76-.61-2.87-.1,.29-.73,.51-.73-.46,1.36,.24,.44-1.8,1.34-2.64-.6,.74-.33-2.7-1.17-1.56,.06-.81,.5-.08,.78-.71-.62-1.87,.07-4.2-.17-6.53-.18-.03-.43,.37-.71-.12l.83-1.27c-.1-.46-1.03-.4-.45-1.26-.14,.12-.36,.31-.43,0,.34-2.31,.18-4.66,.06-7.02-.06-2.36-.03-4.74,.83-7.05-.36,.62-.38,.2-.38-.28-.09,.31-.43-.02-.67,.04l.73-1.94c-.65-.38,.03-2.1-.6-2.33l.09,.63c-.72-.86-1.7,1.09-2.65,.94,.82,.96-1.35,2.43-.17,3.99-.2,.33-.31-.29-.53-.12,.41,.4,.49,.87,.29,1.73l-.1-.1c.09,2.44-.38,3.49-.6,6.24l.47-.21c-.06,.59-.2,.72-.32,.99,.73,.67,.02-1.66,.82-1.05-.95,.79,.03,4.16-1.05,4.71,.03,.91,.54-.28,.56,.63l-.29,.25,.39,.22c-.04,.6-.4,.91-.65,.94,.02-.15-.08-.41-.11-.56-.32,.79,.2,2.18,.09,2.45l.15-.88c.34,2.47,.14,5.52,.88,7.87l.21-.2c.52,1.8-.15,1.48,.2,3.46l-.06-.07c.25,.38,.41,.91,.43,1.46-.3-.48-.43,.99-.77,.35,.6,1.94,.43,.95,1.36,2.18l-.34,.33c.38,.41,.56,.43,.76,1.42-.4-.78-.5,.69-1.01-.18-.59,2.18,1.14,3.02,.06,4.11,1.12,.84,.38-1.87,.65-1.36,.29-.49,.85,.71,.81,1.37,.04,.67-1.17,1.28-.94,2.96-.02-.17-.1-.17-.11-.34-.18,.66,.51,1.19,.19,2.01,.67,.35,.09,1.01,.89,1.02l-.38-1.51c.32,.85,1.32,1.54,1.09,3.03-.17-.09-.45-.48-.6-.76-.18,.45,.27,.78,.1,1.25-.81-.01-.44-1.84-1.15-2.69-.27,.5,.79,1.69-.12,1.34,1.16,.53,.11,1.67,1.1,2.69h-.48c.1,.16,.38,.5,.42,.83l-.7-.51c.66,.84-.19,1.84,.23,2.68-.29-1.85,.5-.5,.73-1.34,.98,2.17-1.05,1.5-.38,4.01-.13-.33,.06-1.34,.37-.84-.01,.5-.08,1.17-.27,1.51,.39,1.67,.44-.34,.85,.32-.47,.67,.38,.79,.69,1.49l-.47,.09c.04,1.97,1.07,.33,1.02,2.11l-.8-.6,.34,.86-.58-.08c.59,.9,.55,1.22,.59,2.21,.29-.29,.88-.04,1.07,.79-.17,.63-.51-.23-.21,.95-.35-.21-.78-.43-.45-1.04-.17-.02-.35-.21-.51-.23-.2,.69,.24,1.58,.33,2.01-.02-.17-.03-.38,.02-.49,.34,.53,.66,1.07,1.01,1.6-.12,.31-.31,.12-.49-.06,.13,.34,.4,.54,.56,1.04-.41-.05-.8,.07-1.15-.62l.79,1.56c-.14,.15-.27,.95-.46,.76-.02,.97,1.24,2.08,1.22,3.35,.09,.05,.19,.15,.31,.4,.19,1.15-.03,2.27,.83,3.48l-.49,.93c.42,1.01,.6-1.25,1.29,.43,.53,1.18-.46,.61-.54,1.09,.51,.53,1.5,1.4,1.25,2.68-.23-.34-.21-.66-.35-1Zm4.08,12.7c-.18-.21-.63-.61-.42-.88,.62,.11,.43,.41,.42,.88Zm9.6,18.66c-.23-.02-.41-.43-.52-.92,.2,.21,.35,.51,.52,.92Zm-7-44.78s.02,.01,.03,.02c-.04,.6-.02,.39-.03-.02Zm-.09-1.21c-.1-.1-.16-.08-.21-.01,.14,.05,.21,.31,.26,.61,.1-.11,.15-.28-.05-.6Zm-9.34-22.49l-.1,.24c-.2-.5-.06-.37,.1-.24Z"></path><path class="cls-1" d="M168.81,435.48c.03-.11,.1-.17,.17-.23-.12-.05-.21,0-.17,.23Z"></path><path class="cls-1" d="M154.99,398.16v-.04s-.07-.02-.1-.02l.1,.06Z"></path><path class="cls-1" d="M172.75,408.14c0,.25-.04,.41-.1,.52,.12-.02,.18-.16,.1-.52Z"></path><path class="cls-1" d="M161.6,385.55l.29,.72c-.11-.36-.03-.51,0-.71-.11,.04-.23,.22-.29-.01Z"></path><path class="cls-1" d="M163.08,378.44c-.08-.1-.06-.23-.14-.32l-.21,.08c.11,.46,.36,.75,.35,.25Z"></path><path class="cls-1" d="M163,384.5c.38-.15,.14-.58-.05-1.09,0,.03,.02,.06,.02,.09-.59-.03-.28,.49,.03,1Z"></path><path class="cls-1" d="M162.91,383.3c-.06-.16-.1-.32-.12-.48-.24-.01,0,.21,.12,.48Z"></path><path class="cls-1" d="M163.25,390.12c.04-.27-.54-.03-.41-.21-.57-.15,1.01,1.5,.41,.21Z"></path><polygon class="cls-1" points="164.21 383.79 163.76 384.08 164.22 384.28 164.21 383.79"></polygon><path class="cls-1" d="M164.81,387.97l-.06-.86c-.08,.03-.15-.06-.22-.18,.11,.51,.15,1.1,.29,1.04Z"></path><path class="cls-1" d="M164.52,386.92c-.05-.27-.13-.52-.24-.65,.04,.14,.13,.45,.24,.65Z"></path><polygon class="cls-1" points="164.61 384.89 164.57 385.15 164.67 385.75 164.61 384.89"></polygon><path class="cls-1" d="M166.97,396.87l.38,.86c.19,.05,.23-.23,.07-.54-.17-.18-.33-.5-.45-.32Z"></path><path class="cls-1" d="M167.58,393.8c-.04,.27-.14,.31-.27,.49l.61-.13-.34-.36Z"></path><path class="cls-1" d="M168.41,396.38c.19,.04,.83,1.17,.48,.05-.19-.05-.57-.9-.48-.05Z"></path><polygon class="cls-1" points="171.55 410.01 171.47 409.79 170.51 410.12 171.55 410.01"></polygon><path class="cls-1" d="M177.73,420.94c-.13-1.14-.68-.05-.72-1.11-.31-.17,.03,.86-.25,.68,.46,.56,.44,.94,.97,.43Z"></path><path class="cls-1" d="M176.75,420.5c-.07-.09-.16-.18-.26-.27,.12,.16,.2,.23,.26,.27Z"></path><polygon class="cls-1" points="153.21 326.25 153.45 325.55 153.09 325.99 153.21 326.25"></polygon><path class="cls-1" d="M152.51,324.87l.65-.14-.57-.45c.02,.16,.07,.47-.08,.58Z"></path><path class="cls-1" d="M160.73,421.15h.17c.13-.16,.09-.32,0-.65l-.17,.65Z"></path><polygon class="cls-1" points="158.31 411.73 158.35 411.89 158.82 411.43 158.31 411.73"></polygon><path class="cls-1" d="M155.42,404.07c.06,.33,.29,.67,.35,1-.3-.67,.33-1.27-.35-1Z"></path></g></g><g class="cls-3"><path class="cls-1" d="M257.16,435.16c.02,.18,.4-.01,.48-.01-.18-.25-.58,.05-.48,.01Z"></path><polygon class="cls-1" points="255.39 432.74 255.57 432.73 255.04 432.46 255.39 432.74"></polygon><path class="cls-1" d="M254.59,430.19c-.6,.46,.4,.89,.31,1.42l-.13,.12,.61,.03c-.26-.52-.85-1.12-.79-1.57Z"></path><path class="cls-1" d="M255.63,428.38c-.24,.17-.32-.22,.02,.34,.02-.04,.03-.05,.05-.08-.02-.05-.04-.13-.07-.26Z"></path><path class="cls-1" d="M255.69,428.64c.1,.26,.17-.24,0,0h0Z"></path><path class="cls-1" d="M255.15,427.45l.35,.28c.13-.12,.07-.45,.22-.37-.24-.32-.37-.2-.57,.09Z"></path><path class="cls-1" d="M254.55,427.27l.16,.15c.06-.05,.06-.11-.16-.15Z"></path><path class="cls-1" d="M255.04,427.75l-.33-.32c-.09,.09-.31,.16,.13,.15-.21,.03,0,.05,.2,.17Z"></path><path class="cls-1" d="M255.01,428c-.09,.24-.1,.53-.45,.25,.31,.64,.75,.4,.45-.25Z"></path><path class="cls-1" d="M253.84,430.29l-.12,.33,.3,.16c-.15-.08,.02-.57-.19-.48Z"></path><path class="cls-1" d="M254.83,425.14c-.15,.02-.35,.24-.53,.32l.25,.21c.06-.16,.07-.45,.28-.53Z"></path><path class="cls-1" d="M254.3,425.47l-.37-.31c.08,.36,.22,.38,.37,.31Z"></path><polygon class="cls-1" points="253.78 427.45 254.5 427.92 253.73 427.32 253.78 427.45"></polygon><polygon class="cls-1" points="254.38 423.65 254.79 423.77 254.16 423.53 254.38 423.65"></polygon><path class="cls-1" d="M254.02,422.68c.33,.08,.4-.37,.63-.25-.13-.25-.44-.41-.72-.55,.19,.18,.23,.42,.1,.8Z"></path><path class="cls-1" d="M253.5,421.63c.1,.09,.26,.17,.42,.25-.1-.1-.23-.18-.42-.25Z"></path><path class="cls-1" d="M253.79,424.47c.08-.06,.29-.19,.32-.44l-.36,.28s.03,.1,.04,.16Z"></path><path class="cls-1" d="M253.74,424.32h.01c-.04-.18-.07-.3-.08-.35,0,.04,.03,.15,.07,.35Z"></path><path class="cls-1" d="M253.8,424.51v-.04s-.06,.04,0,.04Z"></path><path class="cls-1" d="M253.83,426.31c-.3-.16-.69-.56-.9,.01,.33,.08,.45-.25,.9-.01Z"></path><path class="cls-1" d="M253.35,424.86l.04,.44c.11-.04,.24-.17,.39-.09l-.42-.36Z"></path><polygon class="cls-1" points="253.16 424.69 253.35 424.86 253.34 424.69 253.16 424.69"></polygon><path class="cls-1" d="M253.34,422.46c-.23-.12-.31-.32-.41-.53,0,.26,.03,.52,.1,.75,.14,0,.4,.02,.31-.22Z"></path><path class="cls-1" d="M253.5,423.38l-.04-.03s-.03,.06,.04,.03Z"></path><polygon class="cls-1" points="252.27 419.75 252.21 419.81 252.28 419.8 252.27 419.75"></polygon><path class="cls-1" d="M252.97,422.75c-.02,.2,.11,.28,.27,.34-.08-.12-.15-.25-.2-.4-.06,0-.1,.01-.06,.06Z"></path><path class="cls-1" d="M253.12,421.09c-.06,.12-.1,.25-.13,.38,.1-.13,.25-.38,.13-.38Z"></path><path class="cls-1" d="M253.56,423.25l.03,.02c.07-.09,.03-.06-.03-.02Z"></path><path class="cls-1" d="M253.56,423.25c-.09-.07-.21-.11-.32-.16,.07,.1,.14,.19,.23,.25,.02-.03,.06-.07,.09-.1Z"></path><path class="cls-1" d="M249.45,419.89c.39-.08,.88,.28,.6,.81,.41,.31,1.57-.33,2.16-.89-.17,.04-.32,.08-.67-.26-.16,.21-.21,1.06-.66,.82-.36-.48,0-.49,.12-.81-.4,.37-.9-.48-1.56-.15l.39,.4c-.11,.04-.33-.08-.39,.08Z"></path><path class="cls-1" d="M252.4,420.6l.1,.15c0-.21,.12-.4,.34-.74-.27-.22-.43-.24-.56-.22l.2,.85-.07-.04Z"></path><path class="cls-1" d="M252.73,421.52c-.45,0-.75-.36-1.12,.03,.18,.49,.45,.24,.72,.48-.35-.77,.3,.16,.36-.49,.12,.14,.18,.27,.24,.4,0-.16,.02-.32,.06-.47l-.02,.03h0s0,0,0,0c-.04,.05-.07,.07-.05,.02,0,0-.01-.01-.01-.01-.06,.01-.11,.01-.17,.01,.01-.26,.1-.07,.17-.01h.06s0-.01,0-.01l-.47-.73c0,.19,.07,.4,.23,.76Z"></path><path class="cls-1" d="M251.92,426.17s.06-.04,.09-.06c-.07-.04-.11-.04-.09,.06Z"></path><path class="cls-1" d="M252.06,425.76c.08,.04,.25,.04,.27,.24-.07,.2-.2,.06-.33,.11,.14,.08,.42,.31,.51-.11l-.07-.04c.04-.37,.43-.94,.5-.9-.34,.21-.58,.37-.88,.7Z"></path><path class="cls-1" d="M252.29,423.65l-.41-.6-.25,.45,.21-.08c.03,.4,.27,.24,.45,.24Z"></path><polygon class="cls-1" points="252.45 419.61 252.91 419.57 252.18 419.37 252.45 419.61"></polygon><polygon class="cls-1" points="252.14 418.76 252.53 418.68 252.23 418.52 252.14 418.76"></polygon><path class="cls-1" d="M233.77,370.72l-.16-.17c.06,.09,.11,.14,.16,.17Z"></path><path class="cls-1" d="M234.1,372.17h.2c-.12-.05-.2-.06-.2,0Z"></path><path class="cls-1" d="M245.87,397.43c.28-.39,.74-.86,.32-.71l-.39,.21c.13,.18,.13,.35,.07,.5Z"></path><path class="cls-1" d="M239.37,383.4l-.1,.12c.16,.03,.31,.06,.45,.09-.11-.06-.22-.13-.35-.21Z"></path><path class="cls-1" d="M237.58,383.65l.17-.45c-.07,.11-.13,.26-.17,.45Z"></path><path class="cls-1" d="M231.38,362.93l-.49-.13c.09,.36,.27,.15,.49,.13Z"></path><path class="cls-1" d="M249.33,409.92c.09-.29,.1-.51,.07-.69-.15,.37-.44,.71-.07,.69Z"></path><path class="cls-1" d="M238.38,370.17c-.11-.1-.21-.13-.3-.11,.1,.11,.2,.16,.3,.11Z"></path><path class="cls-1" d="M249.19,408.52c-.03,.06-.04,.1-.06,.16,.12,.16,.23,.33,.27,.55,.11-.27,.15-.56-.21-.71Z"></path><path class="cls-1" d="M225.24,334.07s.02-.05,.04-.08c-.06,0-.06,.04-.04,.08Z"></path><path class="cls-1" d="M227.8,324.79c.04,.08,.07,.21,.1,.34,.02-.07,0-.17-.1-.34Z"></path><path class="cls-1" d="M251.26,415.22c.08,.18,.05,.02,0,0h0Z"></path><path class="cls-1" d="M249.89,416.61c-.06-.03-.13-.04-.22-.01,.1-.01,.18,0,.22,.01Z"></path><path class="cls-1" d="M246.06,407.44v-.02c-.07,.08-.06,.06,0,.02Z"></path><path class="cls-1" d="M251.16,415.56c.03-.08,.05-.18,.05-.27-.02,.05-.04,.13-.05,.27Z"></path><path class="cls-1" d="M251.34,415.46c0,.07,0,.12,0,.17,.08,0,.11-.03,0-.17Z"></path><path class="cls-1" d="M251.16,414.97c.04,.1,.05,.21,.05,.31,.02-.04,.04-.07,.05-.06-.02-.05-.05-.13-.1-.25Z"></path><path class="cls-1" d="M229.75,349.25s.02-.03,.03-.05c-.22-.15-.17-.07-.03,.05Z"></path><path class="cls-1" d="M240.18,393.81s.02,0,.03,.02v-.03s-.03,.02-.03,.02Z"></path><path class="cls-1" d="M239.69,393.23c.6,.14,.58,.32,.53,.57l1.15-.55-1.67-.02Z"></path><path class="cls-1" d="M232.79,367.29l-.26,.57c-.76-.42-.65-.88-1.07-.31,1.34-.26,.59,1.8,1.92,1.54l-.2,.38c0-.09-.09-.09-.1-.18-.48,.76,1.06,.21,1.07,1.04-.03,.3-.18,.53-.38,.39l.48,.52c.02,.18-.22,.2-.24,.01l.33,.9h-.04c.24,.08,.63,.3,.8,.41-.13,.28-.17-.08-.32,.02l.45,.43c-.29,.29-.73-.05-.76-.41-1.2,.81,.43,.34-.07,1.56l-.29-.44c-.67,.5-.3,.81-.63,1.47,.21-.19,.89-1.39,1.36-.92-.06,.18-.05,.4,.29,.63-.47,.12-.28,.38-.16,.74l-.63,.13c.28,.35,.59,.24,.93,.4,.05,.46-.41,.67-.78,.88,.08,.73,.65-.68,.98,.12-.09,.65,.27,.99,.82,1.6-.11,.47-.4,.03-.54,.22l.59,.24c.01,.09-.15,.1-.23,.11,.27,.26,.63-.13,.92,.3,.71-.05-.74,1.25,.19,1.64-.14,.19-.4,.03-.63,.14,.72,.68,.55,.6,1.41,1.09l-.26,.68c.35-.54,1.05-.15,1.62,.2,.19-.21,.35-.39,.42-.5l.53,.66c-.08,.12-.31,.1-.6,.04,.06,.04,.13,.07,.18,.1-.16,.33-.55,.28-.95,.18,.1-.12,.21-.25,.31-.37-.42-.09-.89-.15-1.24-.02,.08,.03,.17,.11,.23,.2-.11-.02-.21-.03-.27,.01-.06,.04,.1,.08,.29,.17l-.64,.35,.28-.03-.17,1.09c.88,.52,2.06,.86,2.64,1.89-.58-.14-.84,.16-1.44,.31,.55-.47-.5-.79-.52-1.4,.01,.32-.29,.33-.41,.28l.85,.88c-.5,.11-.31,.32-.44,.64,.91-.46,.85,.59,1.26,.93-.32,.11-.68,.1-.74-.43-.58,.76,1.33,.42,.86,1.14-.04-.12-.01-.2-.19-.21,.37,.21,.33,.98,0,.89l-.04-.12c.11,.86,.68,2.52,1.53,2.42-.1,.04-1.02,.16-1.2,.16l3.16,.72c-.74,.06-2.28,1.02-2.87,.45-.05,.22-.1,.5,.26,.85,.06-.16,.93-.61,1.04-.45-.64,.72-.32,.46-.82,1.27,.1-.24,1.26-.32,1.31,0-.18,0-1.08,.33-1.23,.24l1.3,.49c-.25-.14-.93,.22-1.19,.48,.19-.14,.17,.69,.34,.87l.16-.4c.09,.94,1.77,.46,1.96,1.35-.25-.04-1.45,.12-1.46,.61,.61,.05,2.92,.16,3.57,.82l-.27,.24,.53,.5c-.94-.14-2.99-.69-3.83-1.07-.16,.4-.35,.2-.18,.69-.25,.26-.53-.15-.59-.29l.13,1.22c.63-.23,.9,.71,1.43,.51l-1.03-1.07c.63-.23,2.04,.21,2.16,1.07-.2,.28-1.2,.17-1.41,.25,.25,.04,.65,.66,.51,.78l-.45-.25c-.11,.53,1.07,.5,.61,1.23,.01,.2-.67,.81-.28,.73,.65-.52,2.91-1.23,3.53-1.19-.03,.08-.42,1.2-.72,1.52-.49,.48-1.51-.07-1.93,.34,.18-.04,.45,.07,.54,.12-.09,.24-.57,.07-.37,.49,.68-.12,.2,.9,.61,.05,.31,.37,0,.49,.17,.98,.38-.28,1.57,.03,1.88,.4-.17,.02-.36,.18-.45,.26,.19,.89,.03,1.44,.26,2.25-.14,.12-.21,.57-.54,.48,.15,.08,.4,.12,.49,.37-.42,.65-.25-.53-.82,.04,.39-.08,.71,.49,1.06,.78,.55-.28-.13-.85-.47-1.14,.81-.24,1.84,.13,2.46,.86,.4,.61-.44,.44-.29,.53,.23,1.3,1.73,.65,1.45,1.87-.39,.57-1.02,.32-1.36,.53-.36-.49,.08-.94-.05-1.3l-.11,.53c-.22-.12-.46-.45-.37-.69-.36,.48,.53,2.16,.4,3.25,.22,.12,.49,.36,.66,.16l-.16-.29c.33-.41,.75,.41,.83-.04,.42,.32,1.01,.65,.95,1.3l-.55,.29c.17-.06,.24-.48,0-.59,.33,.16-.53,1.13,.32,1.16l.28-.53c.42,.32,1.2,.65,1.17,1.21,.51-.41-.1-.1,.47-.67-.75,.57-.36-1.32-1.09-.55,.67-.61,.14-.75,.66-1.44-.19,.07-.32,.28-.35-.17-.06,0-.15-.03-.2-.04,0-.01,0-.02,0-.03l-.02,.03s-.04-.01,0,.01c-.05,.13-.13,.24-.23,.31-.51-.08-.7-.77-1-.93,.02-.28,.25,.04,.42-.16l-.45-.24c.42-.16,.51-.89,.94-.37l-.14-.55c.15-.39,.11-.86-.15-1.08,.02-.28-.67-.5-.26-.38l-.52-.77,.11-.04c-.19-.85-1.22-1.52-.73-2.71-.19-.25-.41-.5-.43-1.01l.35-.2c-.24-.32,.06-1.2-.38-1.24,.89-.68-.29-1.83-.29-2.52l-.49,.12c-.1-.45-.36-.83-.71-1.32l-.42,.16c-.49-.37-.04-1.3-.3-2.03,.18,0,.19,.21,.13,.37,.72-1.17-1.24-1.68-.75-2.69-.21-.16-.2-.32-.13-.49,0,.02,.02,.03,.04,.04,0-.02,0-.05-.02-.08,.05-.11,.11-.23,.15-.34-.08,.11-.15,.22-.17,.3-.05-.15-.17-.37-.34-.57l.44-.23s-.01-.03-.03-.05c.11-.27-.27-.12-.59,.1-.11-.09-.23-.18-.37-.23,.7-.39-.42-.54,.31-1.01-.43-.05-.62-1.08-1.47-.98,.1-.04,.14-.12,.18,0,.02-.28,.04-.57-.25-.73l.56-.27-.95-.34c.27-.44,.44-.64,.98-.43-.92-.63-.44-.59-1.33-1.1l.39-.07c-.08-.25-.7-.51-.43-.74,.57-.76-.65-2.79-.36-4.41-1.05,.58,.32-.8-.56-.63,.24-.15,.34-.4,.63-.22-.46-.66,.13-1.21-.74-1.52,.25-.15,.43,.05,.57-.06-.07-.04-.29-.17-.15-.29,.14-.12,.25,.05,.4,.13-.24-.74-1.08-.59-1.87-.45,.26-.48,.16-.65-.42-.79,.22-.2,.42-.49,.64-.05-.03-.27-.05-1.7-.68-1.56,.14-.12-.05-.38-.14-.43-.12-.6-.08-.66-.29-1.23l-.06,.19c-.81-.03-.29-.44-.5-.88h.08c.27-1.21-.38-.4-.03-1.61l-.45,.18c-1.02,.16,.35-1.09-.19-1.6l-.21,.29c-.43-.25,1.12-1.28,1.16-1.65,.07-.1,.17,.08,.26,.17,.36-1.03-.64,.04-.95-.58,.3-.2,.88-.06,.82-.51,.21-.29-1.4-1.01-.91-1.77-.22,.2-.44,.39-.71,.14-.21-.44,.64-1.5-.26-1.72,.05-.08,.12-.12,.18-.13-.29-.31-.63-1.07-1.12-1.18,1.53-.73-1.33-2.03,.15-2.38l-.35-1.08h.16c-.07-.73-.49-.9-.9-1.06,.06-.19,.23-.1,.31-.11,.05-1.1-.04-1.19-.98-1.87l.46-.21c-.34-.17,.4-1.67-.41-2.54,.06,0,.16,0,.24,.06-.84-1,.69-3.03-1.16-3.03l-.61-.65c.09,1-.8,.03-1,.5-.19-.36,.3-1.11,.5-.66l-.07,.09c.96-.04,.04-1.28,.67-1.4-.49-1.9-.42-3.87-.78-5.67l-.67,.37-.1-.63c.13-.2,.51-.35,.58,.11,.35-.33-.51-.67-.67-.65,.09-.94,.91,.15,.87-.12l-.14-.35-.06,.1c-.36-.23-.67-.19-.76-.73,.07-.37,.4-.27,.4-.41,.05-.01,.06-.06-.03-.21l-.12-.8-.49,.44c-.36-.29-.14-.75-.69-.24,.86-.75-.3-3.01-.07-3.41-.52-.4-.62-.88-.7-1.49-.08,.17-.7,.4-.73-.13,1.35-.1,.36-1.07,1.21-1.69-.54,.51-.47-1.43-1.23-.66,.01-.45,.48-.13,.72-.52-.73-.91-.15-2.33-.59-3.56-.18,.02-.4,.29-.71,.07l.72-.85c-.14-.23-1.04-.02-.54-.6-.13,.1-.33,.24-.42,.08,.31-2.66-1.75-4.94-.68-7.79-.26,.41-.34,.19-.41-.07-.05,.19-.43,.08-.65,.16l.43-1.19c-.69-.06-.27-1.13-.92-1.11l.18,.31c-.82-.3-1.5,.95-2.45,1.07,.93,.33-.96,1.57,.39,2.15-.15,.22-.33-.09-.53,.05,.44,.13,.58,.36,.49,.86l-.11-.03c.37,1.29,.08,1.93,.12,3.46l.44-.2c0,.33-.13,.42-.21,.6,.78,.22-.15-.89,.7-.73-.86,.61,.45,2.23-.56,2.73,.1,.49,.51-.25,.6,.23l-.26,.19,.4,.04c0,.33-.32,.57-.57,.63,.01-.08-.12-.21-.15-.28-.25,.48,.36,1.14,.28,1.3l.08-.5c.55,1.27,.51,2.97,1.38,4.12l.2-.14c.62,.89-.07,.83,.35,1.86l-.06-.03c.26,.17,.44,.43,.48,.73-.31-.21-.39,.62-.75,.32,.66,.96,.45,.45,1.42,.97l-.33,.24c.38,.17,.56,.15,.77,.66-.41-.37-.48,.46-1,.06-.55,1.3,1.17,1.49,.13,2.26,1.12,.29,.34-1.09,.62-.85,.27-.31,.84,.26,.82,.63,.06,.36-1.14,.89-.92,1.79-.02-.09-.09-.08-.11-.17-.18,.4,.49,.58,.17,1.09,.66,.1,.09,.54,.87,.44l-.36-.79c.31,.42,1.31,.66,1.05,1.53-.17-.02-.43-.21-.58-.34-.18,.28,.25,.4,.07,.69-.79,.11-.39-.97-1.1-1.33-.27,.32,.77,.82-.12,.76,1.15,.12,.07,.92,1.02,1.34l-.47,.07c.09,.08,.36,.23,.39,.41l-.67-.19c.62,.38-.23,1.06,.16,1.46-.24-.99,.5-.35,.75-.85,.9,1.08-1.05,.98-.51,2.3-.11-.17,.12-.76,.4-.52-.03,.28-.13,.67-.34,.88,.31,.88,.44-.25,.82,.07-.49,.44,.33,.39,.61,.75l-.47,.11c-.06,1.1,1.04,.05,.9,1.06l-.74-.24,.28,.45-.56,.02c.52,.43,.45,.62,.43,1.17,.3-.2,.87-.13,.99,.32-.21,.38-.49-.07-.27,.56-.33-.08-.73-.15-.37-.53-.16,0-.33-.08-.49-.07-.24,.41,.12,.86,.18,1.1,0-.09,0-.21,.05-.28l.87,.78c-.14,.19-.31,.11-.48,.02,.1,.18,.34,.26,.45,.53-.4,.02-.79,.13-1.06-.22l.64,.79c-.15,.1-.34,.57-.51,.49-.1,.55,1.03,1.04,.9,1.77,.08,.02,.17,.07,.26,.19,.06,.64-.27,1.3,.43,1.9l-.58,.58c.29,.54,.73-.77,1.21,.12,.38,.62-.52,.39-.65,.68,.43,.25,1.27,.66,.87,1.42-.18-.17-.12-.36-.22-.54Zm2.06,6.98c-.13-.11-.51-.31-.26-.48,.58,.02,.35,.2,.26,.48Zm3.9,10.4c-.18-.06-.15-.24-.02-.46,.07,.12,.09,.27,.02,.46Zm11.54,28.65h-.03c.09-.36,.05-.23,.03,0Zm-.02,.68c.08,.04,.15,.02,.2-.03-.13,0-.18-.15-.19-.32-.11,.08-.17,.19,0,.34Zm-17.8-67.47l-.1,.15c-.2-.25-.06-.2,.1-.15Z"></path><path class="cls-1" d="M237.79,383.63c.07-.06,.15-.09,.24-.12-.09-.03-.18-.01-.24,.12Z"></path><path class="cls-1" d="M231.47,362.95s0-.02,0-.02c-.03,0-.06,0-.09,0l.09,.02Z"></path><path class="cls-1" d="M243.51,405.47c.03-.15,.09-.24,.17-.32-.12,.03-.19,.11-.17,.32Z"></path><path class="cls-1" d="M252.05,417.06l-.24-.36c.08,.19,0,.29-.04,.4,.11-.04,.24-.16,.28-.04Z"></path><path class="cls-1" d="M250.24,421.39c.07,.04,.04,.12,.12,.16l.21-.08c-.09-.24-.31-.37-.33-.08Z"></path><path class="cls-1" d="M250.62,417.89c-.38,.15-.17,.36-.01,.62,0-.02-.01-.03-.02-.05,.57-.08,.3-.33,.03-.57Z"></path><path class="cls-1" d="M250.64,418.57c.04,.08,.08,.17,.09,.26,.23-.03,.01-.12-.09-.26Z"></path><path class="cls-1" d="M250.76,414.71c-.06,.16,.52-.07,.39,.06,.54,0-.87-.7-.39-.06Z"></path><polygon class="cls-1" points="249.41 418.51 249.86 418.26 249.43 418.22 249.41 418.51"></polygon><path class="cls-1" d="M249.1,416.19v.49c.08-.03,.15,.01,.2,.07-.07-.28-.06-.61-.2-.56Z"></path><path class="cls-1" d="M249.3,416.75c.03,.15,.09,.28,.19,.34-.03-.08-.1-.24-.19-.34Z"></path><polygon class="cls-1" points="249.08 417.94 249.14 417.78 249.08 417.45 249.08 417.94"></polygon><path class="cls-1" d="M247.76,411.36l-.28-.45c-.18,0-.24,.16-.12,.32,.15,.08,.27,.25,.4,.12Z"></path><path class="cls-1" d="M246.88,413.22c.06-.16,.17-.2,.3-.32l-.6,.16,.3,.16Z"></path><path class="cls-1" d="M246.32,411.84c-.18,0-.68-.57-.46,.04,.18,0,.46,.45,.46-.04Z"></path><polygon class="cls-1" points="244.93 404.24 244.98 404.36 245.95 404.07 244.93 404.24"></polygon><path class="cls-1" d="M240.74,398.38c-.07,.65,.64-.03,.5,.58,.27,.07,.12-.5,.36-.41-.34-.28-.26-.51-.86-.16Z"></path><path class="cls-1" d="M241.6,398.55c.05,.05,.12,.09,.2,.14-.09-.08-.15-.12-.2-.14Z"></path><polygon class="cls-1" points="228.05 323.29 228.19 322.87 227.9 323.18 228.05 323.29"></polygon><path class="cls-1" d="M227.17,322.71l.62-.22-.62-.11c.05,.08,.13,.24,0,.33Z"></path><path class="cls-1" d="M233.85,375.64h.16c.15-.11,.14-.2,.12-.38l-.28,.38Z"></path><polygon class="cls-1" points="233.03 370.4 233.04 370.49 233.57 370.18 233.03 370.4"></polygon><path class="cls-1" d="M231.24,366.27c.02,.18,.2,.36,.22,.54-.2-.36,.48-.76-.22-.54Z"></path></g><g><path class="cls-4" d="M128.25,123.09c-24.15,3.73-47.04,15.25-64.43,32.42-4.54,4.48-8.94,9.87-9.23,16.24-.18,3.86,1.21,7.67,3.33,10.9,5.96,9.09,17.33,13.57,28.2,13.55s21.37-3.9,31.2-8.55c17.65-8.34,34.05-19.31,48.5-32.44,6.5-5.91,13.11-13.68,11.72-22.36-1.3-8.12-9.59-13.65-17.76-14.53s-16.27,1.84-24.02,4.59c-.86,.3-1.86,.79-1.93,1.7s1.75,1.14,1.53,.25"></path><path class="cls-4" d="M128.49,122.43c-21.04,3.29-41.17,12.19-57.68,25.66-4.09,3.33-8.12,6.91-11.56,10.92-3.28,3.83-6.03,8.39-6.12,13.56-.18,10.28,9.07,18.39,17.94,21.76,10.05,3.82,21.07,2.94,31.21-.08,11.09-3.31,21.65-8.74,31.6-14.58,9.91-5.82,19.33-12.49,28.09-19.92,7.35-6.24,17.09-14.18,17.22-24.74,.12-9.61-9.06-16.06-17.78-17.28-5.91-.82-11.96,.27-17.63,1.91-2.92,.84-5.85,1.77-8.69,2.87-1,.39-4.11,2.23-2.06,3.36,1.04,.58,3.93,.17,3.8-1.4-.06-.74-2.98-.17-2.9,.78l1.62-.55-.15-.11c0-.24-.13-.37,.02-.64,.21-.4,.71-.51,1.11-.65,1.35-.49,2.7-.95,4.06-1.4,2.69-.89,5.41-1.71,8.19-2.26,4.98-1,10.19-1.19,15.04,.51,3.85,1.35,7.44,3.75,9.82,7.11,2.55,3.59,3.24,8.11,2.1,12.34-1.24,4.61-4.21,8.55-7.44,11.97-3.48,3.69-7.41,6.98-11.33,10.18-7.99,6.54-16.48,12.45-25.4,17.65-9.01,5.26-18.53,10.21-28.51,13.36-9.35,2.95-19.38,3.95-28.77,.64-8.3-2.92-16.4-9.54-18.01-18.62-1.8-10.13,7.25-18.19,14.13-24.15,14.47-12.55,32.02-21.42,50.73-25.57,2.28-.51,4.58-.92,6.89-1.29,.39-.06,1.65-.34,1.67-.89,.02-.58-.82-.51-1.2-.45h0Z"></path></g><path class="cls-4" d="M150.77,121.56c-9.6,3.95-15.87,11.12-21.48,18.31-22.47,28.82-38.51,61.19-47.39,95.64-1.56,6.07-2.88,12.51-.21,18.96,4.5,10.9,18.79,18.52,32.21,23.83,36.07,14.27,75.63,20.78,112.31,18.49,7.28-.45,14.85-1.4,19.63-5.17,6.49-5.13,6.01-13.88,5.19-21.8-3.26-31.82-6.53-63.64-9.79-95.45-1.06-10.34,.43-23.92-7.1-34.07-6.04-8.14-18.01-12.26-28.3-15.68-18.22-6.04-39.15-9.61-55.06-3.06Z"></path><g><path class="cls-4" d="M171.97,121.54c-12.19-16.72-14.63-39.82-7.07-59.07,7.56-19.26,24.62-34.31,44.41-40.33,4.92-1.5,10.1-2.48,15.2-1.81,6.38,.83,12.16,4.18,17.39,7.93,13.84,9.92,25.22,23.25,32.84,38.48,5.87,11.73,9.48,25.83,4.23,37.85-5.68,13.01-19.8,19.8-32.81,25.5-6.17,2.71-12.34,5.41-18.51,8.12"></path><path class="cls-4" d="M173.3,120.9c-11.53-15.93-14.26-37.52-7.82-56.02,6.07-17.45,19.97-31.6,36.79-38.99,4.65-2.05,9.65-3.75,14.7-4.4,5.64-.73,10.96,.3,16.04,2.81,4.69,2.32,8.98,5.52,13.02,8.82,3.96,3.24,7.69,6.77,11.13,10.56,6.81,7.5,12.66,16.01,16.99,25.18,4.43,9.38,7.46,20.26,5.07,30.62-2.14,9.29-8.91,16.15-16.72,21.13-8.52,5.43-18.15,9.1-27.36,13.14-2.71,1.19-5.42,2.38-8.13,3.56-.56,.25-1.07,.95-.67,1.53,.42,.62,1.4,.49,1.97,.24,5.87-2.57,11.74-5.15,17.6-7.72,4.46-1.96,8.92-3.94,13.21-6.26,8.19-4.43,16.12-10.21,20.46-18.69,5.01-9.78,3.86-21.25,.35-31.31-3.51-10.04-9.22-19.44-15.85-27.71-6.67-8.33-14.63-15.82-23.54-21.71-4.46-2.95-9.35-5.43-14.68-6.32-5.88-.98-11.92,.18-17.53,1.96-18.31,5.8-34.31,19.01-42.78,36.34-8.87,18.15-8.54,40.4,1.11,58.18,1.19,2.2,2.53,4.31,4,6.33,.79,1.1,3.55-.05,2.65-1.29h0Z"></path></g><path class="cls-1" d="M181.09,118.18c-4.86-9.17-9.85-18.68-11.45-29.06-.39-2.54-.57-5.12-.47-7.69,.09-2.28,.15-5.17,1.26-7.22,1.14-2.1,3.94-2.27,6.05-2.55,2.31-.3,4.64-.41,6.97-.34,17.7,.55,35.11,11.41,39.74,29.11,2.67,10.2,.95,21.06-3.82,30.37-.27,.53,1,.45,1.2,.42,.56-.08,1.39-.32,1.68-.87,4.49-8.75,6.29-18.92,4.32-28.61-1.87-9.2-7.17-17.27-14.74-22.79s-16.7-8.52-25.92-8.95c-4.64-.22-9.9-.1-14.31,1.52-2.21,.81-3.94,2.18-4.56,4.53-.64,2.39-.78,5.01-.79,7.48-.03,12.72,6.15,24.47,11.95,35.42,.44,.82,3.22-.17,2.9-.78h0Z"></path><path class="cls-1" d="M99,194.1c4.23-10.4,9.96-20.12,17.03-28.85,.41-.51-.36-.61-.72-.61-.59,0-1.53,.24-1.93,.73-7.15,8.83-12.97,18.67-17.25,29.19-.26,.65,2.54,.36,2.87-.46h0Z"></path><g><path class="cls-1" d="M123.52,128.15c5.26-8.78,15.67-12.67,24.79-17.32,6.89-3.52,13.41-7.79,19.38-12.71-1.05,4.71-4.08,8.79-7.73,11.95s-7.91,5.51-12.14,7.83c1.63-.25,3.39-.39,4.85,.37s2.4,2.75,1.49,4.13c1.66-1.36,4.37,.27,4.84,2.37,.47,2.1-.52,4.22-1.48,6.15-.46,.92-.92,1.85-1.38,2.77-.67,1.34-1.41,2.76-2.72,3.47s-3.34,.27-3.69-1.18c-4.42,4.54-9.74,9.44-16.06,8.93-3.39-.28-6.59-2.26-8.35-5.16-1.76-2.9-2.04-6.66-.73-9.79"></path><path class="cls-4" d="M124.95,127.9c3.45-5.65,9.07-9.26,14.83-12.23,6.24-3.22,12.59-6.09,18.53-9.88,3.72-2.37,7.28-4.98,10.7-7.78l-2.74,.35c-2.28,9.64-11.22,14.9-19.28,19.33-1.08,.59-.29,.87,.57,.75,1.51-.22,3.22-.29,4.43,.8,.97,.87,1.39,2.24,.74,3.41-.35,.62,2.3-.03,2.54-.2-.55,.02-.59,.06-.13,.12,.18,.05,.36,.12,.52,.21,.28,.14,.53,.32,.76,.53,.56,.49,.95,1.12,1.13,1.84,.44,1.87-.38,3.77-1.17,5.43-.75,1.57-1.48,3.2-2.38,4.69-.22,.37-.46,.74-.75,1.07-.17,.19-.98,.64-.35,.55-.79,.12-1.5-.66-1.72-1.31-.24-.73-2.45,.17-2.76,.49-3.87,3.97-9.09,9.51-15.23,7.98-6.26-1.56-9.51-8.45-7.17-14.36,.2-.51-2.56-.25-2.86,.5-2.77,6.98,1.94,14.56,9.39,15.28,7.5,.73,13.63-4.63,18.5-9.61-.92,.16-1.84,.33-2.76,.49,.79,2.41,4.24,1.88,5.98,1,2.56-1.3,3.6-4.48,4.79-6.89,1.15-2.34,2.52-5.58,.44-7.83-1.66-1.81-4.54-1.66-6.44-.29l2.54-.2c.86-1.55,.04-3.42-1.41-4.29-1.8-1.08-4.12-.79-6.09-.51l.57,.75c8.42-4.62,18.08-10.13,20.47-20.24,.21-.87-2.47,.13-2.74,.35-6.14,5.03-12.82,9.36-19.91,12.91-5.86,2.93-11.98,5.54-17.22,9.53-2.83,2.15-5.29,4.69-7.15,7.73-.28,.46,1.04,.32,1.16,.3,.53-.09,1.39-.29,1.7-.8h0Z"></path></g><g><path class="cls-1" d="M146.56,118.33c2.22,1.45,3.5,4.04,3.91,6.66,.41,2.62,.04,5.29-.46,7.9-2.15-2.65-4.02-5.52-5.58-8.55,.26,3.34,.52,6.69,.78,10.03,.02,.32,.04,.67-.15,.92-.45,.61-1.42,.1-1.92-.47-1.5-1.7-2.55-3.79-3.03-6.01,.95,3.2,1.57,6.49,1.83,9.82-2.42-1.45-4.58-3.33-6.34-5.53,.75,1,.17,2.41-.42,3.51-1.12,2.08-2.33,4.26-4.37,5.47"></path><path class="cls-4" d="M145.41,119.05c4.52,3.12,4.03,9.3,3.16,14.01,.93-.25,1.86-.5,2.79-.75-2.09-2.61-3.93-5.4-5.48-8.37-.51-.97-2.99-.35-2.9,.78,.14,1.75,.27,3.49,.41,5.24l.2,2.51c.02,.25,.07,2.61,.48,2.45l1.14-.22c-.88,.02-1.92-2.03-2.28-2.66-.64-1.14-1.07-2.36-1.36-3.63l-2.9,.78c.94,3.21,1.55,6.49,1.83,9.82l2.6-1.1c-2.36-1.44-4.4-3.25-6.15-5.39-.63-.77-3.33,.09-2.69,1.15,.81,1.33-.6,3.25-1.25,4.37-.81,1.38-1.72,2.71-3.1,3.58-.46,.29-.78,.8-.24,1.17s1.57,.04,2.05-.26c1.84-1.16,3.12-2.85,4.18-4.72,.91-1.6,2.13-3.5,1.04-5.29-.9,.38-1.79,.77-2.69,1.15,1.85,2.26,4.04,4.15,6.53,5.68,.71,.44,2.68-.09,2.6-1.1-.28-3.33-.89-6.61-1.83-9.82-.3-1.04-3.14-.29-2.9,.78,.63,2.72,2.97,8.72,6.79,6.9,1.86-.89,1.12-3.2,.99-4.85-.19-2.43-.38-4.86-.57-7.29-.97,.26-1.93,.52-2.9,.78,1.61,3.1,3.5,6.02,5.69,8.74,.57,.71,2.63,.11,2.79-.75,.99-5.33,1.24-11.65-3.76-15.1-.8-.55-3.47,.62-2.3,1.43h0Z"></path></g><path class="cls-1" d="M191.87,103.39c-2.18-2.13-6.27-.48-7.24,2.11-1.08,2.87,1.01,5.86,2.68,8.03s4.73,5.22,7.74,3.46c1.28-.75,1.9-2.38,2.38-3.71,.53-1.48,.8-3.07,.61-4.64-.38-3.05-2.84-5.52-5.96-5.6-.62-.02-1.56,.22-1.91,.79s.31,.83,.78,.84c1.8,.05,3.27,1.72,3.85,3.3,.81,2.21,.25,4.66-.69,6.74-.19,.43-.42,.83-.67,1.23,.09-.14-.16,.21-.16,.2-.02-.14,.89-.13,.89-.2,0,.01-.72-.34-.78-.37-.92-.53-1.72-1.26-2.44-2.04-1.47-1.6-3.02-3.65-3.54-5.79-.26-1.06-.21-2.31,.46-3.22,.12-.16,.24-.28,.39-.39,.15-.11,.08-.04,.05-.02-.13,.07-.19-.06,.05,0,.21,.05,.57,.19,.82,.43,.72,.7,3.46-.38,2.69-1.13h0Z"></path></g><g id="tab-coding"><g><path class="cls-1" d="M417.4,174.25c-.62-3.29-1.41-6.88-3.99-8.8-2.59-1.93-6.18-1.57-9.44-1.11-17.62,2.52-241.69,39.64-259.18,42.93-3.23,.61-6.74,1.43-8.58,4.09-1.82,2.65-1.41,6.3-.94,9.61,2.57,17.85,22.08,139.57,26.15,162.39,.45,2.51,.95,5.13,2.59,7.15,4.08,5.03,11.9,2.67,18.3,1.83,31.94-4.19,213.49-37.04,245.8-40.72,6.41-.73,14.49-1.56,16.73-7.63,.9-2.44,.53-5.08,.14-7.6-3.5-22.91-24.29-144.42-27.61-162.15Z"></path><path class="cls-2" d="M418.85,173.86c-.55-2.93-1.19-6.17-3.41-8.34-2.31-2.26-5.84-2.3-8.85-2-1.61,.16-3.21,.42-4.8,.67-3.38,.52-6.76,1.06-10.14,1.6-12.05,1.93-24.1,3.9-36.15,5.87-16.57,2.71-33.13,5.44-49.69,8.17-18.22,3.01-36.43,6.02-54.64,9.05-16.97,2.82-33.95,5.65-50.92,8.49-12.87,2.15-25.75,4.31-38.61,6.5-3.94,.67-7.88,1.34-11.82,2.03-4.6,.8-10.13,1.18-13.75,4.3-3.69,3.19-2.63,8.51-2,12.76,.31,2.06,.62,4.11,.94,6.17,1,6.51,2.02,13.02,3.05,19.53,2.9,18.42,5.85,36.83,8.81,55.25,2.95,18.33,5.91,36.66,8.93,54.98,1.05,6.34,2.09,12.69,3.18,19.02,.39,2.29,.76,4.58,1.2,6.85,.6,3.13,1.68,6.35,4.59,8.06,2.32,1.36,5.15,1.5,7.77,1.35,3.98-.22,7.94-1.07,11.88-1.62,2.06-.29,4.11-.6,6.17-.92,5.85-.9,11.7-1.85,17.54-2.81,16.46-2.71,32.89-5.53,49.33-8.35,19.61-3.36,39.21-6.75,58.82-10.12,18.87-3.24,37.74-6.48,56.62-9.64,14.23-2.38,28.46-4.76,42.73-6.89,4.62-.69,8.86-1.27,13.48-1.81,5.06-.6,11.19-1.32,15.04-5.03,3.66-3.53,2.71-8.51,2-13.03-2.14-13.65-4.46-27.27-6.76-40.89-3.26-19.35-6.55-38.7-9.87-58.04-2.79-16.26-5.58-32.51-8.44-48.75-.73-4.14-1.45-8.28-2.22-12.41-.11-.58-3.03,.08-2.9,.78,2.13,11.35,4.04,22.75,6.01,34.13,3.23,18.67,6.43,37.35,9.61,56.02,2.96,17.42,5.91,34.85,8.8,52.29,.93,5.64,1.87,11.29,2.76,16.94,.66,4.19,1.95,9.13-1.11,12.68-3.28,3.81-9.33,3.9-13.93,4.44-10.79,1.28-21.53,3.1-32.25,4.84-16.92,2.74-33.83,5.61-50.73,8.49-19.45,3.31-38.89,6.67-58.33,10.02-18.3,3.15-36.6,6.31-54.91,9.41-13.34,2.26-26.68,4.53-40.05,6.59-5.81,.9-10.88,1.87-16.72,2.45-2.95,.29-6.16,.21-8.56-1.74-2.53-2.06-3.15-5.39-3.69-8.43-.36-2.05-.72-4.1-1.06-6.15-2.54-14.92-4.96-29.86-7.38-44.79-3.13-19.25-6.22-38.5-9.29-57.75-2.39-15.02-4.79-30.03-7.1-45.06-.33-2.13-.65-4.26-.97-6.39-.61-4.08-1.94-9.58,1.66-12.63,2.72-2.31,7.91-2.56,11.47-3.18,9.86-1.72,19.73-3.37,29.6-5.03,15.21-2.56,30.42-5.1,45.63-7.63,17.65-2.94,35.31-5.87,52.96-8.8,17.54-2.9,35.08-5.8,52.62-8.69,14.53-2.39,29.07-4.78,43.61-7.14,8.72-1.42,17.45-2.85,26.18-4.2,.93-.14,1.86-.29,2.79-.42,2.98-.43,6.37-.77,8.83,1.32,2.39,2.04,3.01,5.5,3.56,8.42,.11,.58,3.03-.08,2.9-.78Z"></path></g><g><path class="cls-2" d="M419.76,186.99c-.76-4.11-1.52-8.23-2.29-12.35-.63-3.4-1.44-7.1-4.03-9.09-2.6-2-6.19-1.65-9.45-1.19-17.62,2.51-241.69,39.63-259.18,42.93-3.23,.61-6.74,1.44-8.56,4.17-1.81,2.72-1.38,6.49-.89,9.91,.6,4.16,1.21,8.3,1.82,12.43l282.59-46.81Z"></path><path class="cls-2" d="M421.21,186.6c-.54-2.95-1.09-5.91-1.64-8.86-.48-2.59-.84-5.25-1.65-7.76-.67-2.08-1.76-4.16-3.67-5.34-1.94-1.2-4.26-1.42-6.49-1.31-2.5,.12-5.02,.59-7.49,.97-6.09,.95-12.18,1.93-18.26,2.92-9.49,1.54-18.98,3.08-28.46,4.64-11.84,1.94-23.69,3.89-35.53,5.84-13.01,2.14-26.03,4.29-39.04,6.45-13.13,2.17-26.26,4.35-39.4,6.54-12.2,2.03-24.4,4.06-36.6,6.1-10.08,1.69-20.17,3.38-30.25,5.08-6.92,1.17-13.84,2.34-20.76,3.54-1.94,.34-3.88,.67-5.81,1.02s-4,.74-5.92,1.41-3.96,1.77-5.2,3.5c-1.32,1.85-1.61,4.1-1.55,6.32,.08,2.64,.59,5.27,.97,7.88,.42,2.88,.84,5.76,1.27,8.64,.06,.4,.99,.3,1.21,.26,2.53-.42,5.07-.84,7.6-1.26,6.84-1.13,13.67-2.26,20.51-3.4l30.52-5.06c12.33-2.04,24.65-4.08,36.98-6.13,13.59-2.25,27.18-4.5,40.78-6.75,13.63-2.26,27.25-4.51,40.88-6.77,12.79-2.12,25.58-4.24,38.37-6.36,10.74-1.78,21.47-3.56,32.21-5.34,7.75-1.28,15.5-2.57,23.25-3.85,3.67-.61,7.35-1.19,11.02-1.83,.16-.03,.32-.05,.47-.08,.38-.06,1.65-.34,1.68-.88,.02-.57-.82-.49-1.2-.43-2.53,.42-5.07,.84-7.6,1.26-6.84,1.13-13.67,2.26-20.51,3.4-10.17,1.69-20.35,3.37-30.52,5.06-12.33,2.04-24.65,4.08-36.98,6.13-13.59,2.25-27.18,4.5-40.78,6.75s-27.25,4.51-40.88,6.77c-12.79,2.12-25.58,4.24-38.37,6.36-10.74,1.78-21.47,3.56-32.21,5.34-7.75,1.28-15.5,2.57-23.25,3.85-3.66,.61-7.39,1.05-11.02,1.83-.16,.03-.32,.05-.47,.08l1.21,.26c-.42-2.88-.85-5.76-1.27-8.64-.39-2.68-.92-5.39-.97-8.11-.05-2.46,.47-5.06,2.49-6.67,1.62-1.3,3.8-1.69,5.79-2.07,1.55-.29,3.11-.56,4.66-.83,6.2-1.08,12.41-2.14,18.61-3.19,9.41-1.59,18.82-3.17,28.23-4.75,11.65-1.95,23.3-3.9,34.95-5.84,12.82-2.13,25.63-4.26,38.45-6.39,12.89-2.14,25.78-4.27,38.67-6.4,12.02-1.98,24.05-3.96,36.07-5.94,10.06-1.65,20.13-3.3,30.19-4.93,7.04-1.14,14.08-2.29,21.12-3.4,2.09-.33,4.18-.66,6.28-.98,.62-.09,1.23-.19,1.85-.27,2.49-.35,5.31-.72,7.6,.57,2.15,1.21,3.21,3.54,3.86,5.81,1.48,5.18,2.13,10.69,3.1,15.99,.14,.77,3.06,.1,2.9-.78Z"></path></g><g><path class="cls-1" d="M153.44,212.59c-1.76-.34-3.66,.12-5.08,1.21-.54,.42-1.02,.94-1.31,1.56-.46,1-.39,2.16-.26,3.25,.11,.96,.28,1.95,.79,2.77,1,1.61,3.07,2.19,4.96,2.3,.7,.04,1.43,.03,2.09-.2,.71-.25,1.31-.75,1.78-1.33,1.23-1.5,1.67-3.61,1.14-5.48-.53-1.87-2.01-3.43-3.84-4.07"></path><path class="cls-1" d="M154.33,211.8c-2.91-.51-6.49,.46-8.28,2.95-.86,1.2-.88,2.65-.73,4.07,.14,1.3,.39,2.63,1.28,3.65,.81,.92,1.98,1.43,3.14,1.73,1.37,.36,2.93,.47,4.32,.21,2.88-.55,5.02-3.13,5.14-6.04,.12-2.86-1.66-5.47-4.35-6.45-.66-.24-1.46-.1-2.05,.27-.34,.21-.93,.89-.25,1.14,1.79,.65,3.17,2.14,3.61,4,.43,1.82-.09,4.17-1.65,5.34-.47,.36-1.31,.26-2.04,.15-.87-.13-1.76-.37-2.49-.87-.79-.54-1.26-1.35-1.49-2.27-.27-1.06-.44-2.29-.3-3.37s.81-2.02,1.82-2.55c.35-.19,.76-.32,1.01-.37,.52-.1,1.01-.09,1.54,0,.68,.12,1.53-.07,2.05-.55,.43-.4,.34-.92-.28-1.03h0Z"></path></g><g><path class="cls-1" d="M171.59,209.58c-1.76-.34-3.66,.12-5.08,1.21-.54,.42-1.02,.94-1.31,1.56-.46,1-.39,2.16-.26,3.25,.11,.96,.28,1.95,.79,2.77,1,1.61,3.07,2.19,4.96,2.3,.7,.04,1.43,.03,2.09-.2,.71-.25,1.31-.75,1.78-1.33,1.23-1.5,1.67-3.61,1.14-5.48s-2.01-3.43-3.84-4.07"></path><path class="cls-1" d="M172.47,208.78c-2.91-.51-6.49,.46-8.28,2.95-.87,1.2-.88,2.66-.73,4.07,.14,1.3,.39,2.63,1.29,3.65,.81,.92,1.98,1.44,3.14,1.74,1.37,.36,2.93,.47,4.33,.21,2.88-.54,5.02-3.14,5.14-6.05s-1.66-5.48-4.35-6.46c-.67-.24-1.46-.11-2.05,.27-.34,.21-.92,.9-.25,1.15,1.79,.65,3.17,2.13,3.61,4s-.1,4.16-1.65,5.33c-.45,.34-1.33,.26-2.04,.15-.87-.13-1.75-.37-2.49-.87-.8-.54-1.26-1.34-1.49-2.26-.27-1.06-.44-2.28-.3-3.37,.15-1.14,.82-2.01,1.82-2.55,.39-.21,.75-.32,1.12-.39,.41-.07,.95-.06,1.43,.02,.69,.12,1.53-.07,2.05-.55,.43-.4,.34-.93-.28-1.04h0Z"></path></g><g><path class="cls-1" d="M189.49,206.61c-1.76-.34-3.66,.12-5.08,1.21-.54,.42-1.02,.94-1.31,1.56-.46,1-.39,2.16-.26,3.25,.11,.96,.28,1.95,.79,2.77,1,1.61,3.07,2.19,4.96,2.3,.7,.04,1.43,.03,2.09-.2,.71-.25,1.31-.75,1.78-1.33,1.23-1.5,1.67-3.61,1.14-5.48-.53-1.87-2.01-3.43-3.84-4.07"></path><path class="cls-1" d="M190,205.59c-2.91-.51-6.4,.65-8.03,3.2-.81,1.27-.75,2.79-.58,4.23,.15,1.3,.45,2.65,1.38,3.63,1.82,1.92,5.19,2.49,7.7,1.94,2.82-.62,4.77-3.51,4.81-6.32,.04-3-1.89-5.57-4.68-6.59-.67-.24-1.59,.02-2.05,.55s-.27,1.12,.36,1.35c1.71,.62,2.97,2.15,3.34,3.92s-.2,4-1.76,4.99c-.23,.15-.49,.2-.9,.21-.48,.02-.97-.04-1.45-.11-.78-.11-1.59-.36-2.27-.84-.77-.54-1.17-1.34-1.37-2.24-.24-1.06-.4-2.25-.21-3.33,.18-1.03,.95-1.78,1.82-2.2,.89-.44,1.79-.54,2.87-.35,.66,.12,1.59-.25,1.89-.87,.33-.67-.29-1.06-.87-1.17h0Z"></path></g><g id="fours"><g><path class="cls-4" d="M250.87,331.24l-5.4,.9c-1.4,.23-2.35,1.56-2.12,2.96l2.6,15.67c.23,1.4-.72,2.73-2.12,2.96l-19.55,3.24c-1.4,.23-2.73-.72-2.96-2.12l-2.6-15.67c-.23-1.4-1.56-2.35-2.96-2.12l-29.74,4.93c-1.4,.23-2.73-.72-2.96-2.12l-2.8-16.91c-.07-.42-.03-.84,.1-1.25l23.72-70.13c.3-.9,1.08-1.56,2.02-1.71l19.98-3.31c1.4-.23,2.73,.72,2.96,2.12l10.07,60.82c.23,1.4,1.56,2.35,2.96,2.12l5.4-.9c1.4-.23,2.73,.72,2.96,2.12l2.56,15.45c.23,1.4-.72,2.73-2.12,2.96Zm-38.51-14.71c1.4-.23,2.35-1.56,2.12-2.96l-2-12.05c-.07-.44-.23-1.47-.47-3.08-.24-1.62-.5-3.39-.77-5.33-.27-1.94-.5-3.63-.69-5.08-.19-1.45-.27-2.23-.24-2.33l-.59,.1c-.29,2.21-.65,4.25-1.09,6.13-.44,1.88-.95,3.65-1.53,5.3l-5.74,17.31c-.61,1.84,.95,3.67,2.86,3.35l8.14-1.35Z"></path><path class="cls-4" d="M319.03,286.36c1.28,7.72,1.99,15,2.15,21.82,.15,6.83-.54,12.93-2.09,18.31-1.54,5.38-4.15,9.8-7.82,13.27-3.67,3.47-8.7,5.73-15.11,6.79-7.04,1.17-13.25,.09-18.65-3.24-5.4-3.32-9.95-8.86-13.67-16.6-3.72-7.74-6.58-17.67-8.59-29.79-2.1-12.71-2.68-23.33-1.74-31.87,.95-8.54,3.45-15.16,7.52-19.85,4.07-4.69,9.69-7.63,16.88-8.82,7.08-1.17,13.33-.09,18.73,3.26,5.4,3.35,9.97,8.92,13.72,16.71,3.75,7.79,6.64,17.79,8.66,30.01Zm-38.7,6.41c1.26,7.62,2.47,13.83,3.61,18.61,1.14,4.78,2.38,8.24,3.72,10.38,1.33,2.14,2.95,3.05,4.86,2.73,1.95-.32,3.23-1.71,3.83-4.17,.6-2.46,.66-6.14,.21-11.03-.46-4.89-1.32-11.15-2.58-18.78-1.23-7.43-2.42-13.57-3.58-18.42-1.16-4.85-2.43-8.42-3.81-10.7-1.38-2.28-3.05-3.26-5.01-2.94-1.81,.3-3,1.75-3.57,4.36-.57,2.61-.64,6.39-.19,11.37,.45,4.97,1.29,11.17,2.52,18.6Z"></path><path class="cls-4" d="M399.53,306.61l-5.4,.9c-1.4,.23-2.35,1.56-2.12,2.96l2.6,15.67c.23,1.4-.72,2.73-2.12,2.96l-19.55,3.24c-1.4,.23-2.73-.72-2.96-2.12l-2.6-15.67c-.23-1.4-1.56-2.35-2.96-2.12l-29.74,4.93c-1.4,.23-2.73-.72-2.96-2.12l-2.8-16.91c-.07-.42-.03-.84,.1-1.25l23.72-70.13c.3-.9,1.08-1.56,2.02-1.71l19.98-3.31c1.4-.23,2.73,.72,2.96,2.12l10.07,60.82c.23,1.4,1.56,2.35,2.96,2.12l5.4-.9c1.4-.23,2.73,.72,2.96,2.12l2.56,15.45c.23,1.4-.72,2.73-2.12,2.96Zm-38.51-14.71c1.4-.23,2.35-1.56,2.12-2.96l-2-12.05c-.07-.44-.23-1.47-.47-3.08-.24-1.62-.5-3.39-.77-5.33-.27-1.94-.5-3.63-.69-5.08-.19-1.45-.27-2.23-.24-2.33l-.59,.1c-.29,2.21-.65,4.25-1.09,6.13-.44,1.88-.95,3.65-1.53,5.3l-5.74,17.31c-.61,1.84,.95,3.67,2.86,3.35l8.14-1.35Z"></path></g></g><path class="cls-1" d="M396.48,173.81c3.48,2.55,6.95,5.11,10.43,7.66,.58,.42,1.54,.21,2.07-.19,.5-.37,.74-1.03,.17-1.46-3.48-2.55-6.95-5.11-10.43-7.66-.58-.42-1.54-.21-2.07,.19-.5,.37-.74,1.03-.17,1.46h0Z"></path><path class="cls-1" d="M404.43,171.29c-2.61,3.22-4.95,6.65-6.98,10.26-.24,.42,1.02,.23,1.14,.2,.47-.09,1.44-.27,1.71-.75,2.03-3.61,4.37-7.04,6.98-10.26,.3-.37-1.07-.22-1.14-.2-.56,.11-1.33,.28-1.71,.75h0Z"></path></g><g id="hand"><g><path class="cls-1" d="M285.02,257.72c-2.19,5.16-3.48,10.78-3.76,16.46,1.68-2.61,3.36-5.21,5.04-7.82,2.42,9.83,6.18,19.27,11.12,27.91,.87-3.94,1.23-8.01,1.07-12.05,1.54,4.38,3.86,8.43,6.78,11.87,.03-3.74,.05-7.48,.08-11.22,.92,2.33,2.11,4.53,3.54,6.53,.35,.49,.87,1.02,1.4,.81,.52-.21,.61-.97,.61-1.58,0-2.81,0-5.63,0-8.44,.29,3.71,2.86,7.07,6.15,8.03,2.41-12.25,.74-25.4-4.64-36.46"></path><path class="cls-4" d="M283.62,257.53c-2.23,5.32-3.52,10.99-3.84,16.75-.07,1.35,2.15,1.21,2.69,.37,1.68-2.61,3.36-5.21,5.04-7.82l-2.67-.08c2.45,9.86,6.22,19.35,11.24,28.18,.63,1.1,2.58,.24,2.79-.75,.85-3.97,1.21-8,1.07-12.05l-2.92,.48c1.59,4.42,3.89,8.53,6.91,12.13,.67,.8,2.79,.49,2.79-.75,.03-3.74,.05-7.48,.08-11.22-.97,.16-1.95,.32-2.92,.48,.75,1.85,1.63,3.66,2.7,5.35,.89,1.41,2,3.25,3.97,2.64s1.8-2.55,1.81-4.21c0-2.32,0-4.63,0-6.95l-2.92,.48c.38,3.89,3,7.46,6.77,8.66,.88,.28,2.1-.11,2.3-1.11,2.41-12.48,.72-25.57-4.79-37.02-.59-1.22-3.33-.12-2.65,1.3,5.33,11.08,6.82,23.86,4.49,35.91,.77-.37,1.53-.74,2.3-1.11-3.25-1.04-5.21-4.11-5.53-7.41-.13-1.3-2.92-.72-2.92,.48,0,1.65,0,3.31,0,4.96,0,.74,0,1.49,0,2.23,0,.24,.18,1.83-.11,2.02l1.09-.4c-.21,.03-1.63-2.57-1.83-2.92-.68-1.19-1.26-2.43-1.77-3.7-.47-1.16-2.91-.83-2.92,.48-.03,3.74-.05,7.48-.08,11.22,.93-.25,1.86-.5,2.79-.75-2.9-3.46-5.13-7.36-6.66-11.6-.43-1.19-2.96-.81-2.92,.48,.14,4.05-.22,8.08-1.07,12.05,.93-.25,1.86-.5,2.79-.75-4.92-8.67-8.59-17.98-10.99-27.65-.27-1.08-2.18-.84-2.67-.08-1.68,2.61-3.36,5.21-5.04,7.82l2.69,.37c.3-5.58,1.52-11.02,3.68-16.17,.66-1.56-2.26-1.64-2.78-.38h0Z"></path></g><g><path class="cls-4" d="M220.23,146.54c9.4-3.48,20.95-2.41,30.32,1.12s16.91,9.23,23.83,15.12c32.76,27.88,55.43,62.29,64.99,98.66-21.21-.59-42.42-1.17-63.63-1.76-9.69-32.75-28.7-63.95-55.4-90.94"></path><path class="cls-1" d="M220.74,146.9c11.39-4.13,24.63-1.23,35.06,4.24s19.44,13.66,27.87,21.77c16.53,15.9,30.75,34.31,41.17,54.78,5.54,10.89,9.97,22.33,13.09,34.14,.79-.33,1.59-.67,2.38-1-21.21-.59-42.42-1.17-63.63-1.76l.52,.23c-7.89-26.56-21.58-51.12-38.96-72.62-5.19-6.42-10.72-12.56-16.52-18.44-.54-.55-3.21,.51-2.73,1,19.82,20.07,36.41,43.45,47.56,69.42,3,6.98,5.59,14.13,7.75,21.41,.05,.18,.38,.22,.52,.23,21.21,.59,42.42,1.17,63.63,1.76,.4,.01,2.57-.28,2.38-1-5.81-22-16.2-42.6-29.64-60.91-7.08-9.65-14.99-18.68-23.56-27.04-4.42-4.31-9.01-8.46-13.76-12.4-4.62-3.83-9.48-7.42-14.78-10.27-11.87-6.38-26.45-8.94-39.37-4.26-.31,.11-1.14,.43-.85,.86,.26,.39,1.59-.04,1.87-.14h0Z"></path></g></g><g id="shock"><g><path class="cls-2" d="M312.8,131.86c5.91-27.17,13.02-55.06,30.03-77.06,1.19-1.55,2.77-3.21,4.72-3.02,3.44,.34,3.57,5.31,2.61,8.63-7.91,27.4-20.13,53.55-36.07,77.19"></path><path class="cls-2" d="M314.26,133.78c5.03-23.11,10.8-46.72,23.24-67.13,1.54-2.53,3.18-5,4.92-7.39,1.37-1.88,3.19-5.12,5.79-5.39,.55-.06,1,.26,1.49,.24l.2,.13c-.19-.2-.35-.41-.48-.65-.08-.11-.45-.93-.45-.67,0,.45,.2,.95,.23,1.41,.04,.6,0,1.22-.05,1.82-.27,2.68-1.32,5.33-2.12,7.9-3.69,11.83-8.19,23.41-13.44,34.63-5.99,12.79-12.98,25.11-20.87,36.82-.73,1.08,2.58,4.43,2.75,4.18,14.71-21.85,26.28-45.8,34.21-70.92,1.55-4.92,3.88-10.26,1.1-15.17-1.15-2.03-3.02-4.44-5.65-3.83s-4.48,3.97-5.94,6.01c-7.27,10.16-12.65,21.55-16.83,33.28-4.74,13.31-8,27.08-11,40.87-.19,.86,.86,2.17,1.34,2.8,.14,.19,1.42,1.74,1.57,1.06h0Z"></path></g><g><path class="cls-2" d="M311.82,147.9c-1.29-1.98-3.53-4.24-5.61-3.11-1.04,.56-1.51,1.78-1.83,2.92-.49,1.69-.84,3.43-1.06,5.18-.07,.54-.12,1.1,.04,1.62,.33,1.08,1.47,1.7,2.56,2.01,2.42,.68,5.32,.19,6.86-1.79,1.54-1.98,.88-5.48-1.51-6.23"></path><path class="cls-2" d="M314.31,148.06c-.77-1.16-1.73-2.33-2.96-3.02-.72-.41-1.53-.56-2.34-.67-1.41-.19-3.03-.37-4.44-.08s-2.09,1.44-2.51,2.68c-.53,1.57-.87,3.24-1.11,4.87-.11,.74-.29,1.56-.13,2.3,.14,.64,.55,1.14,1.06,1.52,1.31,.98,3.2,1.17,4.77,1.32,2.91,.29,7.08,.49,8.86-2.43,1.23-2.01,.54-5.17-1.83-5.97-.96-.32-2.05-.36-3.06-.39-.5-.02-1.01-.04-1.5,.02-.05,0-.55,.09-.27,.19,1.68,.56,2.41,2.41,2.23,4.07-.21,2.04-1.82,3.41-3.73,3.88-.22,.05-.43,.09-.65,.11s.21,.07-.2,.01c.45,.06,.96,.01,1.41,.06,1.18,.12,.64,.11,.43,.05,.19,.05-.15-.04-.19-.05-.26-.07-.51-.17-.76-.28-1-.47-1.65-1.26-1.65-2.39,0-1.35,.34-2.76,.63-4.07,.26-1.18,.52-2.45,1.1-3.52,.27-.5,.63-.98,1.13-1.25,.1-.05,.2-.1,.31-.14,.1-.04,.2-.07,.31-.1-1.11-.07-2.22-.14-3.34-.22,.24,.12,.49,.2,.72,.34,1.13,.67,2,1.74,2.71,2.83,.11,.17,.59,.21,.72,.24,.58,.1,1.18,.16,1.76,.2s1.18,.07,1.77,.04c.07,0,.79-.07,.74-.14h0Z"></path></g><path class="cls-2" d="M347.6,129.81c1.62-4.57,3.07-9.25,5.01-13.7,1.58-3.62,3.68-7.01,7.11-9.13-1.09-.23-2.19-.46-3.28-.7,.46,.5,.44,.72,.27,1.49-.18,.82-.58,1.62-.96,2.36-1.07,2.1-2.27,4.13-3.51,6.14-2.53,4.09-5.35,7.99-8.41,11.71-1.82,2.21,1.89,5.52,3.81,3.19,3.54-4.29,6.75-8.85,9.57-13.64,2.16-3.67,6.59-9.82,2.85-13.89-.89-.97-2.06-1.45-3.28-.7-3.87,2.39-6.38,6.27-8.23,10.33-2.11,4.64-3.62,9.58-5.31,14.38-.95,2.69,3.34,5.08,4.37,2.15h0Z"></path><path class="cls-2" d="M339.4,136.12c-.58,.25-1.11,.83-1.3,1.42-.21,.64-.22,1.29-.03,1.94s.64,1.39,1.21,1.81c.72,.51,1.57,.71,2.37,.28s1.1-1.34,1.03-2.17c-.14-1.53-1.7-3.38-3.36-2.65-.43,.19-.84,.52-1.14,.87-.75,.88-1.1,2.16-.91,3.3,.13,.78,.41,1.44,1,1.99,.45,.43,1.1,.82,1.76,.68,1.26-.27,2.57-.64,3.45-1.64,1.13-1.3,.99-3.22,.25-4.66-.4-.78-1.13-1.54-1.97-1.85-.94-.35-1.9-.25-2.75,.3-1.02,.66-1.83,1.65-2.22,2.8-.5,1.46-.56,3.15,.04,4.59,.22,.52,.45,.98,.87,1.38,.32,.3,.79,.65,1.25,.68,.87,.05,1.65-.06,2.44-.47,.6-.31,1.16-.79,1.57-1.33,.96-1.25,1.48-2.92,1.24-4.49-.18-1.2-.64-2.34-1.46-3.25-.35-.4-.92-.84-1.47-.89-.49-.05-1.07,.04-1.38,.47-.52,.72-1.04,1.44-1.56,2.16-.33,.46-.47,.97-.42,1.54,.05,.61,.35,1.33,.77,1.78,.38,.41,.89,.83,1.47,.89,.49,.05,1.07-.04,1.38-.47,.52-.72,1.04-1.44,1.56-2.16-.95-.14-1.9-.28-2.85-.42,.09,.1,.16,.2,.24,.3l-.38-.55c.09,.14,.17,.28,.24,.44l-.26-.61c.08,.19,.14,.38,.19,.59l-.12-.61c.05,.25,.07,.49,.06,.74v-.58c0,.3-.04,.59-.12,.87l.14-.52c-.11,.39-.27,.77-.48,1.12l.27-.44c-.23,.38-.52,.72-.87,1l.39-.32c-.29,.23-.61,.42-.97,.54l.48-.16c-.3,.1-.61,.15-.92,.15h.51s-.09,0-.13,0c.71,.69,1.41,1.37,2.12,2.06-.1-.24-.18-.48-.23-.74l.12,.61c-.05-.28-.08-.56-.07-.84v.58c0-.34,.05-.67,.13-.99l-.14,.52c.11-.4,.27-.78,.49-1.13l-.27,.44c.23-.37,.52-.7,.86-.98l-.39,.32c.25-.2,.53-.37,.83-.49l-.48,.16c.16-.05,.32-.08,.49-.08h-.51c.08,0,.16,.01,.24,.04l-.52-.16c.07,.03,.14,.06,.21,.09l-.5-.3c.07,.04,.12,.09,.18,.14l-.45-.43c.06,.06,.1,.11,.15,.18l-.38-.55c.06,.09,.1,.17,.14,.27l-.26-.61c.04,.1,.07,.2,.09,.3l-.12-.61c.02,.13,.04,.25,.04,.38v-.58c0,.15-.01,.3-.05,.45l.14-.52c-.04,.15-.1,.28-.17,.41l.27-.44c-.13,.2-.29,.37-.48,.52l.39-.32c-.34,.26-.71,.44-1.11,.58l.48-.16c-.38,.13-.77,.22-1.17,.3,.92,.89,1.84,1.78,2.75,2.67-.02-.13-.03-.26-.03-.39v.58c0-.16,.02-.31,.05-.47l-.14,.52c.06-.23,.15-.44,.28-.65l-.27,.44c.13-.2,.28-.37,.47-.53l-.39,.32c.15-.11,.3-.21,.47-.28h-1.51s.06,.02,.08,.04l-.5-.3,.03,.02-.83-.98,.02,.03-.26-.61v.03c-.03-.2-.07-.41-.12-.61v.03c0-.19,0-.39,.01-.58v.03c.04-.17,.09-.35,.14-.52,0,.02-.01,.05-.03,.07l.27-.44c-.03,.05-.07,.09-.11,.13l.39-.32c-.06,.05-.13,.09-.2,.11l.48-.16s-.06,.01-.09,.01h.51s-.06,0-.08,0l.52,.16-.04-.02,.5,.3-.04-.02,.45,.43s-.04-.04-.06-.07l.38,.55-.03-.07,.26,.61-.02-.07,.12,.61s-.01-.09,0-.14v.58s0-.05,0-.07l-.14,.52c.02-.08,.05-.14,.09-.21l-.27,.44c.08-.12,.17-.21,.27-.3l-.39,.32c.09-.06,.18-.12,.29-.16,.46-.2,.73-.83,.8-1.28,.08-.58-.08-1.31-.38-1.81-.59-.99-1.67-1.79-2.84-1.28h0Z"></path></g></svg>