<svg transform="scale(1)" xmlns="http://www.w3.org/2000/svg" viewBox="0 0 100 100" class="show_show__wrapper__graphic__5Waiy "><title>React</title><defs><style>.cls-1{fill:#ffffff;}.cls-2,.cls-5{fill:#0a0a0a;}.cls-2{opacity:0.15;}.cls-3{fill:#828282;}.cls-4{fill:#d4d4d4;}.cls-6{fill:#0a0a0a;}</style></defs><g id="_0802_Campus" data-name="0802_Campus"><rect class="cls-1" x="7.42" y="47.79" width="85.16" height="41.45"></rect><rect class="cls-2" x="7.44" y="47.7" width="85.16" height="41.45"></rect><path class="cls-3" d="M79.37,35.31H20.63a.67.67,0,0,0-.4.14L5.84,47.8a.61.61,0,0,0,0,.87.64.64,0,0,0,.45.21H93.76a.62.62,0,0,0,.4-1.08L79.77,35.45A.67.67,0,0,0,79.37,35.31Z"></path><path class="cls-1" d="M50.52,14.12,29.73,26.67h0V87a2.2,2.2,0,0,0,2.21,2.2H68.76A2.2,2.2,0,0,0,71,87V26.67Z"></path><path class="cls-3" d="M26.56,31.28l-2.38-3.94a.67.67,0,0,1,.21-.92l25.8-15.57a.66.66,0,0,1,.69,0L75.6,26a.68.68,0,0,1,.22.92l-2.41,3.92a.67.67,0,0,1-.92.22L50.86,17.82a.68.68,0,0,0-.7,0L27.48,31.51A.67.67,0,0,1,26.56,31.28Z"></path><circle class="cls-4" cx="50.2" cy="36.18" r="7.18"></circle><path class="cls-5" d="M54.05,40.09a.58.58,0,0,1-.39-.15l-3.86-3.3a.61.61,0,0,1-.22-.46V32.64a.61.61,0,0,1,1.22,0V35.9L54.45,39a.61.61,0,0,1-.4,1.07Z"></path><rect class="cls-5" x="42.17" y="66.08" width="16.2" height="23.16" rx="1.87"></rect><rect class="cls-6" x="42.17" y="51.68" width="16.2" height="7.81" rx="0.94"></rect><rect class="cls-6" x="14.17" y="58.19" width="10.4" height="6.76" rx="1.06"></rect><rect class="cls-6" x="14.17" y="69.99" width="10.4" height="6.76" rx="1.06"></rect><rect class="cls-6" x="76.41" y="58.19" width="10.4" height="6.76" rx="1.06"></rect><rect class="cls-6" x="76.41" y="69.99" width="10.4" height="6.76" rx="1.06"></rect></g></svg>